<svg width="1287" height="940" viewBox="0 0 1287 940" fill="none" xmlns="http://www.w3.org/2000/svg">
<g filter="url(#filter0_d_60_434)">
<rect width="1128" height="608" rx="42" fill="white"/>
<rect x="0.5" y="0.5" width="1127" height="607" rx="41.5" stroke="#232325"/>
</g>
<rect x="86" y="187" width="873" height="375" fill="#9FA7C0"/>
<rect x="495" y="482" width="69" height="33.9153" rx="16.9576" fill="#D9D9D9"/>
<g clip-path="url(#clip0_60_434)">
<path d="M543.159 491.2C542.768 492.492 542.735 493.866 543.064 495.176C543.393 496.485 544.071 497.681 545.025 498.636C545.98 499.59 547.176 500.268 548.485 500.597C549.795 500.926 551.169 500.893 552.461 500.502C552.086 501.734 551.399 502.848 550.466 503.735C549.533 504.623 548.386 505.253 547.137 505.566C545.888 505.878 544.579 505.862 543.338 505.518C542.097 505.174 540.967 504.515 540.056 503.605C539.146 502.694 538.487 501.564 538.143 500.323C537.799 499.082 537.783 497.773 538.095 496.524C538.408 495.275 539.038 494.128 539.926 493.195C540.813 492.262 541.927 491.575 543.159 491.2Z" stroke="#666666" stroke-width="1.24258" stroke-linecap="round" stroke-linejoin="round"/>
</g>
<circle cx="513.127" cy="498.958" r="14.6186" fill="white"/>
<g clip-path="url(#clip1_60_434)">
<path d="M513.127 492.123V490.26" stroke="#232325" stroke-width="1.24258" stroke-linecap="round" stroke-linejoin="round"/>
<path d="M513.127 503.307C515.529 503.307 517.476 501.36 517.476 498.958C517.476 496.556 515.529 494.609 513.127 494.609C510.725 494.609 508.778 496.556 508.778 498.958C508.778 501.36 510.725 503.307 513.127 503.307Z" fill="#232325" stroke="#232325" stroke-width="1.24258" stroke-linecap="round" stroke-linejoin="round"/>
<path d="M508.157 493.987L506.914 492.745" stroke="#232325" stroke-width="1.24258" stroke-linecap="round" stroke-linejoin="round"/>
<path d="M508.157 503.928L506.914 505.171" stroke="#232325" stroke-width="1.24258" stroke-linecap="round" stroke-linejoin="round"/>
<path d="M518.097 493.987L519.34 492.745" stroke="#232325" stroke-width="1.24258" stroke-linecap="round" stroke-linejoin="round"/>
<path d="M518.097 503.928L519.34 505.171" stroke="#232325" stroke-width="1.24258" stroke-linecap="round" stroke-linejoin="round"/>
<path d="M506.293 498.958H504.429" stroke="#232325" stroke-width="1.24258" stroke-linecap="round" stroke-linejoin="round"/>
<path d="M513.127 505.792V507.656" stroke="#232325" stroke-width="1.24258" stroke-linecap="round" stroke-linejoin="round"/>
<path d="M519.961 498.958H521.825" stroke="#232325" stroke-width="1.24258" stroke-linecap="round" stroke-linejoin="round"/>
</g>
<g clip-path="url(#clip2_60_434)">
<path d="M305 491H321" stroke="#232325" stroke-width="2" stroke-linecap="round" stroke-linejoin="round"/>
<path d="M305 499H321" stroke="#232325" stroke-width="2" stroke-linecap="round" stroke-linejoin="round"/>
<path d="M305 507H321" stroke="#232325" stroke-width="2" stroke-linecap="round" stroke-linejoin="round"/>
<path d="M299.5 492.5C300.328 492.5 301 491.828 301 491C301 490.172 300.328 489.5 299.5 489.5C298.672 489.5 298 490.172 298 491C298 491.828 298.672 492.5 299.5 492.5Z" fill="#232325"/>
<path d="M299.5 500.5C300.328 500.5 301 499.828 301 499C301 498.172 300.328 497.5 299.5 497.5C298.672 497.5 298 498.172 298 499C298 499.828 298.672 500.5 299.5 500.5Z" fill="#232325"/>
<path d="M299.5 508.5C300.328 508.5 301 507.828 301 507C301 506.172 300.328 505.5 299.5 505.5C298.672 505.5 298 506.172 298 507C298 507.828 298.672 508.5 299.5 508.5Z" fill="#232325"/>
</g>
<g clip-path="url(#clip3_60_434)">
<path d="M257 489H251C250.448 489 250 489.448 250 490V496C250 496.552 250.448 497 251 497H257C257.552 497 258 496.552 258 496V490C258 489.448 257.552 489 257 489Z" stroke="#232325" stroke-width="2" stroke-linecap="round" stroke-linejoin="round"/>
<path d="M269 489H263C262.448 489 262 489.448 262 490V496C262 496.552 262.448 497 263 497H269C269.552 497 270 496.552 270 496V490C270 489.448 269.552 489 269 489Z" stroke="#232325" stroke-width="2" stroke-linecap="round" stroke-linejoin="round"/>
<path d="M257 501H251C250.448 501 250 501.448 250 502V508C250 508.552 250.448 509 251 509H257C257.552 509 258 508.552 258 508V502C258 501.448 257.552 501 257 501Z" stroke="#232325" stroke-width="2" stroke-linecap="round" stroke-linejoin="round"/>
<path d="M269 501H263C262.448 501 262 501.448 262 502V508C262 508.552 262.448 509 263 509H269C269.552 509 270 508.552 270 508V502C270 501.448 269.552 501 269 501Z" stroke="#232325" stroke-width="2" stroke-linecap="round" stroke-linejoin="round"/>
</g>
<g clip-path="url(#clip4_60_434)">
<path d="M439 511C445.627 511 451 505.627 451 499C451 492.373 445.627 487 439 487C432.373 487 427 492.373 427 499C427 505.627 432.373 511 439 511Z" stroke="#232325" stroke-width="2" stroke-linecap="round" stroke-linejoin="round"/>
<path d="M439 491.615V499L433.461 504.538" stroke="#232325" stroke-width="2" stroke-linecap="round" stroke-linejoin="round"/>
</g>
<g clip-path="url(#clip5_60_434)">
<path d="M389 511C395.627 511 401 505.627 401 499C401 492.373 395.627 487 389 487C382.373 487 377 492.373 377 499C377 505.627 382.373 511 389 511Z" stroke="#232325" stroke-width="2" stroke-linecap="round" stroke-linejoin="round"/>
<path d="M389 491.615L389 499L394 504" stroke="#232325" stroke-width="2" stroke-linecap="round" stroke-linejoin="round"/>
</g>
<g clip-path="url(#clip6_60_434)">
<path d="M186 488H166C165.448 488 165 488.448 165 489V509C165 509.552 165.448 510 166 510H186C186.552 510 187 509.552 187 509V489C187 488.448 186.552 488 186 488Z" stroke="#232325" stroke-width="2" stroke-linecap="round" stroke-linejoin="round"/>
<path d="M182 486V490" stroke="#232325" stroke-width="2" stroke-linecap="round" stroke-linejoin="round"/>
<path d="M170 486V490" stroke="#232325" stroke-width="2" stroke-linecap="round" stroke-linejoin="round"/>
<path d="M165 494H187" stroke="#232325" stroke-width="2" stroke-linecap="round" stroke-linejoin="round"/>
<path d="M171.5 502L174.5 505L180.5 499" stroke="#232325" stroke-width="2" stroke-linecap="round" stroke-linejoin="round"/>
</g>
<g filter="url(#filter1_d_60_434)">
<rect x="159" y="374" width="1112" height="53" rx="10" fill="white"/>
</g>
<rect x="163" y="377" width="261" height="47" rx="8" fill="#FF3B30"/>
<rect x="428" y="377" width="185" height="47" rx="8" fill="#FF9500"/>
<rect x="617" y="377" width="104" height="47" rx="8" fill="#FFCC00"/>
<rect x="725" y="377" width="62" height="47" rx="8" fill="#34C759"/>
<rect x="791" y="377" width="51" height="47" rx="8" fill="#5AC8FA"/>
<rect x="846" y="377" width="41" height="47" rx="8" fill="#007AFF"/>
<rect x="891" y="377" width="40" height="47" rx="8" fill="#5856D6"/>
<rect x="935" y="377" width="37" height="47" rx="8" fill="#AF52DE"/>
<rect x="976" y="377" width="33" height="47" rx="8" fill="#FF2D55"/>
<rect x="1013" y="377" width="30" height="47" rx="8" fill="#8E8E93"/>
<rect x="1047" y="377" width="27" height="47" rx="8" fill="#AEAEB2"/>
<rect x="1078" y="377" width="23" height="47" rx="8" fill="#C7C7CC"/>
<rect x="1105" y="377" width="20" height="47" rx="8" fill="#E5E5EA"/>
<rect x="1129" y="377" width="17" height="47" rx="8" fill="#E5E5EA"/>
<rect x="1150" y="377" width="14" height="47" rx="7" fill="#F2F2F7"/>
<path d="M180.409 406.159C179.811 406.155 179.233 406.055 178.676 405.858C178.123 405.661 177.627 405.341 177.188 404.898C176.748 404.455 176.4 403.867 176.142 403.136C175.888 402.405 175.761 401.508 175.761 400.443C175.765 399.466 175.877 398.593 176.097 397.824C176.32 397.051 176.638 396.396 177.051 395.858C177.468 395.32 177.966 394.911 178.545 394.631C179.125 394.347 179.775 394.205 180.494 394.205C181.271 394.205 181.956 394.356 182.551 394.659C183.146 394.958 183.623 395.366 183.983 395.881C184.347 396.396 184.566 396.973 184.642 397.614H182.216C182.121 397.208 181.922 396.89 181.619 396.659C181.316 396.428 180.941 396.312 180.494 396.312C179.737 396.312 179.161 396.642 178.767 397.301C178.377 397.96 178.178 398.856 178.17 399.989H178.25C178.424 399.644 178.659 399.35 178.955 399.108C179.254 398.862 179.593 398.674 179.972 398.545C180.354 398.413 180.758 398.347 181.182 398.347C181.871 398.347 182.485 398.509 183.023 398.835C183.561 399.157 183.985 399.6 184.295 400.165C184.606 400.729 184.761 401.375 184.761 402.102C184.761 402.89 184.578 403.591 184.21 404.205C183.847 404.818 183.337 405.299 182.682 405.648C182.03 405.992 181.273 406.163 180.409 406.159ZM180.398 404.227C180.777 404.227 181.116 404.136 181.415 403.955C181.714 403.773 181.949 403.527 182.119 403.216C182.29 402.905 182.375 402.557 182.375 402.17C182.375 401.784 182.29 401.437 182.119 401.131C181.953 400.824 181.722 400.58 181.426 400.398C181.131 400.216 180.794 400.125 180.415 400.125C180.131 400.125 179.867 400.178 179.625 400.284C179.386 400.39 179.176 400.538 178.994 400.727C178.816 400.917 178.676 401.136 178.574 401.386C178.472 401.633 178.42 401.896 178.42 402.176C178.42 402.551 178.506 402.894 178.676 403.205C178.85 403.515 179.085 403.763 179.381 403.949C179.68 404.134 180.019 404.227 180.398 404.227ZM191.068 406.256C190.091 406.252 189.25 406.011 188.545 405.534C187.845 405.057 187.305 404.366 186.926 403.46C186.551 402.555 186.366 401.466 186.369 400.193C186.369 398.924 186.557 397.843 186.932 396.949C187.311 396.055 187.85 395.375 188.551 394.909C189.256 394.439 190.095 394.205 191.068 394.205C192.042 394.205 192.879 394.439 193.58 394.909C194.284 395.379 194.826 396.061 195.205 396.955C195.583 397.845 195.771 398.924 195.767 400.193C195.767 401.47 195.578 402.561 195.199 403.466C194.824 404.371 194.286 405.062 193.585 405.54C192.884 406.017 192.045 406.256 191.068 406.256ZM191.068 404.216C191.735 404.216 192.267 403.881 192.665 403.21C193.063 402.54 193.259 401.534 193.256 400.193C193.256 399.311 193.165 398.576 192.983 397.989C192.805 397.402 192.551 396.96 192.222 396.665C191.896 396.369 191.511 396.222 191.068 396.222C190.405 396.222 189.875 396.553 189.477 397.216C189.08 397.879 188.879 398.871 188.875 400.193C188.875 401.087 188.964 401.833 189.142 402.432C189.324 403.027 189.58 403.473 189.909 403.773C190.239 404.068 190.625 404.216 191.068 404.216Z" fill="#232325"/>
<path d="M444.767 403.955V402.017L449.625 394.364H451.295V397.045H450.307L447.244 401.892V401.983H454.148V403.955H444.767ZM450.352 406V403.364L450.398 402.506V394.364H452.705V406H450.352ZM460.253 406.159C459.654 406.155 459.077 406.055 458.52 405.858C457.967 405.661 457.471 405.341 457.031 404.898C456.592 404.455 456.243 403.867 455.986 403.136C455.732 402.405 455.605 401.508 455.605 400.443C455.609 399.466 455.721 398.593 455.94 397.824C456.164 397.051 456.482 396.396 456.895 395.858C457.312 395.32 457.81 394.911 458.389 394.631C458.969 394.347 459.618 394.205 460.338 394.205C461.115 394.205 461.8 394.356 462.395 394.659C462.99 394.958 463.467 395.366 463.827 395.881C464.19 396.396 464.41 396.973 464.486 397.614H462.06C461.965 397.208 461.766 396.89 461.463 396.659C461.16 396.428 460.785 396.312 460.338 396.312C459.58 396.312 459.005 396.642 458.611 397.301C458.221 397.96 458.022 398.856 458.014 399.989H458.094C458.268 399.644 458.503 399.35 458.798 399.108C459.098 398.862 459.437 398.674 459.815 398.545C460.198 398.413 460.601 398.347 461.026 398.347C461.715 398.347 462.329 398.509 462.866 398.835C463.404 399.157 463.829 399.6 464.139 400.165C464.45 400.729 464.605 401.375 464.605 402.102C464.605 402.89 464.421 403.591 464.054 404.205C463.69 404.818 463.181 405.299 462.526 405.648C461.874 405.992 461.116 406.163 460.253 406.159ZM460.241 404.227C460.62 404.227 460.959 404.136 461.259 403.955C461.558 403.773 461.793 403.527 461.963 403.216C462.134 402.905 462.219 402.557 462.219 402.17C462.219 401.784 462.134 401.437 461.963 401.131C461.796 400.824 461.565 400.58 461.27 400.398C460.974 400.216 460.637 400.125 460.259 400.125C459.974 400.125 459.711 400.178 459.469 400.284C459.23 400.39 459.02 400.538 458.838 400.727C458.66 400.917 458.52 401.136 458.418 401.386C458.315 401.633 458.264 401.896 458.264 402.176C458.264 402.551 458.349 402.894 458.52 403.205C458.694 403.515 458.929 403.763 459.224 403.949C459.524 404.134 459.863 404.227 460.241 404.227Z" fill="#232325"/>
<path d="M638.244 406.159C637.396 406.159 636.64 406.013 635.977 405.722C635.318 405.426 634.797 405.021 634.415 404.506C634.036 403.987 633.841 403.388 633.83 402.71H636.307C636.322 402.994 636.415 403.244 636.585 403.46C636.759 403.672 636.991 403.837 637.278 403.955C637.566 404.072 637.89 404.131 638.25 404.131C638.625 404.131 638.956 404.064 639.244 403.932C639.532 403.799 639.758 403.616 639.92 403.381C640.083 403.146 640.165 402.875 640.165 402.568C640.165 402.258 640.078 401.983 639.903 401.744C639.733 401.502 639.487 401.312 639.165 401.176C638.847 401.04 638.468 400.972 638.028 400.972H636.943V399.165H638.028C638.4 399.165 638.727 399.1 639.011 398.972C639.299 398.843 639.523 398.665 639.682 398.438C639.841 398.206 639.92 397.938 639.92 397.631C639.92 397.339 639.85 397.083 639.71 396.864C639.574 396.64 639.381 396.466 639.131 396.341C638.884 396.216 638.597 396.153 638.267 396.153C637.934 396.153 637.629 396.214 637.352 396.335C637.076 396.453 636.854 396.621 636.688 396.841C636.521 397.061 636.432 397.318 636.42 397.614H634.062C634.074 396.943 634.265 396.352 634.636 395.841C635.008 395.33 635.508 394.93 636.136 394.642C636.769 394.35 637.483 394.205 638.278 394.205C639.081 394.205 639.784 394.35 640.386 394.642C640.989 394.934 641.456 395.328 641.79 395.824C642.127 396.316 642.294 396.869 642.29 397.483C642.294 398.134 642.091 398.678 641.682 399.114C641.277 399.549 640.748 399.826 640.097 399.943V400.034C640.953 400.144 641.604 400.441 642.051 400.926C642.502 401.407 642.725 402.009 642.722 402.733C642.725 403.396 642.534 403.985 642.148 404.5C641.765 405.015 641.237 405.42 640.562 405.716C639.888 406.011 639.116 406.159 638.244 406.159ZM649.053 406.256C648.075 406.252 647.234 406.011 646.53 405.534C645.829 405.057 645.289 404.366 644.911 403.46C644.536 402.555 644.35 401.466 644.354 400.193C644.354 398.924 644.541 397.843 644.916 396.949C645.295 396.055 645.835 395.375 646.536 394.909C647.24 394.439 648.079 394.205 649.053 394.205C650.026 394.205 650.863 394.439 651.564 394.909C652.268 395.379 652.81 396.061 653.189 396.955C653.568 397.845 653.755 398.924 653.751 400.193C653.751 401.47 653.562 402.561 653.183 403.466C652.808 404.371 652.27 405.062 651.57 405.54C650.869 406.017 650.03 406.256 649.053 406.256ZM649.053 404.216C649.719 404.216 650.251 403.881 650.649 403.21C651.047 402.54 651.244 401.534 651.24 400.193C651.24 399.311 651.149 398.576 650.967 397.989C650.789 397.402 650.536 396.96 650.206 396.665C649.88 396.369 649.496 396.222 649.053 396.222C648.39 396.222 647.859 396.553 647.462 397.216C647.064 397.879 646.863 398.871 646.859 400.193C646.859 401.087 646.948 401.833 647.126 402.432C647.308 403.027 647.564 403.473 647.893 403.773C648.223 404.068 648.609 404.216 649.053 404.216Z" fill="#232325"/>
<path d="M746.006 394.364V406H743.545V396.699H743.477L740.812 398.369V396.188L743.693 394.364H746.006ZM752.982 394.205C753.58 394.205 754.156 394.305 754.709 394.506C755.266 394.706 755.762 395.027 756.197 395.466C756.637 395.905 756.983 396.489 757.237 397.216C757.495 397.939 757.625 398.828 757.629 399.881C757.629 400.869 757.518 401.752 757.294 402.528C757.074 403.301 756.758 403.958 756.345 404.5C755.932 405.042 755.434 405.455 754.851 405.739C754.268 406.019 753.616 406.159 752.896 406.159C752.12 406.159 751.434 406.009 750.839 405.71C750.245 405.407 749.766 404.996 749.402 404.477C749.042 403.955 748.824 403.367 748.749 402.716H751.175C751.269 403.14 751.468 403.47 751.771 403.705C752.074 403.936 752.449 404.051 752.896 404.051C753.654 404.051 754.23 403.722 754.624 403.062C755.018 402.4 755.216 401.492 755.22 400.341H755.141C754.966 400.682 754.732 400.975 754.436 401.222C754.141 401.464 753.802 401.652 753.419 401.784C753.04 401.917 752.637 401.983 752.209 401.983C751.523 401.983 750.911 401.822 750.374 401.5C749.836 401.178 749.411 400.735 749.101 400.17C748.79 399.606 748.635 398.962 748.635 398.239C748.631 397.458 748.811 396.763 749.175 396.153C749.538 395.544 750.046 395.066 750.697 394.722C751.353 394.373 752.114 394.201 752.982 394.205ZM752.999 396.136C752.616 396.136 752.275 396.227 751.976 396.409C751.68 396.591 751.446 396.835 751.271 397.142C751.101 397.449 751.018 397.792 751.021 398.17C751.021 398.553 751.105 398.898 751.271 399.205C751.442 399.508 751.673 399.75 751.964 399.932C752.26 400.11 752.597 400.199 752.976 400.199C753.26 400.199 753.523 400.146 753.766 400.04C754.008 399.934 754.218 399.788 754.396 399.602C754.578 399.413 754.72 399.195 754.822 398.949C754.925 398.703 754.976 398.441 754.976 398.165C754.972 397.797 754.885 397.46 754.714 397.153C754.544 396.847 754.309 396.6 754.01 396.415C753.711 396.229 753.374 396.136 752.999 396.136Z" fill="#232325"/>
<line x1="1271" y1="454.5" x2="159" y2="454.5" stroke="#D9D9D9"/>
<line x1="219.5" y1="519" x2="219.5" y2="479" stroke="#D9D9D9"/>
<line x1="349.5" y1="519" x2="349.5" y2="479" stroke="#D9D9D9"/>
<g clip-path="url(#clip7_60_434)">
<path d="M834.143 473.24L895.55 499.015C896.934 499.596 897.5 501.156 896.955 502.453L895.939 504.875C895.358 506.258 893.798 506.824 892.501 506.28L831.094 480.505C829.76 480.046 829.108 478.45 829.652 477.153L830.705 474.645C831.25 473.347 832.846 472.695 834.143 473.24Z" fill="#EEEAE2"/>
<path d="M891.738 508.096L830.332 482.321C828.083 481.377 826.979 478.676 827.923 476.427L828.975 473.919C829.919 471.67 832.621 470.566 834.869 471.51L896.276 497.285C898.611 498.265 899.629 500.93 898.685 503.179L897.669 505.601C896.775 507.972 894.073 509.076 891.738 508.096ZM833.417 474.969C833.071 474.824 832.58 475.025 832.435 475.371L831.419 477.792C831.237 478.225 831.474 478.63 831.82 478.775L893.227 504.55C893.659 504.732 894.064 504.495 894.209 504.149L895.225 501.727C895.407 501.295 895.17 500.89 894.824 500.745L833.417 474.969Z" fill="#232325"/>
<path d="M891.167 505.822L833.22 481.499L827.23 495.769C825.56 499.748 824.704 503.966 824.823 508.289L878.013 530.615C881.095 527.636 883.593 524.107 885.263 520.129L891.253 505.858L891.167 505.822Z" fill="#D9EFFF"/>
<path d="M877.201 532.309L824.011 509.982C823.319 509.692 822.895 509.005 822.889 508.291C822.793 503.673 823.721 499.281 825.5 495.043L831.49 480.773C831.889 479.821 832.994 479.369 833.946 479.769L891.893 504.092C892.844 504.491 893.296 505.596 892.897 506.548L886.907 520.818C885.128 525.056 882.557 528.758 879.193 531.924C878.643 532.507 877.893 532.599 877.201 532.309ZM826.587 506.994L877.442 528.341C879.96 525.735 881.945 522.703 883.361 519.33L888.625 506.789L834.137 483.918L828.873 496.459C827.457 499.832 826.683 503.373 826.587 506.994Z" fill="#131313"/>
<path d="M791.85 573.998L853.257 599.774C854.64 600.355 855.206 601.915 854.662 603.212L853.645 605.634C853.064 607.017 851.504 607.583 850.207 607.039L788.8 581.263C787.417 580.683 786.851 579.123 787.395 577.825L788.412 575.404C788.956 574.106 790.553 573.454 791.85 573.998Z" fill="#EEEAE2"/>
<path d="M849.445 608.855L788.038 583.08C785.703 582.099 784.685 579.434 785.629 577.186L786.646 574.764C787.626 572.429 790.291 571.411 792.54 572.355L853.947 598.13C856.282 599.111 857.299 601.776 856.355 604.024L855.339 606.446C854.445 608.818 851.78 609.835 849.445 608.855ZM791.124 575.728C790.692 575.547 790.287 575.784 790.142 576.13L789.125 578.551C788.944 578.984 789.181 579.388 789.527 579.534L850.933 605.309C851.366 605.49 851.77 605.253 851.916 604.908L852.932 602.486C853.114 602.053 852.877 601.649 852.531 601.503L791.124 575.728Z" fill="#232325"/>
<path d="M832.246 563.794C824.257 572.648 815.394 568.317 799.625 561.291L793.926 574.87L851.873 599.193L857.609 585.528C841.167 579.135 831.413 575.956 832.246 563.794Z" fill="#232325"/>
<path d="M851.197 601.045L793.25 576.722C792.298 576.323 791.847 575.218 792.246 574.266L797.946 560.688C798.127 560.255 798.518 559.809 798.973 559.695C799.464 559.494 799.969 559.502 800.401 559.684L801.872 560.301C817.64 567.327 824.286 569.913 830.821 562.585C831.371 562.002 832.158 561.824 832.936 562.15C833.714 562.477 834.138 563.164 834.107 563.964C833.454 573.761 839.954 576.693 855.927 582.991L858.212 583.848C858.644 584.03 859.091 584.42 859.205 584.875C859.406 585.366 859.397 585.871 859.216 586.304L853.48 599.969C853.253 600.993 852.148 601.445 851.197 601.045ZM796.432 573.989L850.919 596.86L855.167 586.741L854.648 586.523C841.27 581.314 832.029 577.639 830.59 567.981C822.725 573.632 813.63 569.611 800.679 563.87L796.432 573.989Z" fill="#131313"/>
<path d="M860.356 572.439C860.198 561.183 854.049 550.871 844.229 545.426L848.258 535.826L841.772 533.103L837.742 542.703C826.942 539.594 815.274 542.428 807.166 550.113C804.084 553.092 801.586 556.621 799.916 560.599L799.625 561.291C815.394 568.317 824.221 572.734 832.246 563.794C831.45 575.87 841.081 579.099 857.609 585.528L857.863 584.922C859.533 580.944 860.388 576.725 860.356 572.439Z" fill="#D9EFFF"/>
<path d="M807.425 566.701C805.263 565.794 802.878 564.691 800.456 563.674L798.899 563.021C797.948 562.621 797.496 561.516 797.896 560.565L798.186 559.873C799.965 555.635 802.536 551.933 805.813 548.731C814.044 540.996 825.734 537.867 836.666 540.421L840.078 532.291C840.478 531.339 841.583 530.888 842.534 531.287L849.021 534.01C849.972 534.409 850.424 535.514 850.024 536.466L846.612 544.595C856.091 550.609 862.082 561.058 862.203 572.401C862.299 577.019 861.458 581.447 859.679 585.685L859.425 586.29C859.026 587.241 857.921 587.693 856.969 587.294L854.684 586.436C841.393 581.264 832.066 577.553 830.627 567.895C824.207 572.525 816.939 570.695 807.425 566.701ZM802.168 560.324C817.763 567.277 824.409 569.863 830.944 562.535C831.494 561.952 832.281 561.774 833.095 562.014C833.874 562.34 834.298 563.027 834.267 563.828C833.613 573.625 840.114 576.557 856.173 582.89L856.692 583.108C857.934 579.663 858.622 576.086 858.509 572.478C858.27 561.899 852.494 552.151 843.243 547.047C842.415 546.597 842.049 545.529 842.412 544.664L845.716 536.793L842.775 535.559L839.472 543.429C839.109 544.294 838.09 544.782 837.189 544.506C827.153 541.514 816.063 544.183 808.432 551.458C805.828 554.027 803.67 556.987 802.168 560.324Z" fill="#131313"/>
<path d="M801.248 572.45C800.297 572.051 799.845 570.946 800.245 569.994L802.968 563.508C808.885 549.41 825.093 542.786 839.191 548.703C840.142 549.102 840.594 550.208 840.195 551.159C839.795 552.11 838.69 552.562 837.739 552.163C825.544 547.044 811.546 552.765 806.427 564.96L803.704 571.446C803.305 572.398 802.2 572.849 801.248 572.45Z" fill="#131313"/>
<path d="M844.042 536.904C855.545 541.733 868.914 539.206 877.927 530.579L824.737 508.252C824.855 520.814 832.452 532.04 844.042 536.904Z" fill="#232325"/>
<path d="M843.229 538.598C831.034 533.479 823.013 521.567 822.803 508.254C822.761 507.627 823.102 507.058 823.666 506.684C824.229 506.31 824.857 506.268 825.463 506.523L878.653 528.849C879.258 529.103 879.668 529.58 879.796 530.245C879.925 530.909 879.67 531.514 879.28 531.96C869.544 541.098 855.51 543.753 843.229 538.598ZM826.778 511.144C827.941 521.703 834.771 530.877 844.681 535.138C854.627 539.313 865.996 537.676 874.347 531.111L826.778 511.144Z" fill="#131313"/>
<path d="M847.749 531.95C846.798 531.551 846.346 530.446 846.745 529.494C847.145 528.543 848.25 528.091 849.201 528.49C859.753 532.919 871.909 527.951 876.338 517.4L879.968 508.751C880.368 507.799 881.473 507.348 882.424 507.747C883.376 508.146 883.827 509.252 883.428 510.203L879.798 518.852C874.57 531.306 860.203 537.178 847.749 531.95Z" fill="#131313"/>
</g>
<g filter="url(#filter2_d_60_434)">
<path d="M348.339 914.677C348.278 914.587 348.193 914.51 348.09 914.45C347.987 914.391 347.867 914.351 347.737 914.332C347.607 914.313 347.471 914.316 347.334 914.34C347.198 914.364 347.065 914.41 346.943 914.473L327.407 924.667C322.277 927.343 316.015 926.429 313.448 922.628C310.881 918.828 312.965 913.558 318.095 910.882L341.352 898.747C344.942 896.874 349.326 897.514 351.123 900.174C352.92 902.834 351.461 906.523 347.87 908.396L330.195 917.619C329.208 918.134 328.065 918.337 327.018 918.184C325.971 918.031 325.105 917.535 324.611 916.803C324.117 916.072 324.036 915.166 324.384 914.285C324.733 913.404 325.483 912.62 326.47 912.105L340.424 904.824C340.671 904.695 340.859 904.499 340.946 904.279C341.033 904.059 341.012 903.832 340.889 903.649C340.765 903.467 340.549 903.342 340.287 903.304C340.025 903.266 339.74 903.317 339.493 903.446L325.539 910.726C322.461 912.332 321.21 915.494 322.751 917.774C324.291 920.054 328.048 920.603 331.126 918.997L348.802 909.775C349.901 909.201 350.881 908.473 351.687 907.631C352.492 906.789 353.106 905.851 353.494 904.869C353.883 903.887 354.038 902.882 353.95 901.91C353.862 900.937 353.534 900.018 352.984 899.203C352.433 898.389 351.672 897.695 350.743 897.162C349.813 896.629 348.735 896.267 347.568 896.096C346.402 895.926 345.17 895.951 343.943 896.169C342.717 896.387 341.52 896.795 340.42 897.369L317.163 909.503C314.203 911.048 311.952 913.401 310.906 916.044C309.861 918.688 310.106 921.405 311.587 923.599C313.069 925.792 315.667 927.283 318.808 927.741C321.949 928.2 325.378 927.59 328.338 926.045L347.874 915.852C348.121 915.723 348.308 915.527 348.396 915.307C348.483 915.086 348.462 914.86 348.339 914.677Z" fill="#232325"/>
</g>
<g filter="url(#filter3_d_60_434)">
<path d="M658.828 870.157C658.714 870.187 658.608 870.241 658.518 870.315C658.427 870.388 658.354 870.481 658.302 870.587C658.25 870.693 658.22 870.81 658.214 870.932C658.208 871.054 658.226 871.179 658.266 871.298L664.811 890.419C666.53 895.439 664.01 900.559 659.194 901.833C654.378 903.106 649.062 900.057 647.343 895.037L639.552 872.274C638.349 868.76 640.113 865.176 643.484 864.285C646.855 863.393 650.577 865.527 651.779 869.042L657.701 886.341C658.032 887.307 657.981 888.331 657.559 889.187C657.138 890.043 656.38 890.662 655.454 890.907C654.527 891.152 653.507 891.003 652.618 890.493C651.729 889.983 651.044 889.154 650.714 888.188L646.039 874.531C645.956 874.289 645.785 874.082 645.563 873.955C645.34 873.827 645.085 873.79 644.854 873.851C644.622 873.913 644.433 874.067 644.327 874.281C644.222 874.495 644.209 874.751 644.292 874.993L648.967 888.65C649.998 891.663 653.188 893.492 656.077 892.728C658.967 891.964 660.479 888.892 659.448 885.879L653.526 868.58C653.158 867.504 652.59 866.492 651.854 865.602C651.119 864.712 650.231 863.962 649.241 863.394C648.25 862.826 647.177 862.452 646.082 862.292C644.988 862.132 643.893 862.191 642.861 862.464C641.828 862.737 640.879 863.219 640.066 863.883C639.253 864.547 638.593 865.379 638.124 866.333C637.654 867.287 637.385 868.343 637.33 869.442C637.275 870.541 637.437 871.66 637.805 872.736L645.596 895.499C646.588 898.396 648.644 900.883 651.311 902.413C653.978 903.942 657.037 904.389 659.817 903.654C662.597 902.919 664.869 901.063 666.133 898.494C667.397 895.926 667.55 892.855 666.558 889.957L660.013 870.836C659.931 870.595 659.759 870.388 659.537 870.26C659.315 870.133 659.06 870.096 658.828 870.157Z" fill="#232325"/>
</g>
<g filter="url(#filter4_d_60_434)">
<path d="M735.591 908.683C735.478 908.649 735.356 908.639 735.234 908.654C735.112 908.668 734.991 908.706 734.879 908.766C734.767 908.826 734.665 908.907 734.58 909.004C734.495 909.1 734.428 909.211 734.382 909.329L727.153 928.258C725.255 933.228 719.832 936.128 715.064 934.721C710.296 933.315 707.962 928.127 709.86 923.157L718.466 900.623C719.795 897.143 723.591 895.114 726.928 896.098C730.266 897.083 731.9 900.714 730.571 904.193L724.031 921.32C723.666 922.276 722.951 923.085 722.044 923.57C721.137 924.055 720.113 924.175 719.195 923.905C718.278 923.634 717.543 922.995 717.153 922.127C716.762 921.26 716.748 920.235 717.114 919.279L722.277 905.758C722.368 905.519 722.365 905.263 722.267 905.046C722.17 904.829 721.986 904.67 721.757 904.602C721.527 904.534 721.271 904.564 721.044 904.686C720.818 904.807 720.639 905.009 720.548 905.248L715.384 918.769C714.245 921.751 715.646 924.864 718.507 925.708C721.367 926.551 724.621 924.812 725.76 921.83L732.301 904.703C732.708 903.638 732.909 902.524 732.894 901.424C732.879 900.324 732.647 899.261 732.212 898.295C731.777 897.328 731.148 896.478 730.359 895.791C729.571 895.105 728.639 894.597 727.617 894.295C726.595 893.994 725.503 893.905 724.403 894.035C723.303 894.164 722.217 894.508 721.207 895.048C720.197 895.589 719.282 896.314 718.515 897.183C717.748 898.052 717.144 899.047 716.737 900.112L708.131 922.647C707.035 925.516 707.078 928.59 708.249 931.192C709.42 933.794 711.624 935.713 714.376 936.524C717.128 937.336 720.202 936.975 722.923 935.52C725.643 934.066 727.787 931.637 728.883 928.768L736.112 909.839C736.203 909.6 736.2 909.344 736.102 909.127C736.004 908.91 735.821 908.75 735.591 908.683Z" fill="#232325"/>
</g>
<path d="M921.406 437.353C921.406 437.353 912.622 411 879.995 411L841.721 414.765L810.349 437.353H921.406Z" fill="#232325"/>
<path d="M661.018 508.626C658.508 553.802 696.782 604.834 716.233 624.703C758.271 632.442 841.094 642.021 836.074 618.429C829.8 588.939 792.781 553.175 798.428 489.803C802.945 439.106 855.525 416.81 881.25 412H733.173C708.076 412 664.155 452.156 661.018 508.626Z" fill="white" stroke="#232325" stroke-width="1.5"/>
<path d="M867.684 678.036C861.71 618.834 811.727 572.625 750.951 572.625C690.174 572.625 640.191 618.834 634.217 678.036H867.684Z" fill="#232325"/>
<path d="M749.695 573.253C749.695 573.253 616.049 574.508 676.284 740.153L579.96 721.957L552.678 740.153C552.678 740.153 460.445 621.566 570.874 573.253H749.695Z" fill="white" stroke="#232325" stroke-width="1.5"/>
<path d="M676.586 739.612C676.586 739.612 649.606 710.122 610.077 712.004C596.483 718.069 570.925 729.949 577.45 728.945C583.976 727.941 593.136 735.638 596.901 739.612H676.586Z" fill="#232325" stroke="#232325" stroke-width="1.5"/>
<path d="M536.039 712.004C508.933 712.004 496.719 740.867 494 755.298H568.666C568.666 755.298 581.215 719.533 611.332 712.004H536.039Z" fill="white" stroke="#232325" stroke-width="1.5"/>
<path d="M528.509 720.702H578.077" stroke="#232325" stroke-width="1.5"/>
<path d="M542.94 678.036H634.547" stroke="#232325" stroke-width="1.5"/>
<path d="M531.646 656.703H627.018" stroke="#232325" stroke-width="1.5"/>
<path d="M531.646 632.86H633.292" stroke="#232325" stroke-width="1.5"/>
<path d="M552.98 609.017H654.625" stroke="#232325" stroke-width="1.5"/>
<path d="M701.056 438.353H802.702" stroke="#232325" stroke-width="1.5"/>
<path d="M680.978 467.215H782.624" stroke="#232325" stroke-width="1.5"/>
<path d="M680.978 498.587H782.624" stroke="#232325" stroke-width="1.5"/>
<path d="M517.215 729.486H569.921" stroke="#232325" stroke-width="1.5"/>
<path d="M507.804 742.035H565.528" stroke="#232325" stroke-width="1.5"/>
<circle cx="859" cy="463" r="4" fill="#64D2FF"/>
<circle cx="882.5" cy="454.5" r="8.5" fill="#007AFF"/>
<defs>
<filter id="filter0_d_60_434" x="0" y="0" width="1130" height="611" filterUnits="userSpaceOnUse" color-interpolation-filters="sRGB">
<feFlood flood-opacity="0" result="BackgroundImageFix"/>
<feColorMatrix in="SourceAlpha" type="matrix" values="0 0 0 0 0 0 0 0 0 0 0 0 0 0 0 0 0 0 127 0" result="hardAlpha"/>
<feOffset dx="2" dy="3"/>
<feComposite in2="hardAlpha" operator="out"/>
<feColorMatrix type="matrix" values="0 0 0 0 0 0 0 0 0 0 0 0 0 0 0 0 0 0 0.25 0"/>
<feBlend mode="normal" in2="BackgroundImageFix" result="effect1_dropShadow_60_434"/>
<feBlend mode="normal" in="SourceGraphic" in2="effect1_dropShadow_60_434" result="shape"/>
</filter>
<filter id="filter1_d_60_434" x="143.038" y="358.038" width="1143.92" height="84.9234" filterUnits="userSpaceOnUse" color-interpolation-filters="sRGB">
<feFlood flood-opacity="0" result="BackgroundImageFix"/>
<feColorMatrix in="SourceAlpha" type="matrix" values="0 0 0 0 0 0 0 0 0 0 0 0 0 0 0 0 0 0 127 0" result="hardAlpha"/>
<feOffset/>
<feGaussianBlur stdDeviation="7.98086"/>
<feComposite in2="hardAlpha" operator="out"/>
<feColorMatrix type="matrix" values="0 0 0 0 0 0 0 0 0 0 0 0 0 0 0 0 0 0 0.12 0"/>
<feBlend mode="normal" in2="BackgroundImageFix" result="effect1_dropShadow_60_434"/>
<feBlend mode="normal" in="SourceGraphic" in2="effect1_dropShadow_60_434" result="shape"/>
</filter>
<filter id="filter2_d_60_434" x="310.267" y="895.985" width="44.7723" height="32.9715" filterUnits="userSpaceOnUse" color-interpolation-filters="sRGB">
<feFlood flood-opacity="0" result="BackgroundImageFix"/>
<feColorMatrix in="SourceAlpha" type="matrix" values="0 0 0 0 0 0 0 0 0 0 0 0 0 0 0 0 0 0 127 0" result="hardAlpha"/>
<feOffset dx="1.0658" dy="1.0658"/>
<feComposite in2="hardAlpha" operator="out"/>
<feColorMatrix type="matrix" values="0 0 0 0 0 0 0 0 0 0 0 0 0 0 0 0 0 0 0.25 0"/>
<feBlend mode="normal" in2="BackgroundImageFix" result="effect1_dropShadow_60_434"/>
<feBlend mode="normal" in="SourceGraphic" in2="effect1_dropShadow_60_434" result="shape"/>
</filter>
<filter id="filter3_d_60_434" x="637.32" y="862.204" width="30.9495" height="42.8591" filterUnits="userSpaceOnUse" color-interpolation-filters="sRGB">
<feFlood flood-opacity="0" result="BackgroundImageFix"/>
<feColorMatrix in="SourceAlpha" type="matrix" values="0 0 0 0 0 0 0 0 0 0 0 0 0 0 0 0 0 0 127 0" result="hardAlpha"/>
<feOffset dx="1.06373" dy="1.06373"/>
<feComposite in2="hardAlpha" operator="out"/>
<feColorMatrix type="matrix" values="0 0 0 0 0 0 0 0 0 0 0 0 0 0 0 0 0 0 0.25 0"/>
<feBlend mode="normal" in2="BackgroundImageFix" result="effect1_dropShadow_60_434"/>
<feBlend mode="normal" in="SourceGraphic" in2="effect1_dropShadow_60_434" result="shape"/>
</filter>
<filter id="filter4_d_60_434" x="707.339" y="893.977" width="29.9031" height="44.036" filterUnits="userSpaceOnUse" color-interpolation-filters="sRGB">
<feFlood flood-opacity="0" result="BackgroundImageFix"/>
<feColorMatrix in="SourceAlpha" type="matrix" values="0 0 0 0 0 0 0 0 0 0 0 0 0 0 0 0 0 0 127 0" result="hardAlpha"/>
<feOffset dx="1.064" dy="1.064"/>
<feComposite in2="hardAlpha" operator="out"/>
<feColorMatrix type="matrix" values="0 0 0 0 0 0 0 0 0 0 0 0 0 0 0 0 0 0 0.25 0"/>
<feBlend mode="normal" in2="BackgroundImageFix" result="effect1_dropShadow_60_434"/>
<feBlend mode="normal" in="SourceGraphic" in2="effect1_dropShadow_60_434" result="shape"/>
</filter>
<clipPath id="clip0_60_434">
<rect width="19.8814" height="19.8814" fill="white" transform="translate(534.763 489.017)"/>
</clipPath>
<clipPath id="clip1_60_434">
<rect width="19.8814" height="19.8814" fill="white" transform="translate(503.187 489.017)"/>
</clipPath>
<clipPath id="clip2_60_434">
<rect width="32" height="32" fill="white" transform="translate(294 483)"/>
</clipPath>
<clipPath id="clip3_60_434">
<rect width="32" height="32" fill="white" transform="translate(244 483)"/>
</clipPath>
<clipPath id="clip4_60_434">
<rect width="32" height="32" fill="white" transform="translate(423 483)"/>
</clipPath>
<clipPath id="clip5_60_434">
<rect width="32" height="32" fill="white" transform="translate(373 483)"/>
</clipPath>
<clipPath id="clip6_60_434">
<rect width="32" height="32" fill="white" transform="translate(160 483)"/>
</clipPath>
<clipPath id="clip7_60_434">
<rect width="121" height="121" fill="white" transform="translate(809.831 461) rotate(22.7701)"/>
</clipPath>
</defs>
</svg>
