<svg data-v-6805eed4="" version="1.0" xmlns="http://www.w3.org/2000/svg" xmlns:xlink="http://www.w3.org/1999/xlink" width="340" height="250" viewBox="0 0 340.000000 250.000000" preserveAspectRatio="xMidYMid meet" color-interpolation-filters="sRGB" style="margin: auto;"> <rect data-v-6805eed4="" x="0" y="0" width="100%" height="100%" fill="#FFFFFF" fill-opacity="0" class="background"></rect> <!----> <g data-v-6805eed4="" class="iconmbgsvg" transform="translate(50.19999694824219,50)"><g fill="#000000" hollow-target="textRect"><g transform="translate(44.80000305175781,0)" mask="url(#88510569-cd48-4101-adb5-c079e67df52c)"><g><rect fill="#000000" fill-opacity="0" stroke-width="2px" x="0" y="0" width="150" height="150" class="image-rect"></rect> <svg x="0" y="0" width="150" height="150" filtersec="colorsb4559529196" class="image-svg-svg primary" style="overflow: visible;"><svg fill="#000000" xmlns="http://www.w3.org/2000/svg" xmlns:xlink="http://www.w3.org/1999/xlink" version="1.1" x="0px" y="0px" viewBox="5 5 90 90" style="enable-background:new 0 0 100 100;" xml:space="preserve"><path d="M62.058,5H37.942L17.058,17.058L5,37.942v24.115l12.058,20.885L37.942,95h24.115l20.885-12.058L95,62.058V37.942  L82.942,17.058L62.058,5z M89,60.45l-10.45,18.1L60.45,89h-20.9l-18.1-10.45L11,60.45v-20.9l10.45-18.1L39.55,11h20.9l18.1,10.45  L89,39.55V60.45z"></path><path d="M58.842,17H41.158l-15.316,8.842L17,41.158v17.685l8.842,15.315L41.158,83h17.684l15.316-8.842L83,58.842V41.158  l-8.842-15.315L58.842,17z M77,57.235l-7.234,12.53L57.234,77H42.766l-12.531-7.235L23,57.235v-14.47l7.234-12.53L42.766,23h14.469  l12.531,7.235L77,42.765V57.235z"></path></svg></svg> <!----></g></g> <g transform="translate(0,54.63999938964844)"><g data-gra="path-name" fill-rule="" class="tp-name"><g transform="scale(1)"><g><path d="M7.7 3.96L4.48 0.73 5.48 0.73 8.7 3.96 7.7 3.96ZM2.51 0.73L3.51 0.73 6.73 3.96 5.76 3.96 2.51 0.73ZM9.65 0.97L9.55 1.87 6.33-1.35 6.4-2.28 9.65 0.97ZM6.23-0.47L9.48 2.77 9.41 3.7 6.16 0.45 6.23-0.47ZM9.72 0.07L6.47-3.15 6.57-4.08 9.79-0.85 9.72 0.07ZM16.57 3.96L15.57 3.96 12.35 0.73 13.32 0.73 16.57 3.96ZM11.38 0.73L14.6 3.96 13.63 3.96 10.38 0.73 11.38 0.73ZM9.96-2.65L9.88-1.73 6.64-4.98 6.73-5.88 9.96-2.65ZM17.54 3.96L14.29 0.73 14.86 0.73 14.82 0.24 18.06 3.48 18.09 3.96 17.54 3.96ZM10.03-3.53L6.8-6.78 6.87-7.7 9.98-4.6 10.05-3.67 10.03-3.53ZM14.72-0.81L14.65-1.9 17.87 1.35 17.97 2.42 14.72-0.81ZM17.8 0.28L14.55-2.94 14.46-4.03 17.71-0.81 17.8 0.28ZM7.4-8.15L8.37-8.15 9.81-6.71 9.88-5.64 7.4-8.15ZM9.74-7.77L9.34-8.15 9.69-8.15 9.74-7.77ZM17.61-1.85L14.39-5.1 14.29-6.16 17.54-2.94 17.61-1.85ZM17.35-5.07L17.45-4.01 14.2-7.23 14.13-8.32 17.35-5.07ZM9.05-12.37L7.44-14.01 7.51-14.91 9.29-13.13 9.34-12.37 9.05-12.37ZM7.3-12.37L7.35-13.11 8.08-12.37 7.3-12.37ZM17.28-6.14L14.03-9.36 13.94-10.45 17.19-7.23 17.28-6.14ZM9.13-15.27L9.22-14.2 7.59-15.81 7.68-16.74 9.13-15.27ZM17-9.36L17.09-8.27 13.87-11.52 13.77-12.59 17-9.36ZM9.05-16.33L7.75-17.61 7.82-18.54 8.96-17.4 9.05-16.33ZM16.92-10.43L13.68-13.65 13.61-14.74 16.83-11.5 16.92-10.43ZM8.79-19.53L8.89-18.47 7.92-19.44 7.99-20.34 8.79-19.53ZM16.66-13.65L16.76-12.56 13.51-15.79 13.42-16.88 16.66-13.65ZM8.72-20.6L8.06-21.24 8.15-22.16 8.63-21.67 8.72-20.6ZM16.57-14.7L13.32-17.94 13.25-19.01 16.47-15.79 16.57-14.7ZM8.46-23.8L8.56-22.73 8.23-23.04 8.3-23.96 8.46-23.8ZM16.31-17.92L16.4-16.83 13.16-20.08 13.06-21.17 16.31-17.92ZM16.21-18.99L12.99-22.21 12.89-23.3 16.14-20.08 16.21-18.99ZM15.95-22.21L16.05-21.12 12.8-24.37 12.73-25.43 15.95-22.21ZM15.88-23.25L12.63-26.5 12.54-27.59 15.79-24.34 15.88-23.25ZM15.6-26.5L15.69-25.41 12.47-28.63 12.37-29.72 15.6-26.5ZM15.53-27.54L12.28-30.79 12.21-31.86 15.43-28.63 15.53-27.54ZM15.27-30.77L15.34-29.68 12.11-32.92 12.02-34.02 15.27-30.77ZM15.17-31.83L11.92-35.06 11.85-36.15 15.08-32.9 15.17-31.83ZM11.05 0L10.38-8.89 6.26-8.89 5.48 0 2.47 0 5.71-35.67 11.16-35.67 14.06 0 11.05 0ZM8.68-30.44L8.15-30.44 6.49-11.66 10.15-11.66 8.68-30.44ZM24.56-30.25L24.56-29.25 22.04-31.74 23.06-31.74 24.56-30.25ZM21.1-31.74L24.32-28.52 23.73-28.52 20.48-31.74 21.1-31.74ZM24.56-31.22L24.04-31.74 24.56-31.74 24.56-31.22ZM31.24 3.96L30.25 3.96 27.02 0.73 27.99 0.73 31.24 3.96ZM26.05 0.73L29.27 3.96 28.28 3.96 25.06 0.73 26.05 0.73ZM33.26-34.32L33.26-35.32 36.48-32.07 36.48-31.08 33.26-34.32ZM36.48-33.07L33.26-36.29 33.26-36.36 36.48-33.11 36.48-33.07ZM32.21 3.96L28.97 0.73 29.18 0.73 29.18-0.07 32.4 3.15 32.4 3.96 32.21 3.96ZM32.4 1.21L32.4 2.18 29.18-1.04 29.18-2.04 32.4 1.21ZM32.4 0.24L29.18-3.01 29.18-4.01 32.4-0.76 32.4 0.24ZM29.18-4.98L29.18-5.97 32.4-2.73 32.4-1.73 29.18-4.98ZM32.4-3.7L29.18-6.95 29.18-7.94 32.4-4.69 32.4-3.7ZM32.4-5.67L29.18-8.91 29.18-9.91 32.4-6.66 32.4-5.67ZM32.4-8.63L32.4-7.63 29.18-10.88 29.18-11.88 32.4-8.63ZM32.4-9.6L29.18-12.82 29.18-13.84 32.4-10.6 32.4-9.6ZM32.4-12.56L32.4-11.57 29.18-14.82 29.18-15.79 32.4-12.56ZM32.4-13.53L29.18-16.78 29.18-17.75 32.4-14.53 32.4-13.53ZM32.4-16.5L32.4-15.5 29.18-18.73 29.18-19.75 32.4-16.5ZM32.4-17.47L29.18-20.72 29.18-21.69 32.4-18.47 32.4-17.47ZM32.4-20.43L32.4-19.44 29.18-22.66 29.18-23.66 32.4-20.43ZM32.4-21.4L29.18-24.63 29.18-25.62 32.4-22.4 32.4-21.4ZM32.4-24.37L32.4-23.37 29.18-26.6 29.18-27.59 32.4-24.37ZM32.4-25.34L29.18-28.56 29.18-29.56 32.4-26.34 32.4-25.34ZM32.4-28.3L32.4-27.31 29.18-30.53 29.18-31.53 32.4-28.3ZM33.16-28.52L29.91-31.74 30.91-31.74 34.16-28.52 33.16-28.52ZM36.12-28.52L35.13-28.52 31.88-31.74 32.88-31.74 36.12-28.52ZM36.48-29.13L33.26-32.36 33.26-33.35 36.48-30.1 36.48-29.13ZM21.22-32.47L21.22-35.63 32.52-35.63 32.52-32.47 28.44-32.47 28.44 0 25.29 0 25.29-32.47 21.22-32.47ZM43.09-30.25L43.09-29.25 40.58-31.74 41.6-31.74 43.09-30.25ZM39.63-31.74L42.86-28.52 42.26-28.52 39.02-31.74 39.63-31.74ZM43.09-31.22L42.57-31.74 43.09-31.74 43.09-31.22ZM49.78 3.96L48.78 3.96 45.56 0.73 46.53 0.73 49.78 3.96ZM44.59 0.73L47.81 3.96 46.82 3.96 43.59 0.73 44.59 0.73ZM51.79-34.32L51.79-35.32 55.02-32.07 55.02-31.08 51.79-34.32ZM55.02-33.07L51.79-36.29 51.79-36.36 55.02-33.11 55.02-33.07ZM50.75 3.96L47.5 0.73 47.72 0.73 47.72-0.07 50.94 3.15 50.94 3.96 50.75 3.96ZM50.94 1.21L50.94 2.18 47.72-1.04 47.72-2.04 50.94 1.21ZM50.94 0.24L47.72-3.01 47.72-4.01 50.94-0.76 50.94 0.24ZM47.72-4.98L47.72-5.97 50.94-2.73 50.94-1.73 47.72-4.98ZM50.94-3.7L47.72-6.95 47.72-7.94 50.94-4.69 50.94-3.7ZM50.94-5.67L47.72-8.91 47.72-9.91 50.94-6.66 50.94-5.67ZM50.94-8.63L50.94-7.63 47.72-10.88 47.72-11.88 50.94-8.63ZM50.94-9.6L47.72-12.82 47.72-13.84 50.94-10.6 50.94-9.6ZM50.94-12.56L50.94-11.57 47.72-14.82 47.72-15.79 50.94-12.56ZM50.94-13.53L47.72-16.78 47.72-17.75 50.94-14.53 50.94-13.53ZM50.94-16.5L50.94-15.5 47.72-18.73 47.72-19.75 50.94-16.5ZM50.94-17.47L47.72-20.72 47.72-21.69 50.94-18.47 50.94-17.47ZM50.94-20.43L50.94-19.44 47.72-22.66 47.72-23.66 50.94-20.43ZM50.94-21.4L47.72-24.63 47.72-25.62 50.94-22.4 50.94-21.4ZM50.94-24.37L50.94-23.37 47.72-26.6 47.72-27.59 50.94-24.37ZM50.94-25.34L47.72-28.56 47.72-29.56 50.94-26.34 50.94-25.34ZM50.94-28.3L50.94-27.31 47.72-30.53 47.72-31.53 50.94-28.3ZM51.7-28.52L48.45-31.74 49.45-31.74 52.69-28.52 51.7-28.52ZM54.66-28.52L53.67-28.52 50.42-31.74 51.41-31.74 54.66-28.52ZM55.02-29.13L51.79-32.36 51.79-33.35 55.02-30.1 55.02-29.13ZM39.75-32.47L39.75-35.63 51.06-35.63 51.06-32.47 46.98-32.47 46.98 0 43.83 0 43.83-32.47 39.75-32.47ZM65.02-3.65L63.27-5.38 63.27-6.4 66.02-3.65 65.02-3.65ZM63.27-3.65L63.27-4.43 64.05-3.65 63.27-3.65ZM63.27-7.37L63.27-8.34 66.51-5.12 66.51-4.12 63.27-7.37ZM66.51-6.09L63.27-9.32 63.27-10.31 66.51-7.09 66.51-6.09ZM66.51-8.06L63.27-11.28 63.27-12.28 66.51-9.05 66.51-8.06ZM66.51-11.02L66.51-10.03 63.27-13.27 63.27-14.25 66.51-11.02ZM66.51-11.99L63.27-15.22 63.27-15.79 63.72-15.79 66.94-12.54 66.51-12.54 66.51-11.99ZM68.91-12.54L67.91-12.54 64.69-15.79 65.68-15.79 68.91-12.54ZM69.88-12.54L66.66-15.79 67.44-15.79 67.44-15.98 70.69-12.75 70.69-12.54 69.88-12.54ZM70.69-14.72L70.69-13.7 67.44-16.95 67.44-17.94 70.69-14.72ZM70.69-15.69L67.44-18.92 67.44-19.91 70.69-16.66 70.69-15.69ZM62.51 3.96L59.26 0.73 60.26 0.73 63.5 3.96 62.51 3.96ZM67.41 3.96L66.44 3.96 63.19 0.73 64.19 0.73 67.41 3.96ZM62.22 0.73L65.47 3.96 64.47 3.96 61.23 0.73 62.22 0.73ZM68.39 3.96L65.16 0.73 66.16 0.73 69.38 3.96 68.39 3.96ZM70.69 3.96L70.35 3.96 67.13 0.73 67.44 0.73 67.44 0.05 70.69 3.29 70.69 3.96ZM70.69 2.32L67.44-0.92 67.44-1.92 70.69 1.33 70.69 2.32ZM70.69-0.4L70.69 0.36 67.44-2.89 67.44-3.65 70.69-0.4ZM64.95-20.15L63.95-20.15 63.27-20.81 63.27-21.83 64.95-20.15ZM65.92-20.15L63.27-22.8 63.27-23.78 66.51-20.55 66.51-20.15 65.92-20.15ZM66.51-22.52L66.51-21.52 63.27-24.75 63.27-25.74 66.51-22.52ZM66.51-23.49L63.27-26.71 63.27-27.71 66.51-24.49 66.51-23.49ZM66.51-26.45L66.51-25.46 63.27-28.68 63.27-29.68 66.51-26.45ZM66.51-27.43L63.27-30.65 63.27-31.64 66.51-28.42 66.51-27.43ZM68.08-28.8L67.08-28.8 63.86-32.05 64.85-32.05 68.08-28.8ZM69.05-28.8L65.8-32.05 66.8-32.05 70.05-28.8 69.05-28.8ZM70.69-30.15L70.69-29.13 67.44-32.38 67.44-33.38 70.69-30.15ZM70.69-31.1L67.44-34.35 67.44-35.34 70.69-32.1 70.69-31.1ZM70.69-33.16L70.69-33.07 67.44-36.31 67.44-36.41 70.69-33.16ZM59.38 0L59.38-35.67 66.7-35.67 66.7-32.76 62.53-32.76 62.53-19.41 66.7-19.41 66.7-16.5 62.53-16.5 62.53-2.92 66.7-2.92 66.7 0 59.38 0ZM81 3.96L77.77 0.73 78.77 0.73 81.99 3.96 81 3.96ZM75.81 0.73L76.8 0.73 80.02 3.96 79.05 3.96 75.81 0.73ZM85.93 3.96L84.93 3.96 81.71 0.73 82.7 0.73 85.93 3.96ZM79.86-0.14L83.08 3.08 83.08 3.96 82.96 3.96 79.74 0.73 79.86 0.73 79.86-0.14ZM81.3 0.31L79.86-1.11 79.86-2.11 81.19-0.78 81.3 0.31ZM87.82-34.44L87.82-35.44 91.05-32.21 91.05-31.19 87.82-34.44ZM86.9 3.96L83.68 0.73 84.67 0.73 87.89 3.96 86.9 3.96ZM80.97-2.96L81.09-1.85 79.86-3.08 79.86-4.08 80.97-2.96ZM89.86 3.96L88.87 3.96 85.64 0.73 86.61 0.73 89.86 3.96ZM80.88-4.03L79.86-5.05 79.86-6.04 80.76-5.14 80.88-4.03ZM90.83 3.96L87.59 0.73 87.82 0.73 87.82-0.05 91.05 3.18 91.05 3.96 90.83 3.96ZM80.55-7.32L80.66-6.21 79.86-7.02 79.86-8.01 80.55-7.32ZM87.82-1.02L87.82-2.01 91.05 1.23 91.05 2.23 87.82-1.02ZM91.05 0.26L87.82-2.99 87.82-3.98 91.05-0.73 91.05 0.26ZM79.86-9.98L80.33-9.48 80.45-8.39 79.86-8.98 79.86-9.98ZM80.12-11.66L80.24-10.57 79.86-10.93 79.86-11.95 80.12-11.66ZM91.05-1.71L87.82-4.95 87.82-5.95 91.05-2.7 91.05-1.71ZM79.91-13.84L80.02-12.75 79.86-12.89 79.86-13.91 79.91-13.84ZM91.05-4.67L91.05-3.67 87.82-6.92 87.82-7.92 91.05-4.67ZM91.05-5.64L87.82-8.89 87.82-9.88 91.05-6.64 91.05-5.64ZM91.05-8.6L91.05-7.61 87.82-10.86 87.82-11.85 91.05-8.6ZM91.05-9.58L87.82-12.82 87.82-13.8 91.05-10.57 91.05-9.58ZM91.05-12.54L91.05-11.54 87.82-14.77 87.82-15.79 91.05-12.54ZM91.05-13.51L87.82-16.76 87.82-17.73 91.05-14.51 91.05-13.51ZM91.05-16.47L91.05-15.48 87.82-18.7 87.82-19.7 91.05-16.47ZM83.3-24.23L83.3-23.23 83.2-23.32 83.08-24.44 83.3-24.23ZM91.05-17.45L87.82-20.67 87.82-21.67 91.05-18.44 91.05-17.45ZM83.3-25.2L82.99-25.51 82.87-26.62 83.3-26.19 83.3-25.2ZM91.05-20.41L91.05-19.41 87.82-22.64 87.82-23.63 91.05-20.41ZM83.3-28.16L83.3-27.16 82.77-27.69 82.66-28.8 83.3-28.16ZM91.05-21.38L87.82-24.6 87.82-25.6 91.05-22.38 91.05-21.38ZM83.3-29.13L82.56-29.87 82.44-30.98 83.3-30.13 83.3-29.13ZM91.05-24.34L91.05-23.35 87.82-26.57 87.82-27.57 91.05-24.34ZM83.3-32.1L83.3-31.1 82.35-32.05 82.25-33.14 83.3-32.1ZM91.05-25.32L87.82-28.54 87.82-29.54 91.05-26.29 91.05-25.32ZM83.3-33.07L82.13-34.23 82.04-35.32 83.3-34.04 83.3-33.07ZM91.05-28.28L91.05-27.26 87.82-30.51 87.82-31.5 91.05-28.28ZM83.3-35.03L83.3-35.01 81.92-36.41 81.92-36.41 83.3-35.03ZM91.05-29.25L87.82-32.47 87.82-33.47 91.05-30.22 91.05-29.25ZM84.03-35.67L87.09-35.67 87.09 0 81.99 0 79.12-29.42 79.12 0 76.02 0 76.02-35.67 81.26-35.67 84.03-7.23 84.03-35.67ZM98.54-30.25L98.54-29.25 96.02-31.74 97.04-31.74 98.54-30.25ZM95.08-31.74L98.3-28.52 97.71-28.52 94.46-31.74 95.08-31.74ZM98.54-31.22L98.02-31.74 98.54-31.74 98.54-31.22ZM105.22 3.96L104.23 3.96 101 0.73 101.97 0.73 105.22 3.96ZM100.03 0.73L103.25 3.96 102.26 3.96 99.04 0.73 100.03 0.73ZM107.24-34.32L107.24-35.32 110.46-32.07 110.46-31.08 107.24-34.32ZM110.46-33.07L107.24-36.29 107.24-36.36 110.46-33.11 110.46-33.07ZM106.19 3.96L102.95 0.73 103.16 0.73 103.16-0.07 106.38 3.15 106.38 3.96 106.19 3.96ZM106.38 1.21L106.38 2.18 103.16-1.04 103.16-2.04 106.38 1.21ZM106.38 0.24L103.16-3.01 103.16-4.01 106.38-0.76 106.38 0.24ZM103.16-4.98L103.16-5.97 106.38-2.73 106.38-1.73 103.16-4.98ZM106.38-3.7L103.16-6.95 103.16-7.94 106.38-4.69 106.38-3.7ZM106.38-5.67L103.16-8.91 103.16-9.91 106.38-6.66 106.38-5.67ZM106.38-8.63L106.38-7.63 103.16-10.88 103.16-11.88 106.38-8.63ZM106.38-9.6L103.16-12.82 103.16-13.84 106.38-10.6 106.38-9.6ZM106.38-12.56L106.38-11.57 103.16-14.82 103.16-15.79 106.38-12.56ZM106.38-13.53L103.16-16.78 103.16-17.75 106.38-14.53 106.38-13.53ZM106.38-16.5L106.38-15.5 103.16-18.73 103.16-19.75 106.38-16.5ZM106.38-17.47L103.16-20.72 103.16-21.69 106.38-18.47 106.38-17.47ZM106.38-20.43L106.38-19.44 103.16-22.66 103.16-23.66 106.38-20.43ZM106.38-21.4L103.16-24.63 103.16-25.62 106.38-22.4 106.38-21.4ZM106.38-24.37L106.38-23.37 103.16-26.6 103.16-27.59 106.38-24.37ZM106.38-25.34L103.16-28.56 103.16-29.56 106.38-26.34 106.38-25.34ZM106.38-28.3L106.38-27.31 103.16-30.53 103.16-31.53 106.38-28.3ZM107.14-28.52L103.89-31.74 104.89-31.74 108.14-28.52 107.14-28.52ZM110.11-28.52L109.11-28.52 105.86-31.74 106.86-31.74 110.11-28.52ZM110.46-29.13L107.24-32.36 107.24-33.35 110.46-30.1 110.46-29.13ZM95.2-32.47L95.2-35.63 106.5-35.63 106.5-32.47 102.43-32.47 102.43 0 99.27 0 99.27-32.47 95.2-32.47ZM119.8 3.96L116.55 0.73 117.55 0.73 120.77 3.96 119.8 3.96ZM114.59 0.73L115.58 0.73 118.83 3.96 117.83 3.96 114.59 0.73ZM121.96 3.96L121.74 3.96 118.52 0.73 118.71 0.73 118.71-0.07 121.96 3.15 121.96 3.96ZM121.96 2.18L118.71-1.04 118.71-2.04 121.96 1.21 121.96 2.18ZM121.96-0.76L121.96 0.24 118.71-3.01 118.71-4.01 121.96-0.76ZM118.71-5.97L121.96-2.73 121.96-1.73 118.71-4.98 118.71-5.97ZM121.96-4.69L121.96-3.7 118.71-6.95 118.71-7.94 121.96-4.69ZM121.96-6.66L121.96-5.67 118.71-8.91 118.71-9.91 121.96-6.66ZM121.96-7.63L118.71-10.88 118.71-11.88 121.96-8.63 121.96-7.63ZM121.96-10.6L121.96-9.6 118.71-12.82 118.71-13.84 121.96-10.6ZM121.96-11.57L118.71-14.82 118.71-15.79 121.96-12.56 121.96-11.57ZM121.96-14.53L121.96-13.53 118.71-16.78 118.71-17.75 121.96-14.53ZM121.96-15.5L118.71-18.73 118.71-19.75 121.96-16.5 121.96-15.5ZM121.96-18.47L121.96-17.47 118.71-20.72 118.71-21.69 121.96-18.47ZM121.96-19.44L118.71-22.66 118.71-23.66 121.96-20.43 121.96-19.44ZM121.96-22.4L121.96-21.4 118.71-24.63 118.71-25.62 121.96-22.4ZM121.96-23.37L118.71-26.6 118.71-27.59 121.96-24.37 121.96-23.37ZM121.96-26.34L121.96-25.34 118.71-28.56 118.71-29.56 121.96-26.34ZM121.96-27.31L118.71-30.53 118.71-31.53 121.96-28.3 121.96-27.31ZM121.96-30.25L121.96-29.27 118.71-32.5 118.71-33.49 121.96-30.25ZM121.96-31.22L118.71-34.47 118.71-35.46 121.96-32.24 121.96-31.22ZM114.82 0L114.82-35.67 117.97-35.67 117.97 0 114.82 0ZM136.84 4.2L133.62 0.97Q134 0.9 134.4 0.76L134.4 0.76 137.63 4.01Q137.22 4.15 136.84 4.2L136.84 4.2ZM132.74 1.07L132.74 1.07 135.97 4.29Q135.75 4.31 135.66 4.31L135.66 4.31Q135.4 4.31 134.92 4.27L134.92 4.27 131.7 1.02Q132.17 1.07 132.53 1.07L132.53 1.07Q132.58 1.07 132.74 1.07ZM130.44 0.73L130.44 0.73 133.67 3.96Q132.41 3.53 131.51 2.63L131.51 2.63 128.31-0.57Q129.19 0.31 130.44 0.73ZM138.31 3.72L138.31 3.72 135.09 0.47Q135.49 0.28 135.73 0.12L135.73 0.12 138.95 3.34Q138.72 3.51 138.31 3.72ZM139.5 2.94L136.27-0.31Q136.51-0.52 136.77-0.81L136.77-0.81 140 2.44Q139.78 2.7 139.5 2.94L139.5 2.94ZM132.98-3.6L131.25-5.33 131.25-6.31 133.34-4.22Q133.29-3.89 132.98-3.6L132.98-3.6ZM131.25-4.36L131.25-4.36 132.29-3.29Q131.3-3.34 131.25-4.36ZM140.42 1.87L140.42 1.87 137.18-1.35Q137.36-1.64 137.55-1.99L137.55-1.99 140.78 1.26Q140.66 1.52 140.42 1.87ZM133.34-6.19L133.34-5.19 131.25-7.28 131.25-8.3 133.34-6.19ZM138.03-3.46L141.25-0.24Q141.18 0.14 141.06 0.55L141.06 0.55 137.82-2.68Q137.96-3.11 138.03-3.46L138.03-3.46ZM141.37-1.11L141.37-1.11 138.12-4.34Q138.15-4.65 138.15-4.81L138.15-4.81 138.15-5.33 141.37-2.09 141.37-1.56Q141.37-1.4 141.37-1.11ZM131.25-10.24L133.34-8.15 133.34-7.16 131.25-9.24 131.25-10.24ZM133.34-10.12L133.34-9.13 131.25-11.21 131.25-12.21 133.34-10.12ZM141.37-4.05L141.37-3.06 138.15-6.31 138.15-7.28 141.37-4.05ZM133.34-12.09L133.34-11.09 131.25-13.18 131.25-14.17 133.34-12.09ZM141.37-5.03L138.15-8.27 138.15-9.24 141.37-6.02 141.37-5.03ZM133.34-13.06L131.25-15.15 131.25-16.14 133.34-14.06 133.34-13.06ZM141.37-7.99L141.37-6.99 138.15-10.22 138.15-11.21 141.37-7.99ZM133.34-16.02L133.34-15.03 131.25-17.11 131.25-18.11 133.34-16.02ZM141.37-8.96L138.15-12.18 138.15-13.18 141.37-9.96 141.37-8.96ZM133.34-17L131.25-19.08 131.25-20.08 133.34-17.99 133.34-17ZM141.37-11.92L141.37-10.93 138.15-14.15 138.15-15.15 141.37-11.92ZM133.34-19.96L133.34-18.96 131.25-21.05 131.25-22.04 133.34-19.96ZM141.37-12.89L138.15-16.12 138.15-17.11 141.37-13.89 141.37-12.89ZM133.34-20.93L131.25-23.02 131.25-24.01 133.34-21.93 133.34-20.93ZM141.37-15.86L141.37-14.86 138.15-18.09 138.15-19.08 141.37-15.86ZM133.34-23.89L133.34-22.9 131.25-24.98 131.25-25.98 133.34-23.89ZM141.37-16.83L138.15-20.05 138.15-21.05 141.37-17.83 141.37-16.83ZM133.34-24.87L131.25-26.95 131.25-27.95 133.34-25.86 133.34-24.87ZM141.37-19.77L141.37-18.8 138.15-22.02 138.15-23.02 141.37-19.77ZM133.34-27.83L133.34-26.83 131.25-28.92 131.25-29.91 133.34-27.83ZM141.37-20.74L138.15-23.99 138.15-24.98 141.37-21.76 141.37-20.74ZM133.34-28.8L131.25-30.89 131.25-31.08Q131.25-31.46 131.37-31.74L131.37-31.74 133.34-29.8 133.34-28.8ZM141.37-23.73L141.37-22.71 138.15-25.96 138.15-26.95 141.37-23.73ZM133.34-31.17L133.34-30.77 131.87-32.24Q132.13-32.33 132.32-32.33L132.32-32.33Q133.34-32.33 133.34-31.17L133.34-31.17ZM141.37-24.68L138.15-27.92 138.15-28.92 141.37-25.67 141.37-24.68ZM141.37-27.64L141.37-26.64 138.15-29.89 138.15-30.89 141.37-27.64ZM141.32-28.66L138.1-31.91Q137.98-32.66 137.72-33.28L137.72-33.28 140.94-30.03Q141.2-29.44 141.32-28.66L141.32-28.66ZM137.41-31.17L137.41-31.17 137.41-4.81Q137.41-2.47 136.01-1.07L136.01-1.07Q134.62 0.33 132.48 0.33L132.48 0.33Q130.23 0.33 128.78-1.11L128.78-1.11Q127.31-2.58 127.31-5.1L127.31-5.1 127.31-30.82Q127.31-33.75 128.59-34.92L128.59-34.92Q129.78-35.98 132.27-35.98L132.27-35.98Q134.57-35.98 136.01-34.54L136.01-34.54Q137.41-33.14 137.41-31.17ZM134.07-4.27L134.07-4.27 134.07-31.17Q134.07-32 133.5-32.57L133.5-32.57Q133-33.07 132.32-33.07L132.32-33.07Q130.51-33.07 130.51-31.08L130.51-31.08 130.51-4.46Q130.51-3.63 131.04-3.11L131.04-3.11Q131.56-2.58 132.32-2.58L132.32-2.58Q132.98-2.58 133.52-3.13L133.52-3.13Q134.07-3.65 134.07-4.27ZM151.71 3.96L148.48 0.73 149.48 0.73 152.7 3.96 151.71 3.96ZM146.51 0.73L147.51 0.73 150.73 3.96 149.76 3.96 146.51 0.73ZM156.64 3.96L155.64 3.96 152.42 0.73 153.41 0.73 156.64 3.96ZM150.57-0.14L153.79 3.08 153.79 3.96 153.67 3.96 150.45 0.73 150.57 0.73 150.57-0.14ZM152.01 0.31L150.57-1.11 150.57-2.11 151.9-0.78 152.01 0.31ZM158.53-34.44L158.53-35.44 161.76-32.21 161.76-31.19 158.53-34.44ZM157.61 3.96L154.38 0.73 155.38 0.73 158.6 3.96 157.61 3.96ZM151.68-2.96L151.8-1.85 150.57-3.08 150.57-4.08 151.68-2.96ZM160.57 3.96L159.58 3.96 156.35 0.73 157.32 0.73 160.57 3.96ZM151.59-4.03L150.57-5.05 150.57-6.04 151.47-5.14 151.59-4.03ZM161.54 3.96L158.3 0.73 158.53 0.73 158.53-0.05 161.76 3.18 161.76 3.96 161.54 3.96ZM151.26-7.32L151.37-6.21 150.57-7.02 150.57-8.01 151.26-7.32ZM158.53-1.02L158.53-2.01 161.76 1.23 161.76 2.23 158.53-1.02ZM161.76 0.26L158.53-2.99 158.53-3.98 161.76-0.73 161.76 0.26ZM150.57-9.98L151.04-9.48 151.16-8.39 150.57-8.98 150.57-9.98ZM150.83-11.66L150.95-10.57 150.57-10.93 150.57-11.95 150.83-11.66ZM161.76-1.71L158.53-4.95 158.53-5.95 161.76-2.7 161.76-1.71ZM150.62-13.84L150.73-12.75 150.57-12.89 150.57-13.91 150.62-13.84ZM161.76-4.67L161.76-3.67 158.53-6.92 158.53-7.92 161.76-4.67ZM161.76-5.64L158.53-8.89 158.53-9.88 161.76-6.64 161.76-5.64ZM161.76-8.6L161.76-7.61 158.53-10.86 158.53-11.85 161.76-8.6ZM161.76-9.58L158.53-12.82 158.53-13.8 161.76-10.57 161.76-9.58ZM161.76-12.54L161.76-11.54 158.53-14.77 158.53-15.79 161.76-12.54ZM161.76-13.51L158.53-16.76 158.53-17.73 161.76-14.51 161.76-13.51ZM161.76-16.47L161.76-15.48 158.53-18.7 158.53-19.7 161.76-16.47ZM154-24.23L154-23.23 153.91-23.32 153.79-24.44 154-24.23ZM161.76-17.45L158.53-20.67 158.53-21.67 161.76-18.44 161.76-17.45ZM154-25.2L153.7-25.51 153.58-26.62 154-26.19 154-25.2ZM161.76-20.41L161.76-19.41 158.53-22.64 158.53-23.63 161.76-20.41ZM154-28.16L154-27.16 153.48-27.69 153.36-28.8 154-28.16ZM161.76-21.38L158.53-24.6 158.53-25.6 161.76-22.38 161.76-21.38ZM154-29.13L153.27-29.87 153.15-30.98 154-30.13 154-29.13ZM161.76-24.34L161.76-23.35 158.53-26.57 158.53-27.57 161.76-24.34ZM154-32.1L154-31.1 153.06-32.05 152.96-33.14 154-32.1ZM161.76-25.32L158.53-28.54 158.53-29.54 161.76-26.29 161.76-25.32ZM154-33.07L152.84-34.23 152.75-35.32 154-34.04 154-33.07ZM161.76-28.28L161.76-27.26 158.53-30.51 158.53-31.5 161.76-28.28ZM154-35.03L154-35.01 152.63-36.41 152.63-36.41 154-35.03ZM161.76-29.25L158.53-32.47 158.53-33.47 161.76-30.22 161.76-29.25ZM154.74-35.67L157.8-35.67 157.8 0 152.7 0 149.83-29.42 149.83 0 146.73 0 146.73-35.67 151.97-35.67 154.74-7.23 154.74-35.67ZM171.59 3.96L170.6 3.96 167.35 0.73 168.35 0.73 171.59 3.96ZM174.53 3.96L171.29 0.73 171.43 0.73 171.43-0.12 174.67 3.13 174.67 3.96 174.53 3.96ZM169.32 0.73L170.31 0.73 173.56 3.96 172.54 3.96 169.32 0.73ZM174.67-0.81L174.67 0.19 171.43-3.06 171.43-4.05 174.67-0.81ZM171.43-2.09L174.67 1.14 174.67 2.16 171.43-1.09 171.43-2.09ZM174.67-1.78L171.43-5.03 171.43-6.02 174.67-2.77 174.67-1.78ZM171.43-6.99L171.43-7.99 174.67-4.74 174.67-3.75 171.43-6.99ZM174.67-5.71L171.43-8.96 171.43-9.96 174.67-6.71 174.67-5.71ZM174.67-7.68L171.43-10.93 171.43-11.92 174.67-8.68 174.67-7.68ZM174.67-10.64L174.67-9.65 171.43-12.89 171.43-13.89 174.67-10.64ZM174.67-11.61L171.43-14.86 171.43-15.53 171.74-15.53 174.98-12.3 174.67-12.3 174.67-11.61ZM176.95-12.3L175.95-12.3 172.71-15.53 173.7-15.53 176.95-12.3ZM177.92-12.3L174.67-15.53 175.65-15.53 175.65-15.55 178.89-12.33 178.89-12.3 177.92-12.3ZM178.89-14.29L178.89-13.3 175.65-16.52 175.65-17.52 178.89-14.29ZM178.89-15.27L175.65-18.49 175.65-19.48 178.89-16.26 178.89-15.27ZM173.28-19.91L172.28-19.91 171.43-20.74 171.43-21.76 173.28-19.91ZM174.25-19.91L171.43-22.71 171.43-23.7 174.67-20.48 174.67-19.91 174.25-19.91ZM174.67-22.45L174.67-21.45 171.43-24.68 171.43-25.67 174.67-22.45ZM174.67-23.42L171.43-26.64 171.43-27.64 174.67-24.42 174.67-23.42ZM174.67-26.36L174.67-25.39 171.43-28.61 171.43-29.61 174.67-26.36ZM174.67-27.33L171.43-30.58 171.43-31.57 174.67-28.35 174.67-27.33ZM176.17-28.8L175.17-28.8 171.93-32.05 172.92-32.05 176.17-28.8ZM177.14-28.8L173.89-32.05 174.89-32.05 178.14-28.8 177.14-28.8ZM178.89-30.01L178.89-29.01 175.65-32.26 175.65-33.26 178.89-30.01ZM178.89-30.98L175.65-34.23 175.65-35.2 178.89-31.98 178.89-30.98ZM178.89-33.16L178.89-32.95 175.65-36.2 175.65-36.41 178.89-33.16ZM167.35 0L167.35-35.67 174.91-35.67 174.91-32.76 170.69-32.76 170.69-19.18 174.91-19.18 174.91-16.26 170.69-16.26 170.69 0 167.35 0ZM188.42 3.96L187.43 3.96 184.18 0.73 185.18 0.73 188.42 3.96ZM191.36 3.96L188.12 0.73 189.11 0.73 192.33 3.96 191.36 3.96ZM186.15 0.73L187.14 0.73 190.39 3.96 189.37 3.96 186.15 0.73ZM195.72 3.96L195.27 3.96 192.05 0.73 192.48 0.73 192.48 0.19 195.72 3.41 195.72 3.96ZM191.08 0.73L194.3 3.96 193.31 3.96 190.08 0.73 191.08 0.73ZM195.72 2.44L192.48-0.81 192.48-1.8 195.72 1.45 195.72 2.44ZM195.72-0.4L195.72 0.47 192.48-2.77 192.48-3.65 195.72-0.4ZM189.63-3.65L188.16-5.12 188.16-6.12 190.63-3.65 189.63-3.65ZM188.16-3.65L188.16-4.15 188.66-3.65 188.16-3.65ZM188.16-7.09L188.16-8.08 191.39-4.84 191.39-3.84 188.16-7.09ZM191.39-5.81L188.16-9.05 188.16-10.05 191.39-6.8 191.39-5.81ZM191.39-7.77L188.16-11.02 188.16-12.02 191.39-8.77 191.39-7.77ZM191.39-10.74L191.39-9.74 188.16-12.99 188.16-13.99 191.39-10.74ZM191.39-11.71L188.16-14.96 188.16-15.95 191.39-12.71 191.39-11.71ZM191.39-14.67L191.39-13.68 188.16-16.92 188.16-17.92 191.39-14.67ZM191.39-15.64L188.16-18.89 188.16-19.86 191.39-16.64 191.39-15.64ZM191.39-18.61L191.39-17.61 188.16-20.84 188.16-21.86 191.39-18.61ZM191.39-19.58L188.16-22.83 188.16-23.8 191.39-20.58 191.39-19.58ZM191.39-22.54L191.39-21.55 188.16-24.77 188.16-25.77 191.39-22.54ZM191.39-23.51L188.16-26.74 188.16-27.73 191.39-24.51 191.39-23.51ZM191.39-26.48L191.39-25.48 188.16-28.71 188.16-29.7 191.39-26.48ZM191.39-27.45L188.16-30.67 188.16-31.67 191.39-28.44 191.39-27.45ZM191.39-30.41L191.39-29.42 188.16-32.64 188.16-33.64 191.39-30.41ZM191.39-31.38L188.16-34.61 188.16-35.6 191.39-32.38 191.39-31.38ZM184.18 0L184.18-35.67 187.43-35.67 187.43-2.92 191.74-2.92 191.74 0 184.18 0ZM208.67 4.2L205.44 0.97Q205.82 0.9 206.22 0.76L206.22 0.76 209.45 4.01Q209.05 4.15 208.67 4.2L208.67 4.2ZM204.57 1.07L204.57 1.07 207.79 4.29Q207.58 4.31 207.48 4.31L207.48 4.31Q207.22 4.31 206.75 4.27L206.75 4.27 203.52 1.02Q204 1.07 204.35 1.07L204.35 1.07Q204.4 1.07 204.57 1.07ZM202.27 0.73L202.27 0.73 205.49 3.96Q204.23 3.53 203.33 2.63L203.33 2.63 200.13-0.57Q201.01 0.31 202.27 0.73ZM210.14 3.72L210.14 3.72 206.91 0.47Q207.32 0.28 207.55 0.12L207.55 0.12 210.78 3.34Q210.54 3.51 210.14 3.72ZM211.32 2.94L208.1-0.31Q208.33-0.52 208.6-0.81L208.6-0.81 211.82 2.44Q211.61 2.7 211.32 2.94L211.32 2.94ZM204.8-3.6L203.07-5.33 203.07-6.31 205.16-4.22Q205.11-3.89 204.8-3.6L204.8-3.6ZM203.07-4.36L203.07-4.36 204.12-3.29Q203.12-3.34 203.07-4.36ZM212.25 1.87L212.25 1.87 209-1.35Q209.19-1.64 209.38-1.99L209.38-1.99 212.6 1.26Q212.48 1.52 212.25 1.87ZM205.16-6.19L205.16-5.19 203.07-7.28 203.07-8.3 205.16-6.19ZM209.85-3.46L213.08-0.24Q213 0.14 212.89 0.55L212.89 0.55 209.64-2.68Q209.78-3.11 209.85-3.46L209.85-3.46ZM213.19-1.11L213.19-1.11 209.95-4.34Q209.97-4.65 209.97-4.81L209.97-4.81 209.97-5.33 213.19-2.09 213.19-1.56Q213.19-1.4 213.19-1.11ZM203.07-10.24L205.16-8.15 205.16-7.16 203.07-9.24 203.07-10.24ZM205.16-10.12L205.16-9.13 203.07-11.21 203.07-12.21 205.16-10.12ZM213.19-4.05L213.19-3.06 209.97-6.31 209.97-7.28 213.19-4.05ZM205.16-12.09L205.16-11.09 203.07-13.18 203.07-14.17 205.16-12.09ZM213.19-5.03L209.97-8.27 209.97-9.24 213.19-6.02 213.19-5.03ZM205.16-13.06L203.07-15.15 203.07-16.14 205.16-14.06 205.16-13.06ZM213.19-7.99L213.19-6.99 209.97-10.22 209.97-11.21 213.19-7.99ZM205.16-16.02L205.16-15.03 203.07-17.11 203.07-18.11 205.16-16.02ZM213.19-8.96L209.97-12.18 209.97-13.18 213.19-9.96 213.19-8.96ZM205.16-17L203.07-19.08 203.07-20.08 205.16-17.99 205.16-17ZM213.19-11.92L213.19-10.93 209.97-14.15 209.97-15.15 213.19-11.92ZM205.16-19.96L205.16-18.96 203.07-21.05 203.07-22.04 205.16-19.96ZM213.19-12.89L209.97-16.12 209.97-17.11 213.19-13.89 213.19-12.89ZM205.16-20.93L203.07-23.02 203.07-24.01 205.16-21.93 205.16-20.93ZM213.19-15.86L213.19-14.86 209.97-18.09 209.97-19.08 213.19-15.86ZM205.16-23.89L205.16-22.9 203.07-24.98 203.07-25.98 205.16-23.89ZM213.19-16.83L209.97-20.05 209.97-21.05 213.19-17.83 213.19-16.83ZM205.16-24.87L203.07-26.95 203.07-27.95 205.16-25.86 205.16-24.87ZM213.19-19.77L213.19-18.8 209.97-22.02 209.97-23.02 213.19-19.77ZM205.16-27.83L205.16-26.83 203.07-28.92 203.07-29.91 205.16-27.83ZM213.19-20.74L209.97-23.99 209.97-24.98 213.19-21.76 213.19-20.74ZM205.16-28.8L203.07-30.89 203.07-31.08Q203.07-31.46 203.19-31.74L203.19-31.74 205.16-29.8 205.16-28.8ZM213.19-23.73L213.19-22.71 209.97-25.96 209.97-26.95 213.19-23.73ZM205.16-31.17L205.16-30.77 203.69-32.24Q203.95-32.33 204.14-32.33L204.14-32.33Q205.16-32.33 205.16-31.17L205.16-31.17ZM213.19-24.68L209.97-27.92 209.97-28.92 213.19-25.67 213.19-24.68ZM213.19-27.64L213.19-26.64 209.97-29.89 209.97-30.89 213.19-27.64ZM213.15-28.66L209.92-31.91Q209.8-32.66 209.54-33.28L209.54-33.28 212.77-30.03Q213.03-29.44 213.15-28.66L213.15-28.66ZM209.24-31.17L209.24-31.17 209.24-4.81Q209.24-2.47 207.84-1.07L207.84-1.07Q206.44 0.33 204.3 0.33L204.3 0.33Q202.05 0.33 200.61-1.11L200.61-1.11Q199.14-2.58 199.14-5.1L199.14-5.1 199.14-30.82Q199.14-33.75 200.42-34.92L200.42-34.92Q201.6-35.98 204.09-35.98L204.09-35.98Q206.39-35.98 207.84-34.54L207.84-34.54Q209.24-33.14 209.24-31.17ZM205.89-4.27L205.89-4.27 205.89-31.17Q205.89-32 205.32-32.57L205.32-32.57Q204.83-33.07 204.14-33.07L204.14-33.07Q202.34-33.07 202.34-31.08L202.34-31.08 202.34-4.46Q202.34-3.63 202.86-3.11L202.86-3.11Q203.38-2.58 204.14-2.58L204.14-2.58Q204.8-2.58 205.35-3.13L205.35-3.13Q205.89-3.65 205.89-4.27ZM232.65-13.72L232.63-13.72 232.56-14.79 232.73-14.65 232.65-13.72ZM232.84-16.5L232.77-15.55 232.49-15.83 232.42-16.92 232.84-16.5ZM232.92-17.4L232.35-17.97 232.28-19.03 232.96-18.32 232.92-17.4ZM233.11-20.15L233.03-19.25 232.2-20.08 232.11-21.14 233.11-20.15ZM233.18-21.07L232.04-22.19 231.97-23.25 233.22-22 233.18-21.07ZM233.37-23.85L233.29-22.9 231.9-24.3 231.83-25.39 233.37-23.85ZM233.44-24.75L231.75-26.43 231.68-27.5 233.48-25.67 233.44-24.75ZM233.63-27.52L233.56-26.57 231.59-28.54 231.52-29.61 233.63-27.52ZM233.67-28.42L231.45-30.65 231.37-31.72 233.75-29.35 233.67-28.42ZM233.89-31.17L233.82-30.25 231.3-32.76 231.23-33.83 233.89-31.17ZM233.93-32.1L231.16-34.89 231.07-35.96 234.01-33.02 233.93-32.1ZM225.78 3.96L224.79 3.96 221.56 0.73 222.56 0.73 225.78 3.96ZM220.59 0.73L223.81 3.96 222.91 3.96 219.69 0.73 220.59 0.73ZM228.72 3.96L225.5 0.73 226.49 0.73 229.72 3.96 228.72 3.96ZM223.53 0.73L224.52 0.73 227.75 3.96 226.75 3.96 223.53 0.73ZM233.65 3.96L232.65 3.96 229.43 0.73 230.4 0.73 233.65 3.96ZM226.97-0.76L230.21 2.49 230.14 3.41 226.89 0.19 226.97-0.76ZM229.03 0.33L227.04-1.66 227.08-2.58 228.96-0.73 229.03 0.33ZM241.88-30.08L238.65-33.3 238.72-34.23 241.95-31 241.88-30.08ZM238.51-31.46L238.58-32.4 241.83-29.16 241.76-28.23 238.51-31.46ZM234.62 3.96L231.37 0.73 232.39 0.73 235.62 3.96 234.62 3.96ZM228.81-2.82L228.89-1.75 227.16-3.51 227.23-4.43 228.81-2.82ZM242.07-32.83L242.02-31.91 238.77-35.13 238.84-36.08 242.07-32.83ZM237.59 3.96L236.59 3.96 233.37 0.73 234.34 0.73 237.59 3.96ZM228.77-3.86L227.27-5.36 227.35-6.26 228.7-4.93 228.77-3.86ZM238.56 3.96L235.31 0.73 236.23 0.73 236.23 0.66 239.48 3.89 239.48 3.96 238.56 3.96ZM228.55-7.04L228.63-5.95 227.39-7.18 227.46-8.11 228.55-7.04ZM236.31-0.24L236.38-1.16 239.6 2.06 239.55 2.99 236.31-0.24ZM239.67 1.16L236.45-2.09 236.49-3.01 239.74 0.24 239.67 1.16ZM227.58-9.96L228.41-9.13 228.48-8.06 227.53-9.03 227.58-9.96ZM228.29-11.24L228.36-10.17 227.65-10.86 227.72-11.8 228.29-11.24ZM223.43-16.07L223.39-15.15 223.15-15.36 223.08-16.43 223.43-16.07ZM223.22-14.32L223.32-14.22 223.27-13.65 223.22-14.32ZM239.81-0.69L236.57-3.91 236.64-4.84 239.88-1.61 239.81-0.69ZM228.15-13.32L228.22-12.25 227.77-12.71 227.84-13.63 228.15-13.32ZM223.51-16.97L223.01-17.47 222.94-18.54 223.58-17.9 223.51-16.97ZM240-3.44L239.93-2.51 236.71-5.76 236.76-6.68 240-3.44ZM228.08-14.36L227.91-14.55 227.96-15.48 228.01-15.43 228.08-14.36ZM223.69-19.75L223.65-18.82 222.87-19.6 222.77-20.67 223.69-19.75ZM240.07-4.36L236.83-7.59 236.9-8.51 240.12-5.29 240.07-4.36ZM223.77-20.65L222.7-21.71 222.63-22.78 223.84-21.57 223.77-20.65ZM240.26-7.11L240.19-6.19 236.97-9.43 237.02-10.36 240.26-7.11ZM223.96-23.42L223.91-22.5 222.56-23.82 222.49-24.89 223.96-23.42ZM240.33-8.01L237.09-11.26 237.16-12.18 240.38-8.96 240.33-8.01ZM224.03-24.32L222.41-25.93 222.34-27 224.1-25.24 224.03-24.32ZM240.52-10.79L240.45-9.86 237.23-13.08 237.28-14.03 240.52-10.79ZM224.22-27.09L224.17-26.15 222.27-28.04 222.18-29.13 224.22-27.09ZM240.6-11.71L237.35-14.93 237.42-15.86 240.64-12.63 240.6-11.71ZM224.29-27.99L222.11-30.18 222.04-31.24 224.36-28.92 224.29-27.99ZM240.79-14.46L240.71-13.53 237.47-16.76 237.54-17.71 240.79-14.46ZM224.48-30.77L224.41-29.82 221.96-32.28 221.89-33.35 224.48-30.77ZM240.83-15.36L237.61-18.61 237.68-19.53 240.9-16.31 240.83-15.36ZM224.55-31.67L221.82-34.39 221.75-35.46 224.62-32.59 224.55-31.67ZM241.05-18.13L240.97-17.21 237.73-20.43 237.8-21.38 241.05-18.13ZM241.09-19.03L237.87-22.28 237.94-23.21 241.16-19.98 241.09-19.03ZM241.31-21.81L241.24-20.88 237.99-24.11 238.06-25.06 241.31-21.81ZM241.35-22.71L238.13-25.96 238.2-26.88 241.43-23.66 241.35-22.71ZM241.57-25.48L241.5-24.56 238.25-27.78 238.32-28.73 241.57-25.48ZM241.61-26.38L238.39-29.63 238.44-30.55 241.69-27.31 241.61-26.38ZM228.13-25.01L227.89-25.01 226.18 0 220.35 0 217.84-35.67 220.99-35.67 223.03-6.76 223.53-6.76 225.57-35.67 230.36-35.67 232.39-6.76 232.89-6.76 234.93-35.67 238.08-35.67 235.57 0 229.74 0 228.13-25.01Z" transform="translate(-2.4700000286102295, 36.40999984741211)"></path></g> <!----> <!----> <!----> <!----> <!----> <!----> <!----></g></g> <!----></g></g></g><mask id="88510569-cd48-4101-adb5-c079e67df52c"><g fill="#FFFFFF"><g fill="#FFFFFF"><rect fill-opacity="1" stroke-width="2px" x="0" y="0" width="150" height="150" class="image-rect" fill="#FFFFFF"></rect> <svg x="0" y="0" width="150" height="150" filtersec="colorsb4559529196" class="image-svg-svg primary" style="overflow: visible;" fill="#FFFFFF"><svg xmlns="http://www.w3.org/2000/svg" xmlns:xlink="http://www.w3.org/1999/xlink" version="1.1" x="0px" y="0px" viewBox="5 5 90 90" style="enable-background:new 0 0 100 100;" xml:space="preserve" fill="#FFFFFF"><path d="M62.058,5H37.942L17.058,17.058L5,37.942v24.115l12.058,20.885L37.942,95h24.115l20.885-12.058L95,62.058V37.942  L82.942,17.058L62.058,5z M89,60.45l-10.45,18.1L60.45,89h-20.9l-18.1-10.45L11,60.45v-20.9l10.45-18.1L39.55,11h20.9l18.1,10.45  L89,39.55V60.45z" fill="#FFFFFF"></path><path d="M58.842,17H41.158l-15.316,8.842L17,41.158v17.685l8.842,15.315L41.158,83h17.684l15.316-8.842L83,58.842V41.158  l-8.842-15.315L58.842,17z M77,57.235l-7.234,12.53L57.234,77H42.766l-12.531-7.235L23,57.235v-14.47l7.234-12.53L42.766,23h14.469  l12.531,7.235L77,42.765V57.235z" fill="#FFFFFF"></path></svg></svg> </g></g> <g transform="translate(-44.80000305175781,54.63999938964844)"><rect fill="black" fill-opacity="1" x="-3.5" y="-3.5" width="246.60000610351562" height="47.720001220703125"></rect><rect fill="black" fill-opacity="1" x="-3.5" y="-3.5"></rect></g><g transform="translate(-44.80000305175781,54.63999938964844)" fill="black"><g data-gra="path-name" fill-rule="" class="tp-name"><g transform="scale(1)"><g><path d="M7.7 3.96L4.48 0.73 5.48 0.73 8.7 3.96 7.7 3.96ZM2.51 0.73L3.51 0.73 6.73 3.96 5.76 3.96 2.51 0.73ZM9.65 0.97L9.55 1.87 6.33-1.35 6.4-2.28 9.65 0.97ZM6.23-0.47L9.48 2.77 9.41 3.7 6.16 0.45 6.23-0.47ZM9.72 0.07L6.47-3.15 6.57-4.08 9.79-0.85 9.72 0.07ZM16.57 3.96L15.57 3.96 12.35 0.73 13.32 0.73 16.57 3.96ZM11.38 0.73L14.6 3.96 13.63 3.96 10.38 0.73 11.38 0.73ZM9.96-2.65L9.88-1.73 6.64-4.98 6.73-5.88 9.96-2.65ZM17.54 3.96L14.29 0.73 14.86 0.73 14.82 0.24 18.06 3.48 18.09 3.96 17.54 3.96ZM10.03-3.53L6.8-6.78 6.87-7.7 9.98-4.6 10.05-3.67 10.03-3.53ZM14.72-0.81L14.65-1.9 17.87 1.35 17.97 2.42 14.72-0.81ZM17.8 0.28L14.55-2.94 14.46-4.03 17.71-0.81 17.8 0.28ZM7.4-8.15L8.37-8.15 9.81-6.71 9.88-5.64 7.4-8.15ZM9.74-7.77L9.34-8.15 9.69-8.15 9.74-7.77ZM17.61-1.85L14.39-5.1 14.29-6.16 17.54-2.94 17.61-1.85ZM17.35-5.07L17.45-4.01 14.2-7.23 14.13-8.32 17.35-5.07ZM9.05-12.37L7.44-14.01 7.51-14.91 9.29-13.13 9.34-12.37 9.05-12.37ZM7.3-12.37L7.35-13.11 8.08-12.37 7.3-12.37ZM17.28-6.14L14.03-9.36 13.94-10.45 17.19-7.23 17.28-6.14ZM9.13-15.27L9.22-14.2 7.59-15.81 7.68-16.74 9.13-15.27ZM17-9.36L17.09-8.27 13.87-11.52 13.77-12.59 17-9.36ZM9.05-16.33L7.75-17.61 7.82-18.54 8.96-17.4 9.05-16.33ZM16.92-10.43L13.68-13.65 13.61-14.74 16.83-11.5 16.92-10.43ZM8.79-19.53L8.89-18.47 7.92-19.44 7.99-20.34 8.79-19.53ZM16.66-13.65L16.76-12.56 13.51-15.79 13.42-16.88 16.66-13.65ZM8.72-20.6L8.06-21.24 8.15-22.16 8.63-21.67 8.72-20.6ZM16.57-14.7L13.32-17.94 13.25-19.01 16.47-15.79 16.57-14.7ZM8.46-23.8L8.56-22.73 8.23-23.04 8.3-23.96 8.46-23.8ZM16.31-17.92L16.4-16.83 13.16-20.08 13.06-21.17 16.31-17.92ZM16.21-18.99L12.99-22.21 12.89-23.3 16.14-20.08 16.21-18.99ZM15.95-22.21L16.05-21.12 12.8-24.37 12.73-25.43 15.95-22.21ZM15.88-23.25L12.63-26.5 12.54-27.59 15.79-24.34 15.88-23.25ZM15.6-26.5L15.69-25.41 12.47-28.63 12.37-29.72 15.6-26.5ZM15.53-27.54L12.28-30.79 12.21-31.86 15.43-28.63 15.53-27.54ZM15.27-30.77L15.34-29.68 12.11-32.92 12.02-34.02 15.27-30.77ZM15.17-31.83L11.92-35.06 11.85-36.15 15.08-32.9 15.17-31.83ZM11.05 0L10.38-8.89 6.26-8.89 5.48 0 2.47 0 5.71-35.67 11.16-35.67 14.06 0 11.05 0ZM8.68-30.44L8.15-30.44 6.49-11.66 10.15-11.66 8.68-30.44ZM24.56-30.25L24.56-29.25 22.04-31.74 23.06-31.74 24.56-30.25ZM21.1-31.74L24.32-28.52 23.73-28.52 20.48-31.74 21.1-31.74ZM24.56-31.22L24.04-31.74 24.56-31.74 24.56-31.22ZM31.24 3.96L30.25 3.96 27.02 0.73 27.99 0.73 31.24 3.96ZM26.05 0.73L29.27 3.96 28.28 3.96 25.06 0.73 26.05 0.73ZM33.26-34.32L33.26-35.32 36.48-32.07 36.48-31.08 33.26-34.32ZM36.48-33.07L33.26-36.29 33.26-36.36 36.48-33.11 36.48-33.07ZM32.21 3.96L28.97 0.73 29.18 0.73 29.18-0.07 32.4 3.15 32.4 3.96 32.21 3.96ZM32.4 1.21L32.4 2.18 29.18-1.04 29.18-2.04 32.4 1.21ZM32.4 0.24L29.18-3.01 29.18-4.01 32.4-0.76 32.4 0.24ZM29.18-4.98L29.18-5.97 32.4-2.73 32.4-1.73 29.18-4.98ZM32.4-3.7L29.18-6.95 29.18-7.94 32.4-4.69 32.4-3.7ZM32.4-5.67L29.18-8.91 29.18-9.91 32.4-6.66 32.4-5.67ZM32.4-8.63L32.4-7.63 29.18-10.88 29.18-11.88 32.4-8.63ZM32.4-9.6L29.18-12.82 29.18-13.84 32.4-10.6 32.4-9.6ZM32.4-12.56L32.4-11.57 29.18-14.82 29.18-15.79 32.4-12.56ZM32.4-13.53L29.18-16.78 29.18-17.75 32.4-14.53 32.4-13.53ZM32.4-16.5L32.4-15.5 29.18-18.73 29.18-19.75 32.4-16.5ZM32.4-17.47L29.18-20.72 29.18-21.69 32.4-18.47 32.4-17.47ZM32.4-20.43L32.4-19.44 29.18-22.66 29.18-23.66 32.4-20.43ZM32.4-21.4L29.18-24.63 29.18-25.62 32.4-22.4 32.4-21.4ZM32.4-24.37L32.4-23.37 29.18-26.6 29.18-27.59 32.4-24.37ZM32.4-25.34L29.18-28.56 29.18-29.56 32.4-26.34 32.4-25.34ZM32.4-28.3L32.4-27.31 29.18-30.53 29.18-31.53 32.4-28.3ZM33.16-28.52L29.91-31.74 30.91-31.74 34.16-28.52 33.16-28.52ZM36.12-28.52L35.13-28.52 31.88-31.74 32.88-31.74 36.12-28.52ZM36.48-29.13L33.26-32.36 33.26-33.35 36.48-30.1 36.48-29.13ZM21.22-32.47L21.22-35.63 32.52-35.63 32.52-32.47 28.44-32.47 28.44 0 25.29 0 25.29-32.47 21.22-32.47ZM43.09-30.25L43.09-29.25 40.58-31.74 41.6-31.74 43.09-30.25ZM39.63-31.74L42.86-28.52 42.26-28.52 39.02-31.74 39.63-31.74ZM43.09-31.22L42.57-31.74 43.09-31.74 43.09-31.22ZM49.78 3.96L48.78 3.96 45.56 0.73 46.53 0.73 49.78 3.96ZM44.59 0.73L47.81 3.96 46.82 3.96 43.59 0.73 44.59 0.73ZM51.79-34.32L51.79-35.32 55.02-32.07 55.02-31.08 51.79-34.32ZM55.02-33.07L51.79-36.29 51.79-36.36 55.02-33.11 55.02-33.07ZM50.75 3.96L47.5 0.73 47.72 0.73 47.72-0.07 50.94 3.15 50.94 3.96 50.75 3.96ZM50.94 1.21L50.94 2.18 47.72-1.04 47.72-2.04 50.94 1.21ZM50.94 0.24L47.72-3.01 47.72-4.01 50.94-0.76 50.94 0.24ZM47.72-4.98L47.72-5.97 50.94-2.73 50.94-1.73 47.72-4.98ZM50.94-3.7L47.72-6.95 47.72-7.94 50.94-4.69 50.94-3.7ZM50.94-5.67L47.72-8.91 47.72-9.91 50.94-6.66 50.94-5.67ZM50.94-8.63L50.94-7.63 47.72-10.88 47.72-11.88 50.94-8.63ZM50.94-9.6L47.72-12.82 47.72-13.84 50.94-10.6 50.94-9.6ZM50.94-12.56L50.94-11.57 47.72-14.82 47.72-15.79 50.94-12.56ZM50.94-13.53L47.72-16.78 47.72-17.75 50.94-14.53 50.94-13.53ZM50.94-16.5L50.94-15.5 47.72-18.73 47.72-19.75 50.94-16.5ZM50.94-17.47L47.72-20.72 47.72-21.69 50.94-18.47 50.94-17.47ZM50.94-20.43L50.94-19.44 47.72-22.66 47.72-23.66 50.94-20.43ZM50.94-21.4L47.72-24.63 47.72-25.62 50.94-22.4 50.94-21.4ZM50.94-24.37L50.94-23.37 47.72-26.6 47.72-27.59 50.94-24.37ZM50.94-25.34L47.72-28.56 47.72-29.56 50.94-26.34 50.94-25.34ZM50.94-28.3L50.94-27.31 47.72-30.53 47.72-31.53 50.94-28.3ZM51.7-28.52L48.45-31.74 49.45-31.74 52.69-28.52 51.7-28.52ZM54.66-28.52L53.67-28.52 50.42-31.74 51.41-31.74 54.66-28.52ZM55.02-29.13L51.79-32.36 51.79-33.35 55.02-30.1 55.02-29.13ZM39.75-32.47L39.75-35.63 51.06-35.63 51.06-32.47 46.98-32.47 46.98 0 43.83 0 43.83-32.47 39.75-32.47ZM65.02-3.65L63.27-5.38 63.27-6.4 66.02-3.65 65.02-3.65ZM63.27-3.65L63.27-4.43 64.05-3.65 63.27-3.65ZM63.27-7.37L63.27-8.34 66.51-5.12 66.51-4.12 63.27-7.37ZM66.51-6.09L63.27-9.32 63.27-10.31 66.51-7.09 66.51-6.09ZM66.51-8.06L63.27-11.28 63.27-12.28 66.51-9.05 66.51-8.06ZM66.51-11.02L66.51-10.03 63.27-13.27 63.27-14.25 66.51-11.02ZM66.51-11.99L63.27-15.22 63.27-15.79 63.72-15.79 66.94-12.54 66.51-12.54 66.51-11.99ZM68.91-12.54L67.91-12.54 64.69-15.79 65.68-15.79 68.91-12.54ZM69.88-12.54L66.66-15.79 67.44-15.79 67.44-15.98 70.69-12.75 70.69-12.54 69.88-12.54ZM70.69-14.72L70.69-13.7 67.44-16.95 67.44-17.94 70.69-14.72ZM70.69-15.69L67.44-18.92 67.44-19.91 70.69-16.66 70.69-15.69ZM62.51 3.96L59.26 0.73 60.26 0.73 63.5 3.96 62.51 3.96ZM67.41 3.96L66.44 3.96 63.19 0.73 64.19 0.73 67.41 3.96ZM62.22 0.73L65.47 3.96 64.47 3.96 61.23 0.73 62.22 0.73ZM68.39 3.96L65.16 0.73 66.16 0.73 69.38 3.96 68.39 3.96ZM70.69 3.96L70.35 3.96 67.13 0.73 67.44 0.73 67.44 0.05 70.69 3.29 70.69 3.96ZM70.69 2.32L67.44-0.92 67.44-1.92 70.69 1.33 70.69 2.32ZM70.69-0.4L70.69 0.36 67.44-2.89 67.44-3.65 70.69-0.4ZM64.95-20.15L63.95-20.15 63.27-20.81 63.27-21.83 64.95-20.15ZM65.92-20.15L63.27-22.8 63.27-23.78 66.51-20.55 66.51-20.15 65.92-20.15ZM66.51-22.52L66.51-21.52 63.27-24.75 63.27-25.74 66.51-22.52ZM66.51-23.49L63.27-26.71 63.27-27.71 66.51-24.49 66.51-23.49ZM66.51-26.45L66.51-25.46 63.27-28.68 63.27-29.68 66.51-26.45ZM66.51-27.43L63.27-30.65 63.27-31.64 66.51-28.42 66.51-27.43ZM68.08-28.8L67.08-28.8 63.86-32.05 64.85-32.05 68.08-28.8ZM69.05-28.8L65.8-32.05 66.8-32.05 70.05-28.8 69.05-28.8ZM70.69-30.15L70.69-29.13 67.44-32.38 67.44-33.38 70.69-30.15ZM70.69-31.1L67.44-34.35 67.44-35.34 70.69-32.1 70.69-31.1ZM70.69-33.16L70.69-33.07 67.44-36.31 67.44-36.41 70.69-33.16ZM59.38 0L59.38-35.67 66.7-35.67 66.7-32.76 62.53-32.76 62.53-19.41 66.7-19.41 66.7-16.5 62.53-16.5 62.53-2.92 66.7-2.92 66.7 0 59.38 0ZM81 3.96L77.77 0.73 78.77 0.73 81.99 3.96 81 3.96ZM75.81 0.73L76.8 0.73 80.02 3.96 79.05 3.96 75.81 0.73ZM85.93 3.96L84.93 3.96 81.71 0.73 82.7 0.73 85.93 3.96ZM79.86-0.14L83.08 3.08 83.08 3.96 82.96 3.96 79.74 0.73 79.86 0.73 79.86-0.14ZM81.3 0.31L79.86-1.11 79.86-2.11 81.19-0.78 81.3 0.31ZM87.82-34.44L87.82-35.44 91.05-32.21 91.05-31.19 87.82-34.44ZM86.9 3.96L83.68 0.73 84.67 0.73 87.89 3.96 86.9 3.96ZM80.97-2.96L81.09-1.85 79.86-3.08 79.86-4.08 80.97-2.96ZM89.86 3.96L88.87 3.96 85.64 0.73 86.61 0.73 89.86 3.96ZM80.88-4.03L79.86-5.05 79.86-6.04 80.76-5.14 80.88-4.03ZM90.83 3.96L87.59 0.73 87.82 0.73 87.82-0.05 91.05 3.18 91.05 3.96 90.83 3.96ZM80.55-7.32L80.66-6.21 79.86-7.02 79.86-8.01 80.55-7.32ZM87.82-1.02L87.82-2.01 91.05 1.23 91.05 2.23 87.82-1.02ZM91.05 0.26L87.82-2.99 87.82-3.98 91.05-0.73 91.05 0.26ZM79.86-9.98L80.33-9.48 80.45-8.39 79.86-8.98 79.86-9.98ZM80.12-11.66L80.24-10.57 79.86-10.93 79.86-11.95 80.12-11.66ZM91.05-1.71L87.82-4.95 87.82-5.95 91.05-2.7 91.05-1.71ZM79.91-13.84L80.02-12.75 79.86-12.89 79.86-13.91 79.91-13.84ZM91.05-4.67L91.05-3.67 87.82-6.92 87.82-7.92 91.05-4.67ZM91.05-5.64L87.82-8.89 87.82-9.88 91.05-6.64 91.05-5.64ZM91.05-8.6L91.05-7.61 87.82-10.86 87.82-11.85 91.05-8.6ZM91.05-9.58L87.82-12.82 87.82-13.8 91.05-10.57 91.05-9.58ZM91.05-12.54L91.05-11.54 87.82-14.77 87.82-15.79 91.05-12.54ZM91.05-13.51L87.82-16.76 87.82-17.73 91.05-14.51 91.05-13.51ZM91.05-16.47L91.05-15.48 87.82-18.7 87.82-19.7 91.05-16.47ZM83.3-24.23L83.3-23.23 83.2-23.32 83.08-24.44 83.3-24.23ZM91.05-17.45L87.82-20.67 87.82-21.67 91.05-18.44 91.05-17.45ZM83.3-25.2L82.99-25.51 82.87-26.62 83.3-26.19 83.3-25.2ZM91.05-20.41L91.05-19.41 87.82-22.64 87.82-23.63 91.05-20.41ZM83.3-28.16L83.3-27.16 82.77-27.69 82.66-28.8 83.3-28.16ZM91.05-21.38L87.82-24.6 87.82-25.6 91.05-22.38 91.05-21.38ZM83.3-29.13L82.56-29.87 82.44-30.98 83.3-30.13 83.3-29.13ZM91.05-24.34L91.05-23.35 87.82-26.57 87.82-27.57 91.05-24.34ZM83.3-32.1L83.3-31.1 82.35-32.05 82.25-33.14 83.3-32.1ZM91.05-25.32L87.82-28.54 87.82-29.54 91.05-26.29 91.05-25.32ZM83.3-33.07L82.13-34.23 82.04-35.32 83.3-34.04 83.3-33.07ZM91.05-28.28L91.05-27.26 87.82-30.51 87.82-31.5 91.05-28.28ZM83.3-35.03L83.3-35.01 81.92-36.41 81.92-36.41 83.3-35.03ZM91.05-29.25L87.82-32.47 87.82-33.47 91.05-30.22 91.05-29.25ZM84.03-35.67L87.09-35.67 87.09 0 81.99 0 79.12-29.42 79.12 0 76.02 0 76.02-35.67 81.26-35.67 84.03-7.23 84.03-35.67ZM98.54-30.25L98.54-29.25 96.02-31.74 97.04-31.74 98.54-30.25ZM95.08-31.74L98.3-28.52 97.71-28.52 94.46-31.74 95.08-31.74ZM98.54-31.22L98.02-31.74 98.54-31.74 98.54-31.22ZM105.22 3.96L104.23 3.96 101 0.73 101.97 0.73 105.22 3.96ZM100.03 0.73L103.25 3.96 102.26 3.96 99.04 0.73 100.03 0.73ZM107.24-34.32L107.24-35.32 110.46-32.07 110.46-31.08 107.24-34.32ZM110.46-33.07L107.24-36.29 107.24-36.36 110.46-33.11 110.46-33.07ZM106.19 3.96L102.95 0.73 103.16 0.73 103.16-0.07 106.38 3.15 106.38 3.96 106.19 3.96ZM106.38 1.21L106.38 2.18 103.16-1.04 103.16-2.04 106.38 1.21ZM106.38 0.24L103.16-3.01 103.16-4.01 106.38-0.76 106.38 0.24ZM103.16-4.98L103.16-5.97 106.38-2.73 106.38-1.73 103.16-4.98ZM106.38-3.7L103.16-6.95 103.16-7.94 106.38-4.69 106.38-3.7ZM106.38-5.67L103.16-8.91 103.16-9.91 106.38-6.66 106.38-5.67ZM106.38-8.63L106.38-7.63 103.16-10.88 103.16-11.88 106.38-8.63ZM106.38-9.6L103.16-12.82 103.16-13.84 106.38-10.6 106.38-9.6ZM106.38-12.56L106.38-11.57 103.16-14.82 103.16-15.79 106.38-12.56ZM106.38-13.53L103.16-16.78 103.16-17.75 106.38-14.53 106.38-13.53ZM106.38-16.5L106.38-15.5 103.16-18.73 103.16-19.75 106.38-16.5ZM106.38-17.47L103.16-20.72 103.16-21.69 106.38-18.47 106.38-17.47ZM106.38-20.43L106.38-19.44 103.16-22.66 103.16-23.66 106.38-20.43ZM106.38-21.4L103.16-24.63 103.16-25.62 106.38-22.4 106.38-21.4ZM106.38-24.37L106.38-23.37 103.16-26.6 103.16-27.59 106.38-24.37ZM106.38-25.34L103.16-28.56 103.16-29.56 106.38-26.34 106.38-25.34ZM106.38-28.3L106.38-27.31 103.16-30.53 103.16-31.53 106.38-28.3ZM107.14-28.52L103.89-31.74 104.89-31.74 108.14-28.52 107.14-28.52ZM110.11-28.52L109.11-28.52 105.86-31.74 106.86-31.74 110.11-28.52ZM110.46-29.13L107.24-32.36 107.24-33.35 110.46-30.1 110.46-29.13ZM95.2-32.47L95.2-35.63 106.5-35.63 106.5-32.47 102.43-32.47 102.43 0 99.27 0 99.27-32.47 95.2-32.47ZM119.8 3.96L116.55 0.73 117.55 0.73 120.77 3.96 119.8 3.96ZM114.59 0.73L115.58 0.73 118.83 3.96 117.83 3.96 114.59 0.73ZM121.96 3.96L121.74 3.96 118.52 0.73 118.71 0.73 118.71-0.07 121.96 3.15 121.96 3.96ZM121.96 2.18L118.71-1.04 118.71-2.04 121.96 1.21 121.96 2.18ZM121.96-0.76L121.96 0.24 118.71-3.01 118.71-4.01 121.96-0.76ZM118.71-5.97L121.96-2.73 121.96-1.73 118.71-4.98 118.71-5.97ZM121.96-4.69L121.96-3.7 118.71-6.95 118.71-7.94 121.96-4.69ZM121.96-6.66L121.96-5.67 118.71-8.91 118.71-9.91 121.96-6.66ZM121.96-7.63L118.71-10.88 118.71-11.88 121.96-8.63 121.96-7.63ZM121.96-10.6L121.96-9.6 118.71-12.82 118.71-13.84 121.96-10.6ZM121.96-11.57L118.71-14.82 118.71-15.79 121.96-12.56 121.96-11.57ZM121.96-14.53L121.96-13.53 118.71-16.78 118.71-17.75 121.96-14.53ZM121.96-15.5L118.71-18.73 118.71-19.75 121.96-16.5 121.96-15.5ZM121.96-18.47L121.96-17.47 118.71-20.72 118.71-21.69 121.96-18.47ZM121.96-19.44L118.71-22.66 118.71-23.66 121.96-20.43 121.96-19.44ZM121.96-22.4L121.96-21.4 118.71-24.63 118.71-25.62 121.96-22.4ZM121.96-23.37L118.71-26.6 118.71-27.59 121.96-24.37 121.96-23.37ZM121.96-26.34L121.96-25.34 118.71-28.56 118.71-29.56 121.96-26.34ZM121.96-27.31L118.71-30.53 118.71-31.53 121.96-28.3 121.96-27.31ZM121.96-30.25L121.96-29.27 118.71-32.5 118.71-33.49 121.96-30.25ZM121.96-31.22L118.71-34.47 118.71-35.46 121.96-32.24 121.96-31.22ZM114.82 0L114.82-35.67 117.97-35.67 117.97 0 114.82 0ZM136.84 4.2L133.62 0.97Q134 0.9 134.4 0.76L134.4 0.76 137.63 4.01Q137.22 4.15 136.84 4.2L136.84 4.2ZM132.74 1.07L132.74 1.07 135.97 4.29Q135.75 4.31 135.66 4.31L135.66 4.31Q135.4 4.31 134.92 4.27L134.92 4.27 131.7 1.02Q132.17 1.07 132.53 1.07L132.53 1.07Q132.58 1.07 132.74 1.07ZM130.44 0.73L130.44 0.73 133.67 3.96Q132.41 3.53 131.51 2.63L131.51 2.63 128.31-0.57Q129.19 0.31 130.44 0.73ZM138.31 3.72L138.31 3.72 135.09 0.47Q135.49 0.28 135.73 0.12L135.73 0.12 138.95 3.34Q138.72 3.51 138.31 3.72ZM139.5 2.94L136.27-0.31Q136.51-0.52 136.77-0.81L136.77-0.81 140 2.44Q139.78 2.7 139.5 2.94L139.5 2.94ZM132.98-3.6L131.25-5.33 131.25-6.31 133.34-4.22Q133.29-3.89 132.98-3.6L132.98-3.6ZM131.25-4.36L131.25-4.36 132.29-3.29Q131.3-3.34 131.25-4.36ZM140.42 1.87L140.42 1.87 137.18-1.35Q137.36-1.64 137.55-1.99L137.55-1.99 140.78 1.26Q140.66 1.52 140.42 1.87ZM133.34-6.19L133.34-5.19 131.25-7.28 131.25-8.3 133.34-6.19ZM138.03-3.46L141.25-0.24Q141.18 0.14 141.06 0.55L141.06 0.55 137.82-2.68Q137.96-3.11 138.03-3.46L138.03-3.46ZM141.37-1.11L141.37-1.11 138.12-4.34Q138.15-4.65 138.15-4.81L138.15-4.81 138.15-5.33 141.37-2.09 141.37-1.56Q141.37-1.4 141.37-1.11ZM131.25-10.24L133.34-8.15 133.34-7.16 131.25-9.24 131.25-10.24ZM133.34-10.12L133.34-9.13 131.25-11.21 131.25-12.21 133.34-10.12ZM141.37-4.05L141.37-3.06 138.15-6.31 138.15-7.28 141.37-4.05ZM133.34-12.09L133.34-11.09 131.25-13.18 131.25-14.17 133.34-12.09ZM141.37-5.03L138.15-8.27 138.15-9.24 141.37-6.02 141.37-5.03ZM133.34-13.06L131.25-15.15 131.25-16.14 133.34-14.06 133.34-13.06ZM141.37-7.99L141.37-6.99 138.15-10.22 138.15-11.21 141.37-7.99ZM133.34-16.02L133.34-15.03 131.25-17.11 131.25-18.11 133.34-16.02ZM141.37-8.96L138.15-12.18 138.15-13.18 141.37-9.96 141.37-8.96ZM133.34-17L131.25-19.08 131.25-20.08 133.34-17.99 133.34-17ZM141.37-11.92L141.37-10.93 138.15-14.15 138.15-15.15 141.37-11.92ZM133.34-19.96L133.34-18.96 131.25-21.05 131.25-22.04 133.34-19.96ZM141.37-12.89L138.15-16.12 138.15-17.11 141.37-13.89 141.37-12.89ZM133.34-20.93L131.25-23.02 131.25-24.01 133.34-21.93 133.34-20.93ZM141.37-15.86L141.37-14.86 138.15-18.09 138.15-19.08 141.37-15.86ZM133.34-23.89L133.34-22.9 131.25-24.98 131.25-25.98 133.34-23.89ZM141.37-16.83L138.15-20.05 138.15-21.05 141.37-17.83 141.37-16.83ZM133.34-24.87L131.25-26.95 131.25-27.95 133.34-25.86 133.34-24.87ZM141.37-19.77L141.37-18.8 138.15-22.02 138.15-23.02 141.37-19.77ZM133.34-27.83L133.34-26.83 131.25-28.92 131.25-29.91 133.34-27.83ZM141.37-20.74L138.15-23.99 138.15-24.98 141.37-21.76 141.37-20.74ZM133.34-28.8L131.25-30.89 131.25-31.08Q131.25-31.46 131.37-31.74L131.37-31.74 133.34-29.8 133.34-28.8ZM141.37-23.73L141.37-22.71 138.15-25.96 138.15-26.95 141.37-23.73ZM133.34-31.17L133.34-30.77 131.87-32.24Q132.13-32.33 132.32-32.33L132.32-32.33Q133.34-32.33 133.34-31.17L133.34-31.17ZM141.37-24.68L138.15-27.92 138.15-28.92 141.37-25.67 141.37-24.68ZM141.37-27.64L141.37-26.64 138.15-29.89 138.15-30.89 141.37-27.64ZM141.32-28.66L138.1-31.91Q137.98-32.66 137.72-33.28L137.72-33.28 140.94-30.03Q141.2-29.44 141.32-28.66L141.32-28.66ZM137.41-31.17L137.41-31.17 137.41-4.81Q137.41-2.47 136.01-1.07L136.01-1.07Q134.62 0.33 132.48 0.33L132.48 0.33Q130.23 0.33 128.78-1.11L128.78-1.11Q127.31-2.58 127.31-5.1L127.31-5.1 127.31-30.82Q127.31-33.75 128.59-34.92L128.59-34.92Q129.78-35.98 132.27-35.98L132.27-35.98Q134.57-35.98 136.01-34.54L136.01-34.54Q137.41-33.14 137.41-31.17ZM134.07-4.27L134.07-4.27 134.07-31.17Q134.07-32 133.5-32.57L133.5-32.57Q133-33.07 132.32-33.07L132.32-33.07Q130.51-33.07 130.51-31.08L130.51-31.08 130.51-4.46Q130.51-3.63 131.04-3.11L131.04-3.11Q131.56-2.58 132.32-2.58L132.32-2.58Q132.98-2.58 133.52-3.13L133.52-3.13Q134.07-3.65 134.07-4.27ZM151.71 3.96L148.48 0.73 149.48 0.73 152.7 3.96 151.71 3.96ZM146.51 0.73L147.51 0.73 150.73 3.96 149.76 3.96 146.51 0.73ZM156.64 3.96L155.64 3.96 152.42 0.73 153.41 0.73 156.64 3.96ZM150.57-0.14L153.79 3.08 153.79 3.96 153.67 3.96 150.45 0.73 150.57 0.73 150.57-0.14ZM152.01 0.31L150.57-1.11 150.57-2.11 151.9-0.78 152.01 0.31ZM158.53-34.44L158.53-35.44 161.76-32.21 161.76-31.19 158.53-34.44ZM157.61 3.96L154.38 0.73 155.38 0.73 158.6 3.96 157.61 3.96ZM151.68-2.96L151.8-1.85 150.57-3.08 150.57-4.08 151.68-2.96ZM160.57 3.96L159.58 3.96 156.35 0.73 157.32 0.73 160.57 3.96ZM151.59-4.03L150.57-5.05 150.57-6.04 151.47-5.14 151.59-4.03ZM161.54 3.96L158.3 0.73 158.53 0.73 158.53-0.05 161.76 3.18 161.76 3.96 161.54 3.96ZM151.26-7.32L151.37-6.21 150.57-7.02 150.57-8.01 151.26-7.32ZM158.53-1.02L158.53-2.01 161.76 1.23 161.76 2.23 158.53-1.02ZM161.76 0.26L158.53-2.99 158.53-3.98 161.76-0.73 161.76 0.26ZM150.57-9.98L151.04-9.48 151.16-8.39 150.57-8.98 150.57-9.98ZM150.83-11.66L150.95-10.57 150.57-10.93 150.57-11.95 150.83-11.66ZM161.76-1.71L158.53-4.95 158.53-5.95 161.76-2.7 161.76-1.71ZM150.62-13.84L150.73-12.75 150.57-12.89 150.57-13.91 150.62-13.84ZM161.76-4.67L161.76-3.67 158.53-6.92 158.53-7.92 161.76-4.67ZM161.76-5.64L158.53-8.89 158.53-9.88 161.76-6.64 161.76-5.64ZM161.76-8.6L161.76-7.61 158.53-10.86 158.53-11.85 161.76-8.6ZM161.76-9.58L158.53-12.82 158.53-13.8 161.76-10.57 161.76-9.58ZM161.76-12.54L161.76-11.54 158.53-14.77 158.53-15.79 161.76-12.54ZM161.76-13.51L158.53-16.76 158.53-17.73 161.76-14.51 161.76-13.51ZM161.76-16.47L161.76-15.48 158.53-18.7 158.53-19.7 161.76-16.47ZM154-24.23L154-23.23 153.91-23.32 153.79-24.44 154-24.23ZM161.76-17.45L158.53-20.67 158.53-21.67 161.76-18.44 161.76-17.45ZM154-25.2L153.7-25.51 153.58-26.62 154-26.19 154-25.2ZM161.76-20.41L161.76-19.41 158.53-22.64 158.53-23.63 161.76-20.41ZM154-28.16L154-27.16 153.48-27.69 153.36-28.8 154-28.16ZM161.76-21.38L158.53-24.6 158.53-25.6 161.76-22.38 161.76-21.38ZM154-29.13L153.27-29.87 153.15-30.98 154-30.13 154-29.13ZM161.76-24.34L161.76-23.35 158.53-26.57 158.53-27.57 161.76-24.34ZM154-32.1L154-31.1 153.06-32.05 152.96-33.14 154-32.1ZM161.76-25.32L158.53-28.54 158.53-29.54 161.76-26.29 161.76-25.32ZM154-33.07L152.84-34.23 152.75-35.32 154-34.04 154-33.07ZM161.76-28.28L161.76-27.26 158.53-30.51 158.53-31.5 161.76-28.28ZM154-35.03L154-35.01 152.63-36.41 152.63-36.41 154-35.03ZM161.76-29.25L158.53-32.47 158.53-33.47 161.76-30.22 161.76-29.25ZM154.74-35.67L157.8-35.67 157.8 0 152.7 0 149.83-29.42 149.83 0 146.73 0 146.73-35.67 151.97-35.67 154.74-7.23 154.74-35.67ZM171.59 3.96L170.6 3.96 167.35 0.73 168.35 0.73 171.59 3.96ZM174.53 3.96L171.29 0.73 171.43 0.73 171.43-0.12 174.67 3.13 174.67 3.96 174.53 3.96ZM169.32 0.73L170.31 0.73 173.56 3.96 172.54 3.96 169.32 0.73ZM174.67-0.81L174.67 0.19 171.43-3.06 171.43-4.05 174.67-0.81ZM171.43-2.09L174.67 1.14 174.67 2.16 171.43-1.09 171.43-2.09ZM174.67-1.78L171.43-5.03 171.43-6.02 174.67-2.77 174.67-1.78ZM171.43-6.99L171.43-7.99 174.67-4.74 174.67-3.75 171.43-6.99ZM174.67-5.71L171.43-8.96 171.43-9.96 174.67-6.71 174.67-5.71ZM174.67-7.68L171.43-10.93 171.43-11.92 174.67-8.68 174.67-7.68ZM174.67-10.64L174.67-9.65 171.43-12.89 171.43-13.89 174.67-10.64ZM174.67-11.61L171.43-14.86 171.43-15.53 171.74-15.53 174.98-12.3 174.67-12.3 174.67-11.61ZM176.95-12.3L175.95-12.3 172.71-15.53 173.7-15.53 176.95-12.3ZM177.92-12.3L174.67-15.53 175.65-15.53 175.65-15.55 178.89-12.33 178.89-12.3 177.92-12.3ZM178.89-14.29L178.89-13.3 175.65-16.52 175.65-17.52 178.89-14.29ZM178.89-15.27L175.65-18.49 175.65-19.48 178.89-16.26 178.89-15.27ZM173.28-19.91L172.28-19.91 171.43-20.74 171.43-21.76 173.28-19.91ZM174.25-19.91L171.43-22.71 171.43-23.7 174.67-20.48 174.67-19.91 174.25-19.91ZM174.67-22.45L174.67-21.45 171.43-24.68 171.43-25.67 174.67-22.45ZM174.67-23.42L171.43-26.64 171.43-27.64 174.67-24.42 174.67-23.42ZM174.67-26.36L174.67-25.39 171.43-28.61 171.43-29.61 174.67-26.36ZM174.67-27.33L171.43-30.58 171.43-31.57 174.67-28.35 174.67-27.33ZM176.17-28.8L175.17-28.8 171.93-32.05 172.92-32.05 176.17-28.8ZM177.14-28.8L173.89-32.05 174.89-32.05 178.14-28.8 177.14-28.8ZM178.89-30.01L178.89-29.01 175.65-32.26 175.65-33.26 178.89-30.01ZM178.89-30.98L175.65-34.23 175.65-35.2 178.89-31.98 178.89-30.98ZM178.89-33.16L178.89-32.95 175.65-36.2 175.65-36.41 178.89-33.16ZM167.35 0L167.35-35.67 174.91-35.67 174.91-32.76 170.69-32.76 170.69-19.18 174.91-19.18 174.91-16.26 170.69-16.26 170.69 0 167.35 0ZM188.42 3.96L187.43 3.96 184.18 0.73 185.18 0.73 188.42 3.96ZM191.36 3.96L188.12 0.73 189.11 0.73 192.33 3.96 191.36 3.96ZM186.15 0.73L187.14 0.73 190.39 3.96 189.37 3.96 186.15 0.73ZM195.72 3.96L195.27 3.96 192.05 0.73 192.48 0.73 192.48 0.19 195.72 3.41 195.72 3.96ZM191.08 0.73L194.3 3.96 193.31 3.96 190.08 0.73 191.08 0.73ZM195.72 2.44L192.48-0.81 192.48-1.8 195.72 1.45 195.72 2.44ZM195.72-0.4L195.72 0.47 192.48-2.77 192.48-3.65 195.72-0.4ZM189.63-3.65L188.16-5.12 188.16-6.12 190.63-3.65 189.63-3.65ZM188.16-3.65L188.16-4.15 188.66-3.65 188.16-3.65ZM188.16-7.09L188.16-8.08 191.39-4.84 191.39-3.84 188.16-7.09ZM191.39-5.81L188.16-9.05 188.16-10.05 191.39-6.8 191.39-5.81ZM191.39-7.77L188.16-11.02 188.16-12.02 191.39-8.77 191.39-7.77ZM191.39-10.74L191.39-9.74 188.16-12.99 188.16-13.99 191.39-10.74ZM191.39-11.71L188.16-14.96 188.16-15.95 191.39-12.71 191.39-11.71ZM191.39-14.67L191.39-13.68 188.16-16.92 188.16-17.92 191.39-14.67ZM191.39-15.64L188.16-18.89 188.16-19.86 191.39-16.64 191.39-15.64ZM191.39-18.61L191.39-17.61 188.16-20.84 188.16-21.86 191.39-18.61ZM191.39-19.58L188.16-22.83 188.16-23.8 191.39-20.58 191.39-19.58ZM191.39-22.54L191.39-21.55 188.16-24.77 188.16-25.77 191.39-22.54ZM191.39-23.51L188.16-26.74 188.16-27.73 191.39-24.51 191.39-23.51ZM191.39-26.48L191.39-25.48 188.16-28.71 188.16-29.7 191.39-26.48ZM191.39-27.45L188.16-30.67 188.16-31.67 191.39-28.44 191.39-27.45ZM191.39-30.41L191.39-29.42 188.16-32.64 188.16-33.64 191.39-30.41ZM191.39-31.38L188.16-34.61 188.16-35.6 191.39-32.38 191.39-31.38ZM184.18 0L184.18-35.67 187.43-35.67 187.43-2.92 191.74-2.92 191.74 0 184.18 0ZM208.67 4.2L205.44 0.97Q205.82 0.9 206.22 0.76L206.22 0.76 209.45 4.01Q209.05 4.15 208.67 4.2L208.67 4.2ZM204.57 1.07L204.57 1.07 207.79 4.29Q207.58 4.31 207.48 4.31L207.48 4.31Q207.22 4.31 206.75 4.27L206.75 4.27 203.52 1.02Q204 1.07 204.35 1.07L204.35 1.07Q204.4 1.07 204.57 1.07ZM202.27 0.73L202.27 0.73 205.49 3.96Q204.23 3.53 203.33 2.63L203.33 2.63 200.13-0.57Q201.01 0.31 202.27 0.73ZM210.14 3.72L210.14 3.72 206.91 0.47Q207.32 0.28 207.55 0.12L207.55 0.12 210.78 3.34Q210.54 3.51 210.14 3.72ZM211.32 2.94L208.1-0.31Q208.33-0.52 208.6-0.81L208.6-0.81 211.82 2.44Q211.61 2.7 211.32 2.94L211.32 2.94ZM204.8-3.6L203.07-5.33 203.07-6.31 205.16-4.22Q205.11-3.89 204.8-3.6L204.8-3.6ZM203.07-4.36L203.07-4.36 204.12-3.29Q203.12-3.34 203.07-4.36ZM212.25 1.87L212.25 1.87 209-1.35Q209.19-1.64 209.38-1.99L209.38-1.99 212.6 1.26Q212.48 1.52 212.25 1.87ZM205.16-6.19L205.16-5.19 203.07-7.28 203.07-8.3 205.16-6.19ZM209.85-3.46L213.08-0.24Q213 0.14 212.89 0.55L212.89 0.55 209.64-2.68Q209.78-3.11 209.85-3.46L209.85-3.46ZM213.19-1.11L213.19-1.11 209.95-4.34Q209.97-4.65 209.97-4.81L209.97-4.81 209.97-5.33 213.19-2.09 213.19-1.56Q213.19-1.4 213.19-1.11ZM203.07-10.24L205.16-8.15 205.16-7.16 203.07-9.24 203.07-10.24ZM205.16-10.12L205.16-9.13 203.07-11.21 203.07-12.21 205.16-10.12ZM213.19-4.05L213.19-3.06 209.97-6.31 209.97-7.28 213.19-4.05ZM205.16-12.09L205.16-11.09 203.07-13.18 203.07-14.17 205.16-12.09ZM213.19-5.03L209.97-8.27 209.97-9.24 213.19-6.02 213.19-5.03ZM205.16-13.06L203.07-15.15 203.07-16.14 205.16-14.06 205.16-13.06ZM213.19-7.99L213.19-6.99 209.97-10.22 209.97-11.21 213.19-7.99ZM205.16-16.02L205.16-15.03 203.07-17.11 203.07-18.11 205.16-16.02ZM213.19-8.96L209.97-12.18 209.97-13.18 213.19-9.96 213.19-8.96ZM205.16-17L203.07-19.08 203.07-20.08 205.16-17.99 205.16-17ZM213.19-11.92L213.19-10.93 209.97-14.15 209.97-15.15 213.19-11.92ZM205.16-19.96L205.16-18.96 203.07-21.05 203.07-22.04 205.16-19.96ZM213.19-12.89L209.97-16.12 209.97-17.11 213.19-13.89 213.19-12.89ZM205.16-20.93L203.07-23.02 203.07-24.01 205.16-21.93 205.16-20.93ZM213.19-15.86L213.19-14.86 209.97-18.09 209.97-19.08 213.19-15.86ZM205.16-23.89L205.16-22.9 203.07-24.98 203.07-25.98 205.16-23.89ZM213.19-16.83L209.97-20.05 209.97-21.05 213.19-17.83 213.19-16.83ZM205.16-24.87L203.07-26.95 203.07-27.95 205.16-25.86 205.16-24.87ZM213.19-19.77L213.19-18.8 209.97-22.02 209.97-23.02 213.19-19.77ZM205.16-27.83L205.16-26.83 203.07-28.92 203.07-29.91 205.16-27.83ZM213.19-20.74L209.97-23.99 209.97-24.98 213.19-21.76 213.19-20.74ZM205.16-28.8L203.07-30.89 203.07-31.08Q203.07-31.46 203.19-31.74L203.19-31.74 205.16-29.8 205.16-28.8ZM213.19-23.73L213.19-22.71 209.97-25.96 209.97-26.95 213.19-23.73ZM205.16-31.17L205.16-30.77 203.69-32.24Q203.95-32.33 204.14-32.33L204.14-32.33Q205.16-32.33 205.16-31.17L205.16-31.17ZM213.19-24.68L209.97-27.92 209.97-28.92 213.19-25.67 213.19-24.68ZM213.19-27.64L213.19-26.64 209.97-29.89 209.97-30.89 213.19-27.64ZM213.15-28.66L209.92-31.91Q209.8-32.66 209.54-33.28L209.54-33.28 212.77-30.03Q213.03-29.44 213.15-28.66L213.15-28.66ZM209.24-31.17L209.24-31.17 209.24-4.81Q209.24-2.47 207.84-1.07L207.84-1.07Q206.44 0.33 204.3 0.33L204.3 0.33Q202.05 0.33 200.61-1.11L200.61-1.11Q199.14-2.58 199.14-5.1L199.14-5.1 199.14-30.82Q199.14-33.75 200.42-34.92L200.42-34.92Q201.6-35.98 204.09-35.98L204.09-35.98Q206.39-35.98 207.84-34.54L207.84-34.54Q209.24-33.14 209.24-31.17ZM205.89-4.27L205.89-4.27 205.89-31.17Q205.89-32 205.32-32.57L205.32-32.57Q204.83-33.07 204.14-33.07L204.14-33.07Q202.34-33.07 202.34-31.08L202.34-31.08 202.34-4.46Q202.34-3.63 202.86-3.11L202.86-3.11Q203.38-2.58 204.14-2.58L204.14-2.58Q204.8-2.58 205.35-3.13L205.35-3.13Q205.89-3.65 205.89-4.27ZM232.65-13.72L232.63-13.72 232.56-14.79 232.73-14.65 232.65-13.72ZM232.84-16.5L232.77-15.55 232.49-15.83 232.42-16.92 232.84-16.5ZM232.92-17.4L232.35-17.97 232.28-19.03 232.96-18.32 232.92-17.4ZM233.11-20.15L233.03-19.25 232.2-20.08 232.11-21.14 233.11-20.15ZM233.18-21.07L232.04-22.19 231.97-23.25 233.22-22 233.18-21.07ZM233.37-23.85L233.29-22.9 231.9-24.3 231.83-25.39 233.37-23.85ZM233.44-24.75L231.75-26.43 231.68-27.5 233.48-25.67 233.44-24.75ZM233.63-27.52L233.56-26.57 231.59-28.54 231.52-29.61 233.63-27.52ZM233.67-28.42L231.45-30.65 231.37-31.72 233.75-29.35 233.67-28.42ZM233.89-31.17L233.82-30.25 231.3-32.76 231.23-33.83 233.89-31.17ZM233.93-32.1L231.16-34.89 231.07-35.96 234.01-33.02 233.93-32.1ZM225.78 3.96L224.79 3.96 221.56 0.73 222.56 0.73 225.78 3.96ZM220.59 0.73L223.81 3.96 222.91 3.96 219.69 0.73 220.59 0.73ZM228.72 3.96L225.5 0.73 226.49 0.73 229.72 3.96 228.72 3.96ZM223.53 0.73L224.52 0.73 227.75 3.96 226.75 3.96 223.53 0.73ZM233.65 3.96L232.65 3.96 229.43 0.73 230.4 0.73 233.65 3.96ZM226.97-0.76L230.21 2.49 230.14 3.41 226.89 0.19 226.97-0.76ZM229.03 0.33L227.04-1.66 227.08-2.58 228.96-0.73 229.03 0.33ZM241.88-30.08L238.65-33.3 238.72-34.23 241.95-31 241.88-30.08ZM238.51-31.46L238.58-32.4 241.83-29.16 241.76-28.23 238.51-31.46ZM234.62 3.96L231.37 0.73 232.39 0.73 235.62 3.96 234.62 3.96ZM228.81-2.82L228.89-1.75 227.16-3.51 227.23-4.43 228.81-2.82ZM242.07-32.83L242.02-31.91 238.77-35.13 238.84-36.08 242.07-32.83ZM237.59 3.96L236.59 3.96 233.37 0.73 234.34 0.73 237.59 3.96ZM228.77-3.86L227.27-5.36 227.35-6.26 228.7-4.93 228.77-3.86ZM238.56 3.96L235.31 0.73 236.23 0.73 236.23 0.66 239.48 3.89 239.48 3.96 238.56 3.96ZM228.55-7.04L228.63-5.95 227.39-7.18 227.46-8.11 228.55-7.04ZM236.31-0.24L236.38-1.16 239.6 2.06 239.55 2.99 236.31-0.24ZM239.67 1.16L236.45-2.09 236.49-3.01 239.74 0.24 239.67 1.16ZM227.58-9.96L228.41-9.13 228.48-8.06 227.53-9.03 227.58-9.96ZM228.29-11.24L228.36-10.17 227.65-10.86 227.72-11.8 228.29-11.24ZM223.43-16.07L223.39-15.15 223.15-15.36 223.08-16.43 223.43-16.07ZM223.22-14.32L223.32-14.22 223.27-13.65 223.22-14.32ZM239.81-0.69L236.57-3.91 236.64-4.84 239.88-1.61 239.81-0.69ZM228.15-13.32L228.22-12.25 227.77-12.71 227.84-13.63 228.15-13.32ZM223.51-16.97L223.01-17.47 222.94-18.54 223.58-17.9 223.51-16.97ZM240-3.44L239.93-2.51 236.71-5.76 236.76-6.68 240-3.44ZM228.08-14.36L227.91-14.55 227.96-15.48 228.01-15.43 228.08-14.36ZM223.69-19.75L223.65-18.82 222.87-19.6 222.77-20.67 223.69-19.75ZM240.07-4.36L236.83-7.59 236.9-8.51 240.12-5.29 240.07-4.36ZM223.77-20.65L222.7-21.71 222.63-22.78 223.84-21.57 223.77-20.65ZM240.26-7.11L240.19-6.19 236.97-9.43 237.02-10.36 240.26-7.11ZM223.96-23.42L223.91-22.5 222.56-23.82 222.49-24.89 223.96-23.42ZM240.33-8.01L237.09-11.26 237.16-12.18 240.38-8.96 240.33-8.01ZM224.03-24.32L222.41-25.93 222.34-27 224.1-25.24 224.03-24.32ZM240.52-10.79L240.45-9.86 237.23-13.08 237.28-14.03 240.52-10.79ZM224.22-27.09L224.17-26.15 222.27-28.04 222.18-29.13 224.22-27.09ZM240.6-11.71L237.35-14.93 237.42-15.86 240.64-12.63 240.6-11.71ZM224.29-27.99L222.11-30.18 222.04-31.24 224.36-28.92 224.29-27.99ZM240.79-14.46L240.71-13.53 237.47-16.76 237.54-17.71 240.79-14.46ZM224.48-30.77L224.41-29.82 221.96-32.28 221.89-33.35 224.48-30.77ZM240.83-15.36L237.61-18.61 237.68-19.53 240.9-16.31 240.83-15.36ZM224.55-31.67L221.82-34.39 221.75-35.46 224.62-32.59 224.55-31.67ZM241.05-18.13L240.97-17.21 237.73-20.43 237.8-21.38 241.05-18.13ZM241.09-19.03L237.87-22.28 237.94-23.21 241.16-19.98 241.09-19.03ZM241.31-21.81L241.24-20.88 237.99-24.11 238.06-25.06 241.31-21.81ZM241.35-22.71L238.13-25.96 238.2-26.88 241.43-23.66 241.35-22.71ZM241.57-25.48L241.5-24.56 238.25-27.78 238.32-28.73 241.57-25.48ZM241.61-26.38L238.39-29.63 238.44-30.55 241.69-27.31 241.61-26.38ZM228.13-25.01L227.89-25.01 226.18 0 220.35 0 217.84-35.67 220.99-35.67 223.03-6.76 223.53-6.76 225.57-35.67 230.36-35.67 232.39-6.76 232.89-6.76 234.93-35.67 238.08-35.67 235.57 0 229.74 0 228.13-25.01Z" transform="translate(-2.4700000286102295, 36.40999984741211)"></path></g>       </g></g> </g></mask><defs v-gra="od"></defs></svg>