<svg xmlns="http://www.w3.org/2000/svg" width="51" height="52" viewBox="0 0 51 52" fill="none">
    <path fill-rule="evenodd" clip-rule="evenodd"
        d="M2.1688 1.33836C4.69704 -0.731238 8.42432 -0.359434 10.4939 2.1688C15.79 8.63851 18.972 16.9213 18.972 25.9314C18.972 34.9414 15.79 43.2242 10.4939 49.6939C8.42432 52.2221 4.69704 52.5939 2.1688 50.5243C-0.359434 48.4548 -0.731238 44.7275 1.33836 42.1992C4.96728 37.7661 7.14013 32.1104 7.14013 25.9314C7.14013 19.7523 4.96728 14.0966 1.33836 9.66347C-0.731238 7.13523 -0.359434 3.40795 2.1688 1.33836Z"
        fill="black" />
    <path fill-rule="evenodd" clip-rule="evenodd"
        d="M48.8312 1.33836C46.303 -0.731238 42.5757 -0.359434 40.5061 2.1688C35.21 8.63851 32.028 16.9213 32.028 25.9314C32.028 34.9414 35.21 43.2242 40.5061 49.6939C42.5757 52.2221 46.303 52.5939 48.8312 50.5243C51.3594 48.4548 51.7312 44.7275 49.6616 42.1992C46.0327 37.7661 43.8599 32.1104 43.8599 25.9314C43.8599 19.7523 46.0327 14.0966 49.6616 9.66347C51.7312 7.13523 51.3594 3.40795 48.8312 1.33836Z"
        fill="black" />
    <path
        d="M48.3477 11.4239C42.1545 16.5018 33.4659 19.5492 24.8322 19.5492C16.5766 19.5492 9.125 16.7195 3.06006 12.0359C4.74314 14.598 7.14003 19.1759 7.14003 25.7038C7.14003 32.8438 4.89605 36.9772 3.06006 39.7797C9.19818 34.8791 16.3671 31.7891 24.8322 31.7891C33.737 31.7891 42.0731 35.024 48.3477 40.3917C45.3468 36.1867 43.8598 31.0645 43.8598 25.4998C43.8598 20.3027 45.6999 15.4646 48.3477 11.4239Z"
        fill="url(#paint0_linear_13_3344)" />
    <defs>
        <linearGradient id="paint0_linear_13_3344" x1="46.7158" y1="24.2758" x2="5.30404" y2="24.2758"
            gradientUnits="userSpaceOnUse">
            <stop stop-color="#007AFF" />
            <stop offset="0.380149" stop-color="#007AFF" stop-opacity="0.6" />
            <stop offset="0.639621" stop-color="#64D2FF" stop-opacity="0.6" />
            <stop offset="1" stop-color="#64D2FF" />
        </linearGradient>
    </defs>
</svg>