<svg width="1144" height="94" viewBox="0 0 1144 94" fill="none" xmlns="http://www.w3.org/2000/svg">
<g filter="url(#filter0_d_76_436)">
<rect x="16" y="16" width="1112" height="53" rx="10" fill="white"/>
</g>
<rect x="20" y="19" width="261" height="47" rx="8" fill="#FF3B30"/>
<rect x="285" y="19" width="185" height="47" rx="8" fill="#FF9500"/>
<rect x="474" y="19" width="104" height="47" rx="8" fill="#FFCC00"/>
<rect x="582" y="19" width="62" height="47" rx="8" fill="#34C759"/>
<rect x="648" y="19" width="51" height="47" rx="8" fill="#5AC8FA"/>
<rect x="703" y="19" width="41" height="47" rx="8" fill="#007AFF"/>
<rect x="748" y="19" width="40" height="47" rx="8" fill="#5856D6"/>
<rect x="792" y="19" width="37" height="47" rx="8" fill="#AF52DE"/>
<rect x="833" y="19" width="33" height="47" rx="8" fill="#FF2D55"/>
<rect x="870" y="19" width="30" height="47" rx="8" fill="#8E8E93"/>
<rect x="904" y="19" width="27" height="47" rx="8" fill="#AEAEB2"/>
<rect x="935" y="19" width="23" height="47" rx="8" fill="#C7C7CC"/>
<rect x="962" y="19" width="20" height="47" rx="8" fill="#E5E5EA"/>
<rect x="986" y="19" width="17" height="47" rx="8" fill="#E5E5EA"/>
<rect x="1007" y="19" width="14" height="47" rx="7" fill="#F2F2F7"/>
<path d="M37.4091 48.1591C36.8106 48.1553 36.233 48.0549 35.6761 47.858C35.1231 47.661 34.6269 47.3409 34.1875 46.8977C33.7481 46.4545 33.3996 45.8674 33.142 45.1364C32.8883 44.4053 32.7614 43.5076 32.7614 42.4432C32.7652 41.4659 32.8769 40.5928 33.0966 39.8239C33.3201 39.0511 33.6383 38.3958 34.0511 37.858C34.4678 37.3201 34.9659 36.911 35.5455 36.6307C36.125 36.3466 36.7746 36.2045 37.4943 36.2045C38.2708 36.2045 38.9564 36.3561 39.5511 36.6591C40.1458 36.9583 40.6231 37.3655 40.983 37.8807C41.3466 38.3958 41.5663 38.9735 41.642 39.6136H39.2159C39.1212 39.2083 38.9223 38.8902 38.6193 38.6591C38.3163 38.428 37.9413 38.3125 37.4943 38.3125C36.7367 38.3125 36.161 38.642 35.767 39.3011C35.3769 39.9602 35.178 40.8561 35.1705 41.9886H35.25C35.4242 41.6439 35.6591 41.3504 35.9545 41.108C36.2538 40.8617 36.5928 40.6742 36.9716 40.5455C37.3542 40.4129 37.7576 40.3466 38.1818 40.3466C38.8712 40.3466 39.4848 40.5095 40.0227 40.8352C40.5606 41.1572 40.9848 41.6004 41.2955 42.1648C41.6061 42.7292 41.7614 43.375 41.7614 44.1023C41.7614 44.8902 41.5777 45.5909 41.2102 46.2045C40.8466 46.8182 40.3371 47.2992 39.6818 47.6477C39.0303 47.9924 38.2727 48.1629 37.4091 48.1591ZM37.3977 46.2273C37.7765 46.2273 38.1155 46.1364 38.4148 45.9545C38.714 45.7727 38.9489 45.5265 39.1193 45.2159C39.2898 44.9053 39.375 44.5568 39.375 44.1705C39.375 43.7841 39.2898 43.4375 39.1193 43.1307C38.9527 42.8239 38.7216 42.5795 38.4261 42.3977C38.1307 42.2159 37.7936 42.125 37.4148 42.125C37.1307 42.125 36.8674 42.178 36.625 42.2841C36.3864 42.3902 36.1761 42.5379 35.9943 42.7273C35.8163 42.9167 35.6761 43.1364 35.5739 43.3864C35.4716 43.6326 35.4205 43.8958 35.4205 44.1761C35.4205 44.5511 35.5057 44.8939 35.6761 45.2045C35.8504 45.5152 36.0852 45.7633 36.3807 45.9489C36.6799 46.1345 37.0189 46.2273 37.3977 46.2273ZM48.0682 48.2557C47.0909 48.2519 46.25 48.0114 45.5455 47.5341C44.8447 47.0568 44.3049 46.3655 43.9261 45.4602C43.5511 44.5549 43.3655 43.4659 43.3693 42.1932C43.3693 40.9242 43.5568 39.8428 43.9318 38.9489C44.3106 38.0549 44.8504 37.375 45.5511 36.9091C46.2557 36.4394 47.0947 36.2045 48.0682 36.2045C49.0417 36.2045 49.8788 36.4394 50.5795 36.9091C51.2841 37.3788 51.8258 38.0606 52.2045 38.9545C52.5833 39.8447 52.7708 40.9242 52.767 42.1932C52.767 43.4697 52.5777 44.5606 52.1989 45.4659C51.8239 46.3712 51.286 47.0625 50.5852 47.5398C49.8845 48.017 49.0455 48.2557 48.0682 48.2557ZM48.0682 46.2159C48.7348 46.2159 49.267 45.8807 49.6648 45.2102C50.0625 44.5398 50.2595 43.5341 50.2557 42.1932C50.2557 41.3106 50.1648 40.5758 49.983 39.9886C49.8049 39.4015 49.5511 38.9602 49.2216 38.6648C48.8958 38.3693 48.5114 38.2216 48.0682 38.2216C47.4053 38.2216 46.875 38.553 46.4773 39.2159C46.0795 39.8788 45.8788 40.8712 45.875 42.1932C45.875 43.0871 45.964 43.8333 46.142 44.4318C46.3239 45.0265 46.5795 45.4735 46.9091 45.7727C47.2386 46.0682 47.625 46.2159 48.0682 46.2159Z" fill="#232325"/>
<path d="M301.767 45.9545V44.017L306.625 36.3636H308.295V39.0455H307.307L304.244 43.892V43.983H311.148V45.9545H301.767ZM307.352 48V45.3636L307.398 44.5057V36.3636H309.705V48H307.352ZM317.253 48.1591C316.654 48.1553 316.077 48.0549 315.52 47.858C314.967 47.661 314.471 47.3409 314.031 46.8977C313.592 46.4545 313.243 45.8674 312.986 45.1364C312.732 44.4053 312.605 43.5076 312.605 42.4432C312.609 41.4659 312.721 40.5928 312.94 39.8239C313.164 39.0511 313.482 38.3958 313.895 37.858C314.312 37.3201 314.81 36.911 315.389 36.6307C315.969 36.3466 316.618 36.2045 317.338 36.2045C318.115 36.2045 318.8 36.3561 319.395 36.6591C319.99 36.9583 320.467 37.3655 320.827 37.8807C321.19 38.3958 321.41 38.9735 321.486 39.6136H319.06C318.965 39.2083 318.766 38.8902 318.463 38.6591C318.16 38.428 317.785 38.3125 317.338 38.3125C316.58 38.3125 316.005 38.642 315.611 39.3011C315.221 39.9602 315.022 40.8561 315.014 41.9886H315.094C315.268 41.6439 315.503 41.3504 315.798 41.108C316.098 40.8617 316.437 40.6742 316.815 40.5455C317.198 40.4129 317.601 40.3466 318.026 40.3466C318.715 40.3466 319.329 40.5095 319.866 40.8352C320.404 41.1572 320.829 41.6004 321.139 42.1648C321.45 42.7292 321.605 43.375 321.605 44.1023C321.605 44.8902 321.421 45.5909 321.054 46.2045C320.69 46.8182 320.181 47.2992 319.526 47.6477C318.874 47.9924 318.116 48.1629 317.253 48.1591ZM317.241 46.2273C317.62 46.2273 317.959 46.1364 318.259 45.9545C318.558 45.7727 318.793 45.5265 318.963 45.2159C319.134 44.9053 319.219 44.5568 319.219 44.1705C319.219 43.7841 319.134 43.4375 318.963 43.1307C318.796 42.8239 318.565 42.5795 318.27 42.3977C317.974 42.2159 317.637 42.125 317.259 42.125C316.974 42.125 316.711 42.178 316.469 42.2841C316.23 42.3902 316.02 42.5379 315.838 42.7273C315.66 42.9167 315.52 43.1364 315.418 43.3864C315.315 43.6326 315.264 43.8958 315.264 44.1761C315.264 44.5511 315.349 44.8939 315.52 45.2045C315.694 45.5152 315.929 45.7633 316.224 45.9489C316.524 46.1345 316.863 46.2273 317.241 46.2273Z" fill="#232325"/>
<path d="M495.244 48.1591C494.396 48.1591 493.64 48.0133 492.977 47.7216C492.318 47.4261 491.797 47.0208 491.415 46.5057C491.036 45.9867 490.841 45.3883 490.83 44.7102H493.307C493.322 44.9943 493.415 45.2443 493.585 45.4602C493.759 45.6723 493.991 45.8371 494.278 45.9545C494.566 46.072 494.89 46.1307 495.25 46.1307C495.625 46.1307 495.956 46.0644 496.244 45.9318C496.532 45.7992 496.758 45.6155 496.92 45.3807C497.083 45.1458 497.165 44.875 497.165 44.5682C497.165 44.2576 497.078 43.983 496.903 43.7443C496.733 43.5019 496.487 43.3125 496.165 43.1761C495.847 43.0398 495.468 42.9716 495.028 42.9716H493.943V41.1648H495.028C495.4 41.1648 495.727 41.1004 496.011 40.9716C496.299 40.8428 496.523 40.6648 496.682 40.4375C496.841 40.2064 496.92 39.9375 496.92 39.6307C496.92 39.339 496.85 39.0833 496.71 38.8636C496.574 38.6402 496.381 38.4659 496.131 38.3409C495.884 38.2159 495.597 38.1534 495.267 38.1534C494.934 38.1534 494.629 38.214 494.352 38.3352C494.076 38.4527 493.854 38.6212 493.688 38.8409C493.521 39.0606 493.432 39.3182 493.42 39.6136H491.062C491.074 38.9432 491.265 38.3523 491.636 37.8409C492.008 37.3295 492.508 36.9299 493.136 36.642C493.769 36.3504 494.483 36.2045 495.278 36.2045C496.081 36.2045 496.784 36.3504 497.386 36.642C497.989 36.9337 498.456 37.3277 498.79 37.8239C499.127 38.3163 499.294 38.8693 499.29 39.483C499.294 40.1345 499.091 40.678 498.682 41.1136C498.277 41.5492 497.748 41.8258 497.097 41.9432V42.0341C497.953 42.1439 498.604 42.4413 499.051 42.9261C499.502 43.4072 499.725 44.0095 499.722 44.733C499.725 45.3958 499.534 45.9848 499.148 46.5C498.765 47.0152 498.237 47.4205 497.562 47.7159C496.888 48.0114 496.116 48.1591 495.244 48.1591ZM506.053 48.2557C505.075 48.2519 504.234 48.0114 503.53 47.5341C502.829 47.0568 502.289 46.3655 501.911 45.4602C501.536 44.5549 501.35 43.4659 501.354 42.1932C501.354 40.9242 501.541 39.8428 501.916 38.9489C502.295 38.0549 502.835 37.375 503.536 36.9091C504.24 36.4394 505.079 36.2045 506.053 36.2045C507.026 36.2045 507.863 36.4394 508.564 36.9091C509.268 37.3788 509.81 38.0606 510.189 38.9545C510.568 39.8447 510.755 40.9242 510.751 42.1932C510.751 43.4697 510.562 44.5606 510.183 45.4659C509.808 46.3712 509.27 47.0625 508.57 47.5398C507.869 48.017 507.03 48.2557 506.053 48.2557ZM506.053 46.2159C506.719 46.2159 507.251 45.8807 507.649 45.2102C508.047 44.5398 508.244 43.5341 508.24 42.1932C508.24 41.3106 508.149 40.5758 507.967 39.9886C507.789 39.4015 507.536 38.9602 507.206 38.6648C506.88 38.3693 506.496 38.2216 506.053 38.2216C505.39 38.2216 504.859 38.553 504.462 39.2159C504.064 39.8788 503.863 40.8712 503.859 42.1932C503.859 43.0871 503.948 43.8333 504.126 44.4318C504.308 45.0265 504.564 45.4735 504.893 45.7727C505.223 46.0682 505.609 46.2159 506.053 46.2159Z" fill="#232325"/>
<path d="M603.006 36.3636V48H600.545V38.6989H600.477L597.812 40.3693V38.1875L600.693 36.3636H603.006ZM609.982 36.2045C610.58 36.2045 611.156 36.3049 611.709 36.5057C612.266 36.7064 612.762 37.0265 613.197 37.4659C613.637 37.9053 613.983 38.4886 614.237 39.2159C614.495 39.9394 614.625 40.8277 614.629 41.8807C614.629 42.8693 614.518 43.7519 614.294 44.5284C614.074 45.3011 613.758 45.9583 613.345 46.5C612.932 47.0417 612.434 47.4545 611.851 47.7386C611.268 48.0189 610.616 48.1591 609.896 48.1591C609.12 48.1591 608.434 48.0095 607.839 47.7102C607.245 47.4072 606.766 46.9962 606.402 46.4773C606.042 45.9545 605.824 45.3674 605.749 44.7159H608.175C608.269 45.1402 608.468 45.4697 608.771 45.7045C609.074 45.9356 609.449 46.0511 609.896 46.0511C610.654 46.0511 611.23 45.7216 611.624 45.0625C612.018 44.3996 612.216 43.4924 612.22 42.3409H612.141C611.966 42.6818 611.732 42.9754 611.436 43.2216C611.141 43.464 610.802 43.6515 610.419 43.7841C610.04 43.9167 609.637 43.983 609.209 43.983C608.523 43.983 607.911 43.822 607.374 43.5C606.836 43.178 606.411 42.7348 606.101 42.1705C605.79 41.6061 605.635 40.9621 605.635 40.2386C605.631 39.4583 605.811 38.7633 606.175 38.1534C606.538 37.5436 607.046 37.0663 607.697 36.7216C608.353 36.3731 609.114 36.2008 609.982 36.2045ZM609.999 38.1364C609.616 38.1364 609.275 38.2273 608.976 38.4091C608.68 38.5909 608.446 38.8352 608.271 39.142C608.101 39.4489 608.018 39.7917 608.021 40.1705C608.021 40.553 608.105 40.8977 608.271 41.2045C608.442 41.5076 608.673 41.75 608.964 41.9318C609.26 42.1098 609.597 42.1989 609.976 42.1989C610.26 42.1989 610.523 42.1458 610.766 42.0398C611.008 41.9337 611.218 41.7879 611.396 41.6023C611.578 41.4129 611.72 41.1951 611.822 40.9489C611.925 40.7027 611.976 40.4413 611.976 40.1648C611.972 39.7973 611.885 39.4602 611.714 39.1534C611.544 38.8466 611.309 38.6004 611.01 38.4148C610.711 38.2292 610.374 38.1364 609.999 38.1364Z" fill="#232325"/>
<path d="M36.3253 91.1491C35.5398 91.1491 34.8636 90.9901 34.2969 90.6719C33.7334 90.3504 33.2992 89.8963 32.9943 89.3097C32.6894 88.7197 32.5369 88.022 32.5369 87.2166C32.5369 86.4311 32.6894 85.7417 32.9943 85.1484C33.2992 84.5552 33.7285 84.0928 34.282 83.7614C34.8388 83.4299 35.4917 83.2642 36.2408 83.2642C36.7446 83.2642 37.2135 83.3454 37.6477 83.5078C38.0852 83.6669 38.4664 83.9072 38.7912 84.2287C39.1193 84.5502 39.3745 84.9545 39.5568 85.4418C39.7391 85.9257 39.8303 86.4924 39.8303 87.142V87.7237H33.3821V86.4112H37.8366C37.8366 86.1063 37.7704 85.8362 37.6378 85.6009C37.5052 85.3655 37.3213 85.1816 37.0859 85.049C36.8539 84.9131 36.5838 84.8452 36.2756 84.8452C35.9541 84.8452 35.669 84.9197 35.4205 85.0689C35.1752 85.2147 34.983 85.4119 34.8438 85.6605C34.7045 85.9058 34.6333 86.1792 34.63 86.4808V87.7287C34.63 88.1065 34.6996 88.433 34.8388 88.7081C34.9813 88.9832 35.1818 89.1953 35.4403 89.3445C35.6989 89.4936 36.0054 89.5682 36.3601 89.5682C36.5954 89.5682 36.8108 89.535 37.0064 89.4688C37.2019 89.4025 37.3693 89.303 37.5085 89.1705C37.6477 89.0379 37.7538 88.8755 37.8267 88.6832L39.7855 88.8125C39.6861 89.2831 39.4822 89.6941 39.174 90.0455C38.8691 90.3935 38.4747 90.6652 37.9908 90.8608C37.5102 91.053 36.955 91.1491 36.3253 91.1491ZM43.3303 86.5852V91H41.2124V83.3636H43.2308V84.7109H43.3203C43.4893 84.2668 43.7727 83.9155 44.1705 83.657C44.5682 83.3951 45.0504 83.2642 45.6172 83.2642C46.1475 83.2642 46.6098 83.3802 47.0043 83.6122C47.3987 83.8442 47.7053 84.1757 47.924 84.6065C48.1428 85.0341 48.2521 85.5445 48.2521 86.1378V91H46.1342V86.5156C46.1375 86.0483 46.0182 85.6837 45.7763 85.4219C45.5343 85.1567 45.2012 85.0241 44.777 85.0241C44.492 85.0241 44.2401 85.0855 44.0213 85.2081C43.8059 85.3307 43.6368 85.5097 43.5142 85.745C43.3949 85.977 43.3336 86.2571 43.3303 86.5852ZM53.9831 83.3636V84.9545H49.3844V83.3636H53.9831ZM50.4284 81.5341H52.5463V88.6534C52.5463 88.849 52.5762 89.0014 52.6358 89.1108C52.6955 89.2169 52.7783 89.2914 52.8844 89.3345C52.9938 89.3776 53.1197 89.3991 53.2623 89.3991C53.3617 89.3991 53.4611 89.3909 53.5605 89.3743C53.66 89.3544 53.7362 89.3395 53.7892 89.3295L54.1223 90.9055C54.0163 90.9387 53.8671 90.9768 53.6749 91.0199C53.4827 91.0663 53.249 91.0945 52.9739 91.1044C52.4635 91.1243 52.016 91.0563 51.6316 90.9006C51.2504 90.7448 50.9538 90.5028 50.7417 90.1747C50.5295 89.8466 50.4251 89.4323 50.4284 88.9318V81.5341ZM58.7608 91.1491C57.9753 91.1491 57.2992 90.9901 56.7324 90.6719C56.169 90.3504 55.7348 89.8963 55.4299 89.3097C55.1249 88.7197 54.9725 88.022 54.9725 87.2166C54.9725 86.4311 55.1249 85.7417 55.4299 85.1484C55.7348 84.5552 56.164 84.0928 56.7175 83.7614C57.2743 83.4299 57.9273 83.2642 58.6763 83.2642C59.1801 83.2642 59.6491 83.3454 60.0833 83.5078C60.5208 83.6669 60.9019 83.9072 61.2267 84.2287C61.5549 84.5502 61.8101 84.9545 61.9924 85.4418C62.1747 85.9257 62.2658 86.4924 62.2658 87.142V87.7237H55.8176V86.4112H60.2722C60.2722 86.1063 60.2059 85.8362 60.0733 85.6009C59.9408 85.3655 59.7568 85.1816 59.5215 85.049C59.2895 84.9131 59.0194 84.8452 58.7111 84.8452C58.3896 84.8452 58.1046 84.9197 57.856 85.0689C57.6107 85.2147 57.4185 85.4119 57.2793 85.6605C57.1401 85.9058 57.0688 86.1792 57.0655 86.4808V87.7287C57.0655 88.1065 57.1351 88.433 57.2743 88.7081C57.4168 88.9832 57.6174 89.1953 57.8759 89.3445C58.1344 89.4936 58.441 89.5682 58.7956 89.5682C59.031 89.5682 59.2464 89.535 59.4419 89.4688C59.6375 89.4025 59.8049 89.303 59.9441 89.1705C60.0833 89.0379 60.1893 88.8755 60.2623 88.6832L62.2211 88.8125C62.1216 89.2831 61.9178 89.6941 61.6096 90.0455C61.3046 90.3935 60.9102 90.6652 60.4263 90.8608C59.9457 91.053 59.3906 91.1491 58.7608 91.1491ZM63.6479 91V83.3636H65.7012V84.696H65.7807C65.9199 84.2221 66.1536 83.8641 66.4817 83.6222C66.8098 83.3769 67.1877 83.2543 67.6152 83.2543C67.7213 83.2543 67.8356 83.2609 67.9583 83.2741C68.0809 83.2874 68.1886 83.3056 68.2814 83.3288V85.2081C68.182 85.1783 68.0444 85.1518 67.8688 85.1286C67.6931 85.1054 67.5324 85.0938 67.3865 85.0938C67.075 85.0938 66.7966 85.1617 66.5513 85.2976C66.3094 85.4302 66.1171 85.6158 65.9746 85.8544C65.8354 86.093 65.7658 86.3681 65.7658 86.6797V91H63.6479ZM73.821 83.3636V84.9545H69.2223V83.3636H73.821ZM70.2663 81.5341H72.3842V88.6534C72.3842 88.849 72.4141 89.0014 72.4737 89.1108C72.5334 89.2169 72.6162 89.2914 72.7223 89.3345C72.8317 89.3776 72.9576 89.3991 73.1001 89.3991C73.1996 89.3991 73.299 89.3909 73.3984 89.3743C73.4979 89.3544 73.5741 89.3395 73.6271 89.3295L73.9602 90.9055C73.8542 90.9387 73.705 90.9768 73.5128 91.0199C73.3205 91.0663 73.0869 91.0945 72.8118 91.1044C72.3014 91.1243 71.8539 91.0563 71.4695 90.9006C71.0883 90.7448 70.7917 90.5028 70.5795 90.1747C70.3674 89.8466 70.263 89.4323 70.2663 88.9318V81.5341ZM77.3782 91.1442C76.891 91.1442 76.4568 91.0597 76.0756 90.8906C75.6945 90.7183 75.3929 90.4647 75.1708 90.13C74.9521 89.7919 74.8427 89.371 74.8427 88.8672C74.8427 88.4429 74.9206 88.0866 75.0763 87.7983C75.2321 87.5099 75.4442 87.2779 75.7127 87.1023C75.9812 86.9266 76.2861 86.794 76.6275 86.7045C76.9722 86.6151 77.3335 86.5521 77.7113 86.5156C78.1554 86.4692 78.5134 86.4261 78.7852 86.3864C79.0569 86.3433 79.2541 86.2803 79.3768 86.1974C79.4994 86.1146 79.5607 85.992 79.5607 85.8295V85.7997C79.5607 85.4848 79.4613 85.2412 79.2624 85.0689C79.0669 84.8965 78.7885 84.8104 78.4272 84.8104C78.046 84.8104 77.7428 84.8949 77.5174 85.0639C77.292 85.2296 77.1429 85.4384 77.07 85.6903L75.1112 85.5312C75.2106 85.0672 75.4061 84.6662 75.6978 84.3281C75.9895 83.9867 76.3656 83.7249 76.8263 83.5426C77.2904 83.357 77.8273 83.2642 78.4371 83.2642C78.8614 83.2642 79.2674 83.3139 79.6552 83.4134C80.0463 83.5128 80.3926 83.6669 80.6942 83.8757C80.9992 84.0845 81.2395 84.353 81.4151 84.6811C81.5908 85.0059 81.6786 85.3954 81.6786 85.8494V91H79.6701V89.9411H79.6104C79.4878 90.1797 79.3237 90.3902 79.1183 90.5724C78.9128 90.7514 78.6658 90.8923 78.3775 90.995C78.0891 91.0945 77.756 91.1442 77.3782 91.1442ZM77.9847 89.6825C78.2963 89.6825 78.5714 89.6212 78.81 89.4986C79.0487 89.3726 79.2359 89.2036 79.3718 88.9915C79.5077 88.7794 79.5756 88.5391 79.5756 88.2706V87.4602C79.5094 87.5033 79.4182 87.5431 79.3022 87.5795C79.1895 87.6127 79.0619 87.6442 78.9194 87.674C78.7769 87.7005 78.6344 87.7254 78.4918 87.7486C78.3493 87.7685 78.2201 87.7867 78.104 87.8033C77.8555 87.8397 77.6384 87.8977 77.4528 87.9773C77.2672 88.0568 77.123 88.1645 77.0202 88.3004C76.9175 88.433 76.8661 88.5987 76.8661 88.7976C76.8661 89.0859 76.9705 89.3063 77.1793 89.4588C77.3915 89.608 77.6599 89.6825 77.9847 89.6825ZM83.3217 91V83.3636H85.4396V91H83.3217ZM84.3857 82.3793C84.0708 82.3793 83.8007 82.2749 83.5753 82.0661C83.3532 81.8539 83.2422 81.6004 83.2422 81.3054C83.2422 81.0137 83.3532 80.7635 83.5753 80.5547C83.8007 80.3426 84.0708 80.2365 84.3857 80.2365C84.7005 80.2365 84.969 80.3426 85.1911 80.5547C85.4164 80.7635 85.5291 81.0137 85.5291 81.3054C85.5291 81.6004 85.4164 81.8539 85.1911 82.0661C84.969 82.2749 84.7005 82.3793 84.3857 82.3793ZM89.2541 86.5852V91H87.1362V83.3636H89.1547V84.7109H89.2441C89.4132 84.2668 89.6966 83.9155 90.0943 83.657C90.492 83.3951 90.9743 83.2642 91.541 83.2642C92.0713 83.2642 92.5337 83.3802 92.9281 83.6122C93.3225 83.8442 93.6291 84.1757 93.8478 84.6065C94.0666 85.0341 94.176 85.5445 94.176 86.1378V91H92.0581V86.5156C92.0614 86.0483 91.9421 85.6837 91.7001 85.4219C91.4582 85.1567 91.1251 85.0241 90.7008 85.0241C90.4158 85.0241 90.1639 85.0855 89.9451 85.2081C89.7297 85.3307 89.5607 85.5097 89.438 85.745C89.3187 85.977 89.2574 86.2571 89.2541 86.5852ZM95.8452 91V83.3636H97.8636V84.7109H97.9531C98.1122 84.2635 98.3774 83.9105 98.7486 83.652C99.1198 83.3935 99.5639 83.2642 100.081 83.2642C100.605 83.2642 101.05 83.3951 101.418 83.657C101.786 83.9155 102.031 84.2668 102.154 84.7109H102.234C102.389 84.2734 102.671 83.9238 103.079 83.6619C103.49 83.3968 103.975 83.2642 104.536 83.2642C105.248 83.2642 105.826 83.4912 106.271 83.9453C106.718 84.3961 106.942 85.0357 106.942 85.8643V91H104.829V86.282C104.829 85.8577 104.716 85.5395 104.491 85.3274C104.265 85.1153 103.984 85.0092 103.646 85.0092C103.261 85.0092 102.961 85.1319 102.746 85.3771C102.53 85.6191 102.423 85.9389 102.423 86.3366V91H100.369V86.2372C100.369 85.8627 100.262 85.5644 100.046 85.3423C99.834 85.1203 99.554 85.0092 99.206 85.0092C98.9706 85.0092 98.7585 85.0689 98.5696 85.1882C98.384 85.3042 98.2365 85.4683 98.1271 85.6804C98.0178 85.8892 97.9631 86.1345 97.9631 86.4162V91H95.8452ZM112.095 91.1491C111.309 91.1491 110.633 90.9901 110.066 90.6719C109.503 90.3504 109.069 89.8963 108.764 89.3097C108.459 88.7197 108.306 88.022 108.306 87.2166C108.306 86.4311 108.459 85.7417 108.764 85.1484C109.069 84.5552 109.498 84.0928 110.051 83.7614C110.608 83.4299 111.261 83.2642 112.01 83.2642C112.514 83.2642 112.983 83.3454 113.417 83.5078C113.855 83.6669 114.236 83.9072 114.561 84.2287C114.889 84.5502 115.144 84.9545 115.326 85.4418C115.509 85.9257 115.6 86.4924 115.6 87.142V87.7237H109.152V86.4112H113.606C113.606 86.1063 113.54 85.8362 113.407 85.6009C113.275 85.3655 113.091 85.1816 112.855 85.049C112.623 84.9131 112.353 84.8452 112.045 84.8452C111.724 84.8452 111.439 84.9197 111.19 85.0689C110.945 85.2147 110.752 85.4119 110.613 85.6605C110.474 85.9058 110.403 86.1792 110.4 86.4808V87.7287C110.4 88.1065 110.469 88.433 110.608 88.7081C110.751 88.9832 110.951 89.1953 111.21 89.3445C111.468 89.4936 111.775 89.5682 112.13 89.5682C112.365 89.5682 112.58 89.535 112.776 89.4688C112.971 89.4025 113.139 89.303 113.278 89.1705C113.417 89.0379 113.523 88.8755 113.596 88.6832L115.555 88.8125C115.456 89.2831 115.252 89.6941 114.944 90.0455C114.639 90.3935 114.244 90.6652 113.76 90.8608C113.28 91.053 112.725 91.1491 112.095 91.1491ZM119.1 86.5852V91H116.982V83.3636H119V84.7109H119.09C119.259 84.2668 119.542 83.9155 119.94 83.657C120.338 83.3951 120.82 83.2642 121.387 83.2642C121.917 83.2642 122.379 83.3802 122.774 83.6122C123.168 83.8442 123.475 84.1757 123.694 84.6065C123.912 85.0341 124.022 85.5445 124.022 86.1378V91H121.904V86.5156C121.907 86.0483 121.788 85.6837 121.546 85.4219C121.304 85.1567 120.971 85.0241 120.547 85.0241C120.261 85.0241 120.01 85.0855 119.791 85.2081C119.575 85.3307 119.406 85.5097 119.284 85.745C119.164 85.977 119.103 86.2571 119.1 86.5852ZM129.753 83.3636V84.9545H125.154V83.3636H129.753ZM126.198 81.5341H128.316V88.6534C128.316 88.849 128.346 89.0014 128.405 89.1108C128.465 89.2169 128.548 89.2914 128.654 89.3345C128.763 89.3776 128.889 89.3991 129.032 89.3991C129.131 89.3991 129.231 89.3909 129.33 89.3743C129.43 89.3544 129.506 89.3395 129.559 89.3295L129.892 90.9055C129.786 90.9387 129.637 90.9768 129.444 91.0199C129.252 91.0663 129.019 91.0945 128.743 91.1044C128.233 91.1243 127.786 91.0563 127.401 90.9006C127.02 90.7448 126.723 90.5028 126.511 90.1747C126.299 89.8466 126.195 89.4323 126.198 88.9318V81.5341Z" fill="#666666"/>
<path d="M307.408 83.7464C307.369 83.3454 307.198 83.0339 306.896 82.8118C306.595 82.5897 306.185 82.4787 305.668 82.4787C305.317 82.4787 305.02 82.5284 304.778 82.6278C304.536 82.724 304.351 82.8582 304.222 83.0305C304.096 83.2029 304.033 83.3984 304.033 83.6172C304.026 83.7995 304.064 83.9586 304.147 84.0945C304.233 84.2304 304.351 84.348 304.5 84.4474C304.649 84.5436 304.821 84.6281 305.017 84.701C305.213 84.7706 305.421 84.8303 305.643 84.88L306.558 85.0987C307.002 85.1982 307.41 85.3307 307.781 85.4964C308.152 85.6622 308.474 85.866 308.746 86.108C309.018 86.3499 309.228 86.6349 309.377 86.9631C309.53 87.2912 309.607 87.6674 309.611 88.0916C309.607 88.7147 309.448 89.255 309.134 89.7124C308.822 90.1664 308.371 90.5194 307.781 90.7713C307.195 91.0199 306.487 91.1442 305.658 91.1442C304.836 91.1442 304.121 91.0182 303.511 90.7663C302.904 90.5144 302.43 90.1416 302.089 89.6477C301.751 89.1506 301.573 88.5357 301.557 87.8033H303.64C303.663 88.1446 303.761 88.4297 303.933 88.6584C304.109 88.8838 304.343 89.0545 304.634 89.1705C304.929 89.2831 305.262 89.3395 305.634 89.3395C305.998 89.3395 306.315 89.2865 306.583 89.1804C306.855 89.0743 307.065 88.9268 307.214 88.7379C307.364 88.549 307.438 88.3319 307.438 88.0866C307.438 87.858 307.37 87.6657 307.234 87.5099C307.102 87.3542 306.906 87.2216 306.648 87.1122C306.393 87.0028 306.079 86.9034 305.708 86.8139L304.599 86.5355C303.741 86.3267 303.063 86.0002 302.566 85.5561C302.069 85.112 301.822 84.5137 301.825 83.7614C301.822 83.1449 301.986 82.6063 302.317 82.1456C302.652 81.6849 303.111 81.3253 303.695 81.0668C304.278 80.8082 304.941 80.679 305.683 80.679C306.439 80.679 307.098 80.8082 307.662 81.0668C308.229 81.3253 308.67 81.6849 308.984 82.1456C309.299 82.6063 309.462 83.1399 309.472 83.7464H307.408ZM314.469 91.1491C313.697 91.1491 313.029 90.9851 312.466 90.657C311.906 90.3255 311.473 89.8648 311.168 89.2749C310.863 88.6816 310.711 87.9938 310.711 87.2116C310.711 86.4228 310.863 85.7334 311.168 85.1435C311.473 84.5502 311.906 84.0895 312.466 83.7614C313.029 83.4299 313.697 83.2642 314.469 83.2642C315.242 83.2642 315.908 83.4299 316.468 83.7614C317.031 84.0895 317.465 84.5502 317.77 85.1435C318.075 85.7334 318.228 86.4228 318.228 87.2116C318.228 87.9938 318.075 88.6816 317.77 89.2749C317.465 89.8648 317.031 90.3255 316.468 90.657C315.908 90.9851 315.242 91.1491 314.469 91.1491ZM314.479 89.5085C314.831 89.5085 315.124 89.4091 315.359 89.2102C315.595 89.008 315.772 88.733 315.891 88.3849C316.014 88.0369 316.075 87.6409 316.075 87.1967C316.075 86.7526 316.014 86.3565 315.891 86.0085C315.772 85.6605 315.595 85.3854 315.359 85.1832C315.124 84.9811 314.831 84.88 314.479 84.88C314.125 84.88 313.826 84.9811 313.584 85.1832C313.346 85.3854 313.165 85.6605 313.042 86.0085C312.923 86.3565 312.863 86.7526 312.863 87.1967C312.863 87.6409 312.923 88.0369 313.042 88.3849C313.165 88.733 313.346 89.008 313.584 89.2102C313.826 89.4091 314.125 89.5085 314.479 89.5085ZM323.055 91.1491C322.273 91.1491 321.6 90.9834 321.037 90.652C320.477 90.3172 320.046 89.8532 319.744 89.2599C319.446 88.6667 319.297 87.9839 319.297 87.2116C319.297 86.4295 319.448 85.7434 319.749 85.1534C320.054 84.5601 320.487 84.0978 321.047 83.7663C321.607 83.4316 322.273 83.2642 323.045 83.2642C323.711 83.2642 324.295 83.3852 324.795 83.6271C325.296 83.8691 325.692 84.2088 325.983 84.6463C326.275 85.0838 326.436 85.5975 326.466 86.1875H324.467C324.411 85.8063 324.262 85.4998 324.02 85.2678C323.781 85.0324 323.468 84.9148 323.08 84.9148C322.752 84.9148 322.465 85.0043 322.22 85.1832C321.978 85.3589 321.789 85.6158 321.653 85.9538C321.517 86.2919 321.449 86.7012 321.449 87.1818C321.449 87.669 321.516 88.0833 321.648 88.4247C321.784 88.7661 321.975 89.0263 322.22 89.2053C322.465 89.3842 322.752 89.4737 323.08 89.4737C323.322 89.4737 323.539 89.424 323.731 89.3246C323.927 89.2251 324.088 89.081 324.214 88.892C324.343 88.6998 324.427 88.4695 324.467 88.201H326.466C326.433 88.7843 326.273 89.2981 325.988 89.7422C325.707 90.183 325.317 90.5277 324.82 90.7763C324.323 91.0249 323.735 91.1491 323.055 91.1491ZM327.822 91V83.3636H329.94V91H327.822ZM328.886 82.3793C328.571 82.3793 328.301 82.2749 328.075 82.0661C327.853 81.8539 327.742 81.6004 327.742 81.3054C327.742 81.0137 327.853 80.7635 328.075 80.5547C328.301 80.3426 328.571 80.2365 328.886 80.2365C329.201 80.2365 329.469 80.3426 329.691 80.5547C329.916 80.7635 330.029 81.0137 330.029 81.3054C330.029 81.6004 329.916 81.8539 329.691 82.0661C329.469 82.2749 329.201 82.3793 328.886 82.3793ZM333.814 91.1442C333.327 91.1442 332.892 91.0597 332.511 90.8906C332.13 90.7183 331.828 90.4647 331.606 90.13C331.388 89.7919 331.278 89.371 331.278 88.8672C331.278 88.4429 331.356 88.0866 331.512 87.7983C331.668 87.5099 331.88 87.2779 332.148 87.1023C332.417 86.9266 332.722 86.794 333.063 86.7045C333.408 86.6151 333.769 86.5521 334.147 86.5156C334.591 86.4692 334.949 86.4261 335.221 86.3864C335.492 86.3433 335.69 86.2803 335.812 86.1974C335.935 86.1146 335.996 85.992 335.996 85.8295V85.7997C335.996 85.4848 335.897 85.2412 335.698 85.0689C335.502 84.8965 335.224 84.8104 334.863 84.8104C334.482 84.8104 334.178 84.8949 333.953 85.0639C333.728 85.2296 333.578 85.4384 333.506 85.6903L331.547 85.5312C331.646 85.0672 331.842 84.6662 332.133 84.3281C332.425 83.9867 332.801 83.7249 333.262 83.5426C333.726 83.357 334.263 83.2642 334.873 83.2642C335.297 83.2642 335.703 83.3139 336.091 83.4134C336.482 83.5128 336.828 83.6669 337.13 83.8757C337.435 84.0845 337.675 84.353 337.851 84.6811C338.026 85.0059 338.114 85.3954 338.114 85.8494V91H336.106V89.9411H336.046C335.923 90.1797 335.759 90.3902 335.554 90.5724C335.348 90.7514 335.101 90.8923 334.813 90.995C334.525 91.0945 334.192 91.1442 333.814 91.1442ZM334.42 89.6825C334.732 89.6825 335.007 89.6212 335.246 89.4986C335.484 89.3726 335.671 89.2036 335.807 88.9915C335.943 88.7794 336.011 88.5391 336.011 88.2706V87.4602C335.945 87.5033 335.854 87.5431 335.738 87.5795C335.625 87.6127 335.497 87.6442 335.355 87.674C335.212 87.7005 335.07 87.7254 334.927 87.7486C334.785 87.7685 334.656 87.7867 334.54 87.8033C334.291 87.8397 334.074 87.8977 333.888 87.9773C333.703 88.0568 333.559 88.1645 333.456 88.3004C333.353 88.433 333.302 88.5987 333.302 88.7976C333.302 89.0859 333.406 89.3063 333.615 89.4588C333.827 89.608 334.095 89.6825 334.42 89.6825ZM341.875 80.8182V91H339.757V80.8182H341.875Z" fill="#666666"/>
<path d="M490.885 91V80.8182H497.626V82.593H493.038V85.0192H497.179V86.794H493.038V91H490.885ZM499.035 91V83.3636H501.153V91H499.035ZM500.099 82.3793C499.784 82.3793 499.514 82.2749 499.288 82.0661C499.066 81.8539 498.955 81.6004 498.955 81.3054C498.955 81.0137 499.066 80.7635 499.288 80.5547C499.514 80.3426 499.784 80.2365 500.099 80.2365C500.413 80.2365 500.682 80.3426 500.904 80.5547C501.129 80.7635 501.242 81.0137 501.242 81.3054C501.242 81.6004 501.129 81.8539 500.904 82.0661C500.682 82.2749 500.413 82.3793 500.099 82.3793ZM504.967 86.5852V91H502.849V83.3636H504.868V84.7109H504.957C505.126 84.2668 505.409 83.9155 505.807 83.657C506.205 83.3951 506.687 83.2642 507.254 83.2642C507.784 83.2642 508.247 83.3802 508.641 83.6122C509.035 83.8442 509.342 84.1757 509.561 84.6065C509.779 85.0341 509.889 85.5445 509.889 86.1378V91H507.771V86.5156C507.774 86.0483 507.655 85.6837 507.413 85.4219C507.171 85.1567 506.838 85.0241 506.414 85.0241C506.129 85.0241 505.877 85.0855 505.658 85.2081C505.443 85.3307 505.274 85.5097 505.151 85.745C505.032 85.977 504.97 86.2571 504.967 86.5852ZM513.736 91.1442C513.248 91.1442 512.814 91.0597 512.433 90.8906C512.052 90.7183 511.75 90.4647 511.528 90.13C511.309 89.7919 511.2 89.371 511.2 88.8672C511.2 88.4429 511.278 88.0866 511.434 87.7983C511.59 87.5099 511.802 87.2779 512.07 87.1023C512.339 86.9266 512.644 86.794 512.985 86.7045C513.33 86.6151 513.691 86.5521 514.069 86.5156C514.513 86.4692 514.871 86.4261 515.143 86.3864C515.414 86.3433 515.612 86.2803 515.734 86.1974C515.857 86.1146 515.918 85.992 515.918 85.8295V85.7997C515.918 85.4848 515.819 85.2412 515.62 85.0689C515.424 84.8965 515.146 84.8104 514.785 84.8104C514.403 84.8104 514.1 84.8949 513.875 85.0639C513.649 85.2296 513.5 85.4384 513.427 85.6903L511.469 85.5312C511.568 85.0672 511.764 84.6662 512.055 84.3281C512.347 83.9867 512.723 83.7249 513.184 83.5426C513.648 83.357 514.185 83.2642 514.795 83.2642C515.219 83.2642 515.625 83.3139 516.013 83.4134C516.404 83.5128 516.75 83.6669 517.052 83.8757C517.357 84.0845 517.597 84.353 517.773 84.6811C517.948 85.0059 518.036 85.3954 518.036 85.8494V91H516.028V89.9411H515.968C515.845 90.1797 515.681 90.3902 515.476 90.5724C515.27 90.7514 515.023 90.8923 514.735 90.995C514.447 91.0945 514.113 91.1442 513.736 91.1442ZM514.342 89.6825C514.654 89.6825 514.929 89.6212 515.167 89.4986C515.406 89.3726 515.593 89.2036 515.729 88.9915C515.865 88.7794 515.933 88.5391 515.933 88.2706V87.4602C515.867 87.5033 515.776 87.5431 515.66 87.5795C515.547 87.6127 515.419 87.6442 515.277 87.674C515.134 87.7005 514.992 87.7254 514.849 87.7486C514.707 87.7685 514.577 87.7867 514.461 87.8033C514.213 87.8397 513.996 87.8977 513.81 87.9773C513.625 88.0568 513.48 88.1645 513.378 88.3004C513.275 88.433 513.224 88.5987 513.224 88.7976C513.224 89.0859 513.328 89.3063 513.537 89.4588C513.749 89.608 514.017 89.6825 514.342 89.6825ZM521.797 86.5852V91H519.679V83.3636H521.698V84.7109H521.787C521.956 84.2668 522.24 83.9155 522.637 83.657C523.035 83.3951 523.517 83.2642 524.084 83.2642C524.614 83.2642 525.077 83.3802 525.471 83.6122C525.865 83.8442 526.172 84.1757 526.391 84.6065C526.61 85.0341 526.719 85.5445 526.719 86.1378V91H524.601V86.5156C524.604 86.0483 524.485 85.6837 524.243 85.4219C524.001 85.1567 523.668 85.0241 523.244 85.0241C522.959 85.0241 522.707 85.0855 522.488 85.2081C522.273 85.3307 522.104 85.5097 521.981 85.745C521.862 85.977 521.8 86.2571 521.797 86.5852ZM531.838 91.1491C531.056 91.1491 530.383 90.9834 529.82 90.652C529.26 90.3172 528.829 89.8532 528.527 89.2599C528.229 88.6667 528.08 87.9839 528.08 87.2116C528.08 86.4295 528.231 85.7434 528.532 85.1534C528.837 84.5601 529.27 84.0978 529.83 83.7663C530.39 83.4316 531.056 83.2642 531.828 83.2642C532.495 83.2642 533.078 83.3852 533.578 83.6271C534.079 83.8691 534.475 84.2088 534.767 84.6463C535.058 85.0838 535.219 85.5975 535.249 86.1875H533.25C533.194 85.8063 533.045 85.4998 532.803 85.2678C532.564 85.0324 532.251 84.9148 531.863 84.9148C531.535 84.9148 531.248 85.0043 531.003 85.1832C530.761 85.3589 530.572 85.6158 530.436 85.9538C530.301 86.2919 530.233 86.7012 530.233 87.1818C530.233 87.669 530.299 88.0833 530.431 88.4247C530.567 88.7661 530.758 89.0263 531.003 89.2053C531.248 89.3842 531.535 89.4737 531.863 89.4737C532.105 89.4737 532.322 89.424 532.515 89.3246C532.71 89.2251 532.871 89.081 532.997 88.892C533.126 88.6998 533.211 88.4695 533.25 88.201H535.249C535.216 88.7843 535.057 89.2981 534.772 89.7422C534.49 90.183 534.1 90.5277 533.603 90.7763C533.106 91.0249 532.518 91.1491 531.838 91.1491ZM540.085 91.1491C539.3 91.1491 538.623 90.9901 538.057 90.6719C537.493 90.3504 537.059 89.8963 536.754 89.3097C536.449 88.7197 536.297 88.022 536.297 87.2166C536.297 86.4311 536.449 85.7417 536.754 85.1484C537.059 84.5552 537.488 84.0928 538.042 83.7614C538.599 83.4299 539.251 83.2642 540.001 83.2642C540.504 83.2642 540.973 83.3454 541.407 83.5078C541.845 83.6669 542.226 83.9072 542.551 84.2287C542.879 84.5502 543.134 84.9545 543.317 85.4418C543.499 85.9257 543.59 86.4924 543.59 87.142V87.7237H537.142V86.4112H541.596C541.596 86.1063 541.53 85.8362 541.398 85.6009C541.265 85.3655 541.081 85.1816 540.846 85.049C540.614 84.9131 540.344 84.8452 540.035 84.8452C539.714 84.8452 539.429 84.9197 539.18 85.0689C538.935 85.2147 538.743 85.4119 538.604 85.6605C538.464 85.9058 538.393 86.1792 538.39 86.4808V87.7287C538.39 88.1065 538.459 88.433 538.599 88.7081C538.741 88.9832 538.942 89.1953 539.2 89.3445C539.459 89.4936 539.765 89.5682 540.12 89.5682C540.355 89.5682 540.571 89.535 540.766 89.4688C540.962 89.4025 541.129 89.303 541.268 89.1705C541.407 89.0379 541.514 88.8755 541.586 88.6832L543.545 88.8125C543.446 89.2831 543.242 89.6941 542.934 90.0455C542.629 90.3935 542.234 90.6652 541.751 90.8608C541.27 91.053 540.715 91.1491 540.085 91.1491Z" fill="#666666"/>
<path d="M599.64 91H597.333L600.848 80.8182H603.622L607.132 91H604.825L602.275 83.1449H602.195L599.64 91ZM599.496 86.9979H604.945V88.6783H599.496V86.9979ZM610.436 86.5852V91H608.318V83.3636H610.336V84.7109H610.426C610.595 84.2668 610.878 83.9155 611.276 83.657C611.674 83.3951 612.156 83.2642 612.723 83.2642C613.253 83.2642 613.715 83.3802 614.11 83.6122C614.504 83.8442 614.811 84.1757 615.029 84.6065C615.248 85.0341 615.358 85.5445 615.358 86.1378V91H613.24V86.5156C613.243 86.0483 613.124 85.6837 612.882 85.4219C612.64 85.1567 612.307 85.0241 611.882 85.0241C611.597 85.0241 611.346 85.0855 611.127 85.2081C610.911 85.3307 610.742 85.5097 610.62 85.745C610.5 85.977 610.439 86.2571 610.436 86.5852ZM618.061 93.8636C617.792 93.8636 617.541 93.8421 617.305 93.799C617.073 93.7592 616.881 93.7079 616.729 93.6449L617.206 92.0639C617.454 92.1402 617.678 92.1816 617.877 92.1882C618.079 92.1948 618.253 92.1484 618.399 92.049C618.548 91.9496 618.669 91.7805 618.762 91.5419L618.886 91.2188L616.147 83.3636H618.374L619.955 88.9716H620.035L621.631 83.3636H623.873L620.905 91.8253C620.762 92.2363 620.568 92.5942 620.323 92.8991C620.081 93.2074 619.774 93.4444 619.403 93.6101C619.032 93.7791 618.585 93.8636 618.061 93.8636Z" fill="#666666"/>
<defs>
<filter id="filter0_d_76_436" x="0.0382767" y="0.0382767" width="1143.92" height="84.9234" filterUnits="userSpaceOnUse" color-interpolation-filters="sRGB">
<feFlood flood-opacity="0" result="BackgroundImageFix"/>
<feColorMatrix in="SourceAlpha" type="matrix" values="0 0 0 0 0 0 0 0 0 0 0 0 0 0 0 0 0 0 127 0" result="hardAlpha"/>
<feOffset/>
<feGaussianBlur stdDeviation="7.98086"/>
<feComposite in2="hardAlpha" operator="out"/>
<feColorMatrix type="matrix" values="0 0 0 0 0 0 0 0 0 0 0 0 0 0 0 0 0 0 0.12 0"/>
<feBlend mode="normal" in2="BackgroundImageFix" result="effect1_dropShadow_76_436"/>
<feBlend mode="normal" in="SourceGraphic" in2="effect1_dropShadow_76_436" result="shape"/>
</filter>
</defs>
</svg>
