<svg xmlns:xlink="http://www.w3.org/1999/xlink" height="41" version="1.1" width="240" xmlns="http://www.w3.org/2000/svg" viewBox="0 0 240 41"><defs></defs><g><g transform="matrix(1,0,0,1,0,0)"><path d="M7.70 3.96L4.48 0.73L5.48 0.73L8.70 3.96L7.70 3.96ZM2.51 0.73L3.51 0.73L6.73 3.96L5.76 3.96L2.51 0.73ZM9.65 0.97L9.55 1.87L6.33-1.35L6.40-2.28L9.65 0.97ZM6.23-0.47L9.48 2.77L9.41 3.70L6.16 0.45L6.23-0.47ZM9.72 0.07L6.47-3.15L6.57-4.08L9.79-0.85L9.72 0.07ZM16.57 3.96L15.57 3.96L12.35 0.73L13.32 0.73L16.57 3.96ZM11.38 0.73L14.60 3.96L13.63 3.96L10.38 0.73L11.38 0.73ZM9.96-2.65L9.88-1.73L6.64-4.98L6.73-5.88L9.96-2.65ZM17.54 3.96L14.29 0.73L14.86 0.73L14.82 0.24L18.06 3.48L18.09 3.96L17.54 3.96ZM10.03-3.53L6.80-6.78L6.87-7.70L9.98-4.60L10.05-3.67L10.03-3.53ZM14.72-0.81L14.65-1.90L17.87 1.35L17.97 2.42L14.72-0.81ZM17.80 0.28L14.55-2.94L14.46-4.03L17.71-0.81L17.80 0.28ZM7.40-8.15L8.37-8.15L9.81-6.71L9.88-5.64L7.40-8.15ZM9.74-7.77L9.34-8.15L9.69-8.15L9.74-7.77ZM17.61-1.85L14.39-5.10L14.29-6.16L17.54-2.94L17.61-1.85ZM17.35-5.07L17.45-4.01L14.20-7.23L14.13-8.32L17.35-5.07ZM9.05-12.37L7.44-14.01L7.51-14.91L9.29-13.13L9.34-12.37L9.05-12.37ZM7.30-12.37L7.35-13.11L8.08-12.37L7.30-12.37ZM17.28-6.14L14.03-9.36L13.94-10.45L17.19-7.23L17.28-6.14ZM9.13-15.27L9.22-14.20L7.59-15.81L7.68-16.74L9.13-15.27ZM17.00-9.36L17.09-8.27L13.87-11.52L13.77-12.59L17.00-9.36ZM9.05-16.33L7.75-17.61L7.82-18.54L8.96-17.40L9.05-16.33ZM16.92-10.43L13.68-13.65L13.61-14.74L16.83-11.50L16.92-10.43ZM8.79-19.53L8.89-18.47L7.92-19.44L7.99-20.34L8.79-19.53ZM16.66-13.65L16.76-12.56L13.51-15.79L13.42-16.88L16.66-13.65ZM8.72-20.60L8.06-21.24L8.15-22.16L8.63-21.67L8.72-20.60ZM16.57-14.70L13.32-17.94L13.25-19.01L16.47-15.79L16.57-14.70ZM8.46-23.80L8.56-22.73L8.23-23.04L8.30-23.96L8.46-23.80ZM16.31-17.92L16.40-16.83L13.16-20.08L13.06-21.17L16.31-17.92ZM16.21-18.99L12.99-22.21L12.89-23.30L16.14-20.08L16.21-18.99ZM15.95-22.21L16.05-21.12L12.80-24.37L12.73-25.43L15.95-22.21ZM15.88-23.25L12.63-26.50L12.54-27.59L15.79-24.34L15.88-23.25ZM15.60-26.50L15.69-25.41L12.47-28.63L12.37-29.72L15.60-26.50ZM15.53-27.54L12.28-30.79L12.21-31.86L15.43-28.63L15.53-27.54ZM15.27-30.77L15.34-29.68L12.11-32.92L12.02-34.02L15.27-30.77ZM15.17-31.83L11.92-35.06L11.85-36.15L15.08-32.90L15.17-31.83ZM11.05 0L10.38-8.89L6.26-8.89L5.48 0L2.47 0L5.71-35.67L11.16-35.67L14.06 0L11.05 0ZM8.68-30.44L8.15-30.44L6.49-11.66L10.15-11.66L8.68-30.44ZM24.56-30.25L24.56-29.25L22.04-31.74L23.06-31.74L24.56-30.25ZM21.10-31.74L24.32-28.52L23.73-28.52L20.48-31.74L21.10-31.74ZM24.56-31.22L24.04-31.74L24.56-31.74L24.56-31.22ZM31.24 3.96L30.25 3.96L27.02 0.73L27.99 0.73L31.24 3.96ZM26.05 0.73L29.27 3.96L28.28 3.96L25.06 0.73L26.05 0.73ZM33.26-34.32L33.26-35.32L36.48-32.07L36.48-31.08L33.26-34.32ZM36.48-33.07L33.26-36.29L33.26-36.36L36.48-33.11L36.48-33.07ZM32.21 3.96L28.97 0.73L29.18 0.73L29.18-0.07L32.40 3.15L32.40 3.96L32.21 3.96ZM32.40 1.21L32.40 2.18L29.18-1.04L29.18-2.04L32.40 1.21ZM32.40 0.24L29.18-3.01L29.18-4.01L32.40-0.76L32.40 0.24ZM29.18-4.98L29.18-5.97L32.40-2.73L32.40-1.73L29.18-4.98ZM32.40-3.70L29.18-6.95L29.18-7.94L32.40-4.69L32.40-3.70ZM32.40-5.67L29.18-8.91L29.18-9.91L32.40-6.66L32.40-5.67ZM32.40-8.63L32.40-7.63L29.18-10.88L29.18-11.88L32.40-8.63ZM32.40-9.60L29.18-12.82L29.18-13.84L32.40-10.60L32.40-9.60ZM32.40-12.56L32.40-11.57L29.18-14.82L29.18-15.79L32.40-12.56ZM32.40-13.53L29.18-16.78L29.18-17.75L32.40-14.53L32.40-13.53ZM32.40-16.50L32.40-15.50L29.18-18.73L29.18-19.75L32.40-16.50ZM32.40-17.47L29.18-20.72L29.18-21.69L32.40-18.47L32.40-17.47ZM32.40-20.43L32.40-19.44L29.18-22.66L29.18-23.66L32.40-20.43ZM32.40-21.40L29.18-24.63L29.18-25.62L32.40-22.40L32.40-21.40ZM32.40-24.37L32.40-23.37L29.18-26.60L29.18-27.59L32.40-24.37ZM32.40-25.34L29.18-28.56L29.18-29.56L32.40-26.34L32.40-25.34ZM32.40-28.30L32.40-27.31L29.18-30.53L29.18-31.53L32.40-28.30ZM33.16-28.52L29.91-31.74L30.91-31.74L34.16-28.52L33.16-28.52ZM36.12-28.52L35.13-28.52L31.88-31.74L32.88-31.74L36.12-28.52ZM36.48-29.13L33.26-32.36L33.26-33.35L36.48-30.10L36.48-29.13ZM21.22-32.47L21.22-35.63L32.52-35.63L32.52-32.47L28.44-32.47L28.44 0L25.29 0L25.29-32.47L21.22-32.47ZM43.09-30.25L43.09-29.25L40.58-31.74L41.60-31.74L43.09-30.25ZM39.63-31.74L42.86-28.52L42.26-28.52L39.02-31.74L39.63-31.74ZM43.09-31.22L42.57-31.74L43.09-31.74L43.09-31.22ZM49.78 3.96L48.78 3.96L45.56 0.73L46.53 0.73L49.78 3.96ZM44.59 0.73L47.81 3.96L46.82 3.96L43.59 0.73L44.59 0.73ZM51.79-34.32L51.79-35.32L55.02-32.07L55.02-31.08L51.79-34.32ZM55.02-33.07L51.79-36.29L51.79-36.36L55.02-33.11L55.02-33.07ZM50.75 3.96L47.50 0.73L47.72 0.73L47.72-0.07L50.94 3.15L50.94 3.96L50.75 3.96ZM50.94 1.21L50.94 2.18L47.72-1.04L47.72-2.04L50.94 1.21ZM50.94 0.24L47.72-3.01L47.72-4.01L50.94-0.76L50.94 0.24ZM47.72-4.98L47.72-5.97L50.94-2.73L50.94-1.73L47.72-4.98ZM50.94-3.70L47.72-6.95L47.72-7.94L50.94-4.69L50.94-3.70ZM50.94-5.67L47.72-8.91L47.72-9.91L50.94-6.66L50.94-5.67ZM50.94-8.63L50.94-7.63L47.72-10.88L47.72-11.88L50.94-8.63ZM50.94-9.60L47.72-12.82L47.72-13.84L50.94-10.60L50.94-9.60ZM50.94-12.56L50.94-11.57L47.72-14.82L47.72-15.79L50.94-12.56ZM50.94-13.53L47.72-16.78L47.72-17.75L50.94-14.53L50.94-13.53ZM50.94-16.50L50.94-15.50L47.72-18.73L47.72-19.75L50.94-16.50ZM50.94-17.47L47.72-20.72L47.72-21.69L50.94-18.47L50.94-17.47ZM50.94-20.43L50.94-19.44L47.72-22.66L47.72-23.66L50.94-20.43ZM50.94-21.40L47.72-24.63L47.72-25.62L50.94-22.40L50.94-21.40ZM50.94-24.37L50.94-23.37L47.72-26.60L47.72-27.59L50.94-24.37ZM50.94-25.34L47.72-28.56L47.72-29.56L50.94-26.34L50.94-25.34ZM50.94-28.30L50.94-27.31L47.72-30.53L47.72-31.53L50.94-28.30ZM51.70-28.52L48.45-31.74L49.45-31.74L52.69-28.52L51.70-28.52ZM54.66-28.52L53.67-28.52L50.42-31.74L51.41-31.74L54.66-28.52ZM55.02-29.13L51.79-32.36L51.79-33.35L55.02-30.10L55.02-29.13ZM39.75-32.47L39.75-35.63L51.06-35.63L51.06-32.47L46.98-32.47L46.98 0L43.83 0L43.83-32.47L39.75-32.47ZM65.02-3.65L63.27-5.38L63.27-6.40L66.02-3.65L65.02-3.65ZM63.27-3.65L63.27-4.43L64.05-3.65L63.27-3.65ZM63.27-7.37L63.27-8.34L66.51-5.12L66.51-4.12L63.27-7.37ZM66.51-6.09L63.27-9.32L63.27-10.31L66.51-7.09L66.51-6.09ZM66.51-8.06L63.27-11.28L63.27-12.28L66.51-9.05L66.51-8.06ZM66.51-11.02L66.51-10.03L63.27-13.27L63.27-14.25L66.51-11.02ZM66.51-11.99L63.27-15.22L63.27-15.79L63.72-15.79L66.94-12.54L66.51-12.54L66.51-11.99ZM68.91-12.54L67.91-12.54L64.69-15.79L65.68-15.79L68.91-12.54ZM69.88-12.54L66.66-15.79L67.44-15.79L67.44-15.98L70.69-12.75L70.69-12.54L69.88-12.54ZM70.69-14.72L70.69-13.70L67.44-16.95L67.44-17.94L70.69-14.72ZM70.69-15.69L67.44-18.92L67.44-19.91L70.69-16.66L70.69-15.69ZM62.51 3.96L59.26 0.73L60.26 0.73L63.50 3.96L62.51 3.96ZM67.41 3.96L66.44 3.96L63.19 0.73L64.19 0.73L67.41 3.96ZM62.22 0.73L65.47 3.96L64.47 3.96L61.23 0.73L62.22 0.73ZM68.39 3.96L65.16 0.73L66.16 0.73L69.38 3.96L68.39 3.96ZM70.69 3.96L70.35 3.96L67.13 0.73L67.44 0.73L67.44 0.05L70.69 3.29L70.69 3.96ZM70.69 2.32L67.44-0.92L67.44-1.92L70.69 1.33L70.69 2.32ZM70.69-0.40L70.69 0.36L67.44-2.89L67.44-3.65L70.69-0.40ZM64.95-20.15L63.95-20.15L63.27-20.81L63.27-21.83L64.95-20.15ZM65.92-20.15L63.27-22.80L63.27-23.78L66.51-20.55L66.51-20.15L65.92-20.15ZM66.51-22.52L66.51-21.52L63.27-24.75L63.27-25.74L66.51-22.52ZM66.51-23.49L63.27-26.71L63.27-27.71L66.51-24.49L66.51-23.49ZM66.51-26.45L66.51-25.46L63.27-28.68L63.27-29.68L66.51-26.45ZM66.51-27.43L63.27-30.65L63.27-31.64L66.51-28.42L66.51-27.43ZM68.08-28.80L67.08-28.80L63.86-32.05L64.85-32.05L68.08-28.80ZM69.05-28.80L65.80-32.05L66.80-32.05L70.05-28.80L69.05-28.80ZM70.69-30.15L70.69-29.13L67.44-32.38L67.44-33.38L70.69-30.15ZM70.69-31.10L67.44-34.35L67.44-35.34L70.69-32.10L70.69-31.10ZM70.69-33.16L70.69-33.07L67.44-36.31L67.44-36.41L70.69-33.16ZM59.38 0L59.38-35.67L66.70-35.67L66.70-32.76L62.53-32.76L62.53-19.41L66.70-19.41L66.70-16.50L62.53-16.50L62.53-2.92L66.70-2.92L66.70 0L59.38 0ZM81.00 3.96L77.77 0.73L78.77 0.73L81.99 3.96L81.00 3.96ZM75.81 0.73L76.80 0.73L80.02 3.96L79.05 3.96L75.81 0.73ZM85.93 3.96L84.93 3.96L81.71 0.73L82.70 0.73L85.93 3.96ZM79.86-0.14L83.08 3.08L83.08 3.96L82.96 3.96L79.74 0.73L79.86 0.73L79.86-0.14ZM81.30 0.31L79.86-1.11L79.86-2.11L81.19-0.78L81.30 0.31ZM87.82-34.44L87.82-35.44L91.05-32.21L91.05-31.19L87.82-34.44ZM86.90 3.96L83.68 0.73L84.67 0.73L87.89 3.96L86.90 3.96ZM80.97-2.96L81.09-1.85L79.86-3.08L79.86-4.08L80.97-2.96ZM89.86 3.96L88.87 3.96L85.64 0.73L86.61 0.73L89.86 3.96ZM80.88-4.03L79.86-5.05L79.86-6.04L80.76-5.14L80.88-4.03ZM90.83 3.96L87.59 0.73L87.82 0.73L87.82-0.05L91.05 3.18L91.05 3.96L90.83 3.96ZM80.55-7.32L80.66-6.21L79.86-7.02L79.86-8.01L80.55-7.32ZM87.82-1.02L87.82-2.01L91.05 1.23L91.05 2.23L87.82-1.02ZM91.05 0.26L87.82-2.99L87.82-3.98L91.05-0.73L91.05 0.26ZM79.86-9.98L80.33-9.48L80.45-8.39L79.86-8.98L79.86-9.98ZM80.12-11.66L80.24-10.57L79.86-10.93L79.86-11.95L80.12-11.66ZM91.05-1.71L87.82-4.95L87.82-5.95L91.05-2.70L91.05-1.71ZM79.91-13.84L80.02-12.75L79.86-12.89L79.86-13.91L79.91-13.84ZM91.05-4.67L91.05-3.67L87.82-6.92L87.82-7.92L91.05-4.67ZM91.05-5.64L87.82-8.89L87.82-9.88L91.05-6.64L91.05-5.64ZM91.05-8.60L91.05-7.61L87.82-10.86L87.82-11.85L91.05-8.60ZM91.05-9.58L87.82-12.82L87.82-13.80L91.05-10.57L91.05-9.58ZM91.05-12.54L91.05-11.54L87.82-14.77L87.82-15.79L91.05-12.54ZM91.05-13.51L87.82-16.76L87.82-17.73L91.05-14.51L91.05-13.51ZM91.05-16.47L91.05-15.48L87.82-18.70L87.82-19.70L91.05-16.47ZM83.30-24.23L83.30-23.23L83.20-23.32L83.08-24.44L83.30-24.23ZM91.05-17.45L87.82-20.67L87.82-21.67L91.05-18.44L91.05-17.45ZM83.30-25.20L82.99-25.51L82.87-26.62L83.30-26.19L83.30-25.20ZM91.05-20.41L91.05-19.41L87.82-22.64L87.82-23.63L91.05-20.41ZM83.30-28.16L83.30-27.16L82.77-27.69L82.66-28.80L83.30-28.16ZM91.05-21.38L87.82-24.60L87.82-25.60L91.05-22.38L91.05-21.38ZM83.30-29.13L82.56-29.87L82.44-30.98L83.30-30.13L83.30-29.13ZM91.05-24.34L91.05-23.35L87.82-26.57L87.82-27.57L91.05-24.34ZM83.30-32.10L83.30-31.10L82.35-32.05L82.25-33.14L83.30-32.10ZM91.05-25.32L87.82-28.54L87.82-29.54L91.05-26.29L91.05-25.32ZM83.30-33.07L82.13-34.23L82.04-35.32L83.30-34.04L83.30-33.07ZM91.05-28.28L91.05-27.26L87.82-30.51L87.82-31.50L91.05-28.28ZM83.30-35.03L83.30-35.01L81.92-36.41L81.92-36.41L83.30-35.03ZM91.05-29.25L87.82-32.47L87.82-33.47L91.05-30.22L91.05-29.25ZM84.03-35.67L87.09-35.67L87.09 0L81.99 0L79.12-29.42L79.12 0L76.02 0L76.02-35.67L81.26-35.67L84.03-7.23L84.03-35.67ZM98.54-30.25L98.54-29.25L96.02-31.74L97.04-31.74L98.54-30.25ZM95.08-31.74L98.30-28.52L97.71-28.52L94.46-31.74L95.08-31.74ZM98.54-31.22L98.02-31.74L98.54-31.74L98.54-31.22ZM105.22 3.96L104.23 3.96L101.00 0.73L101.97 0.73L105.22 3.96ZM100.03 0.73L103.25 3.96L102.26 3.96L99.04 0.73L100.03 0.73ZM107.24-34.32L107.24-35.32L110.46-32.07L110.46-31.08L107.24-34.32ZM110.46-33.07L107.24-36.29L107.24-36.36L110.46-33.11L110.46-33.07ZM106.19 3.96L102.95 0.73L103.16 0.73L103.16-0.07L106.38 3.15L106.38 3.96L106.19 3.96ZM106.38 1.21L106.38 2.18L103.16-1.04L103.16-2.04L106.38 1.21ZM106.38 0.24L103.16-3.01L103.16-4.01L106.38-0.76L106.38 0.24ZM103.16-4.98L103.16-5.97L106.38-2.73L106.38-1.73L103.16-4.98ZM106.38-3.70L103.16-6.95L103.16-7.94L106.38-4.69L106.38-3.70ZM106.38-5.67L103.16-8.91L103.16-9.91L106.38-6.66L106.38-5.67ZM106.38-8.63L106.38-7.63L103.16-10.88L103.16-11.88L106.38-8.63ZM106.38-9.60L103.16-12.82L103.16-13.84L106.38-10.60L106.38-9.60ZM106.38-12.56L106.38-11.57L103.16-14.82L103.16-15.79L106.38-12.56ZM106.38-13.53L103.16-16.78L103.16-17.75L106.38-14.53L106.38-13.53ZM106.38-16.50L106.38-15.50L103.16-18.73L103.16-19.75L106.38-16.50ZM106.38-17.47L103.16-20.72L103.16-21.69L106.38-18.47L106.38-17.47ZM106.38-20.43L106.38-19.44L103.16-22.66L103.16-23.66L106.38-20.43ZM106.38-21.40L103.16-24.63L103.16-25.62L106.38-22.40L106.38-21.40ZM106.38-24.37L106.38-23.37L103.16-26.60L103.16-27.59L106.38-24.37ZM106.38-25.34L103.16-28.56L103.16-29.56L106.38-26.34L106.38-25.34ZM106.38-28.30L106.38-27.31L103.16-30.53L103.16-31.53L106.38-28.30ZM107.14-28.52L103.89-31.74L104.89-31.74L108.14-28.52L107.14-28.52ZM110.11-28.52L109.11-28.52L105.86-31.74L106.86-31.74L110.11-28.52ZM110.46-29.13L107.24-32.36L107.24-33.35L110.46-30.10L110.46-29.13ZM95.20-32.47L95.20-35.63L106.50-35.63L106.50-32.47L102.43-32.47L102.43 0L99.27 0L99.27-32.47L95.20-32.47ZM119.80 3.96L116.55 0.73L117.55 0.73L120.77 3.96L119.80 3.96ZM114.59 0.73L115.58 0.73L118.83 3.96L117.83 3.96L114.59 0.73ZM121.96 3.96L121.74 3.96L118.52 0.73L118.71 0.73L118.71-0.07L121.96 3.15L121.96 3.96ZM121.96 2.18L118.71-1.04L118.71-2.04L121.96 1.21L121.96 2.18ZM121.96-0.76L121.96 0.24L118.71-3.01L118.71-4.01L121.96-0.76ZM118.71-5.97L121.96-2.73L121.96-1.73L118.71-4.98L118.71-5.97ZM121.96-4.69L121.96-3.70L118.71-6.95L118.71-7.94L121.96-4.69ZM121.96-6.66L121.96-5.67L118.71-8.91L118.71-9.91L121.96-6.66ZM121.96-7.63L118.71-10.88L118.71-11.88L121.96-8.63L121.96-7.63ZM121.96-10.60L121.96-9.60L118.71-12.82L118.71-13.84L121.96-10.60ZM121.96-11.57L118.71-14.82L118.71-15.79L121.96-12.56L121.96-11.57ZM121.96-14.53L121.96-13.53L118.71-16.78L118.71-17.75L121.96-14.53ZM121.96-15.50L118.71-18.73L118.71-19.75L121.96-16.50L121.96-15.50ZM121.96-18.47L121.96-17.47L118.71-20.72L118.71-21.69L121.96-18.47ZM121.96-19.44L118.71-22.66L118.71-23.66L121.96-20.43L121.96-19.44ZM121.96-22.40L121.96-21.40L118.71-24.63L118.71-25.62L121.96-22.40ZM121.96-23.37L118.71-26.60L118.71-27.59L121.96-24.37L121.96-23.37ZM121.96-26.34L121.96-25.34L118.71-28.56L118.71-29.56L121.96-26.34ZM121.96-27.31L118.71-30.53L118.71-31.53L121.96-28.30L121.96-27.31ZM121.96-30.25L121.96-29.27L118.71-32.50L118.71-33.49L121.96-30.25ZM121.96-31.22L118.71-34.47L118.71-35.46L121.96-32.24L121.96-31.22ZM114.82 0L114.82-35.67L117.97-35.67L117.97 0L114.82 0ZM136.84 4.20L133.62 0.97Q134.00 0.90 134.40 0.76L134.40 0.76L137.63 4.01Q137.22 4.15 136.84 4.20L136.84 4.20ZM132.74 1.07L132.74 1.07L135.97 4.29Q135.75 4.31 135.66 4.31L135.66 4.31Q135.40 4.31 134.92 4.27L134.92 4.27L131.70 1.02Q132.17 1.07 132.53 1.07L132.53 1.07Q132.58 1.07 132.74 1.07ZM130.44 0.73L130.44 0.73L133.67 3.96Q132.41 3.53 131.51 2.63L131.51 2.63L128.31-0.57Q129.19 0.31 130.44 0.73ZM138.31 3.72L138.31 3.72L135.09 0.47Q135.49 0.28 135.73 0.12L135.73 0.12L138.95 3.34Q138.72 3.51 138.31 3.72ZM139.50 2.94L136.27-0.31Q136.51-0.52 136.77-0.81L136.77-0.81L140.00 2.44Q139.78 2.70 139.50 2.94L139.50 2.94ZM132.98-3.60L131.25-5.33L131.25-6.31L133.34-4.22Q133.29-3.89 132.98-3.60L132.98-3.60ZM131.25-4.36L131.25-4.36L132.29-3.29Q131.30-3.34 131.25-4.36ZM140.42 1.87L140.42 1.87L137.18-1.35Q137.36-1.64 137.55-1.99L137.55-1.99L140.78 1.26Q140.66 1.52 140.42 1.87ZM133.34-6.19L133.34-5.19L131.25-7.28L131.25-8.30L133.34-6.19ZM138.03-3.46L141.25-0.24Q141.18 0.14 141.06 0.55L141.06 0.55L137.82-2.68Q137.96-3.11 138.03-3.46L138.03-3.46ZM141.37-1.11L141.37-1.11L138.12-4.34Q138.15-4.65 138.15-4.81L138.15-4.81L138.15-5.33L141.37-2.09L141.37-1.56Q141.37-1.40 141.37-1.11ZM131.25-10.24L133.34-8.15L133.34-7.16L131.25-9.24L131.25-10.24ZM133.34-10.12L133.34-9.13L131.25-11.21L131.25-12.21L133.34-10.12ZM141.37-4.05L141.37-3.06L138.15-6.31L138.15-7.28L141.37-4.05ZM133.34-12.09L133.34-11.09L131.25-13.18L131.25-14.17L133.34-12.09ZM141.37-5.03L138.15-8.27L138.15-9.24L141.37-6.02L141.37-5.03ZM133.34-13.06L131.25-15.15L131.25-16.14L133.34-14.06L133.34-13.06ZM141.37-7.99L141.37-6.99L138.15-10.22L138.15-11.21L141.37-7.99ZM133.34-16.02L133.34-15.03L131.25-17.11L131.25-18.11L133.34-16.02ZM141.37-8.96L138.15-12.18L138.15-13.18L141.37-9.96L141.37-8.96ZM133.34-17.00L131.25-19.08L131.25-20.08L133.34-17.99L133.34-17.00ZM141.37-11.92L141.37-10.93L138.15-14.15L138.15-15.15L141.37-11.92ZM133.34-19.96L133.34-18.96L131.25-21.05L131.25-22.04L133.34-19.96ZM141.37-12.89L138.15-16.12L138.15-17.11L141.37-13.89L141.37-12.89ZM133.34-20.93L131.25-23.02L131.25-24.01L133.34-21.93L133.34-20.93ZM141.37-15.86L141.37-14.86L138.15-18.09L138.15-19.08L141.37-15.86ZM133.34-23.89L133.34-22.90L131.25-24.98L131.25-25.98L133.34-23.89ZM141.37-16.83L138.15-20.05L138.15-21.05L141.37-17.83L141.37-16.83ZM133.34-24.87L131.25-26.95L131.25-27.95L133.34-25.86L133.34-24.87ZM141.37-19.77L141.37-18.80L138.15-22.02L138.15-23.02L141.37-19.77ZM133.34-27.83L133.34-26.83L131.25-28.92L131.25-29.91L133.34-27.83ZM141.37-20.74L138.15-23.99L138.15-24.98L141.37-21.76L141.37-20.74ZM133.34-28.80L131.25-30.89L131.25-31.08Q131.25-31.46 131.37-31.74L131.37-31.74L133.34-29.80L133.34-28.80ZM141.37-23.73L141.37-22.71L138.15-25.96L138.15-26.95L141.37-23.73ZM133.34-31.17L133.34-30.77L131.87-32.24Q132.13-32.33 132.32-32.33L132.32-32.33Q133.34-32.33 133.34-31.17L133.34-31.17ZM141.37-24.68L138.15-27.92L138.15-28.92L141.37-25.67L141.37-24.68ZM141.37-27.64L141.37-26.64L138.15-29.89L138.15-30.89L141.37-27.64ZM141.32-28.66L138.10-31.91Q137.98-32.66 137.72-33.28L137.72-33.28L140.94-30.03Q141.20-29.44 141.32-28.66L141.32-28.66ZM137.41-31.17L137.41-31.17L137.41-4.81Q137.41-2.47 136.01-1.07L136.01-1.07Q134.62 0.33 132.48 0.33L132.48 0.33Q130.23 0.33 128.78-1.11L128.78-1.11Q127.31-2.58 127.31-5.10L127.31-5.10L127.31-30.82Q127.31-33.75 128.59-34.92L128.59-34.92Q129.78-35.98 132.27-35.98L132.27-35.98Q134.57-35.98 136.01-34.54L136.01-34.54Q137.41-33.14 137.41-31.17ZM134.07-4.27L134.07-4.27L134.07-31.17Q134.07-32.00 133.50-32.57L133.50-32.57Q133.00-33.07 132.32-33.07L132.32-33.07Q130.51-33.07 130.51-31.08L130.51-31.08L130.51-4.46Q130.51-3.63 131.04-3.11L131.04-3.11Q131.56-2.58 132.32-2.58L132.32-2.58Q132.98-2.58 133.52-3.13L133.52-3.13Q134.07-3.65 134.07-4.27ZM151.71 3.96L148.48 0.73L149.48 0.73L152.70 3.96L151.71 3.96ZM146.51 0.73L147.51 0.73L150.73 3.96L149.76 3.96L146.51 0.73ZM156.64 3.96L155.64 3.96L152.42 0.73L153.41 0.73L156.64 3.96ZM150.57-0.14L153.79 3.08L153.79 3.96L153.67 3.96L150.45 0.73L150.57 0.73L150.57-0.14ZM152.01 0.31L150.57-1.11L150.57-2.11L151.90-0.78L152.01 0.31ZM158.53-34.44L158.53-35.44L161.76-32.21L161.76-31.19L158.53-34.44ZM157.61 3.96L154.38 0.73L155.38 0.73L158.60 3.96L157.61 3.96ZM151.68-2.96L151.80-1.85L150.57-3.08L150.57-4.08L151.68-2.96ZM160.57 3.96L159.58 3.96L156.35 0.73L157.32 0.73L160.57 3.96ZM151.59-4.03L150.57-5.05L150.57-6.04L151.47-5.14L151.59-4.03ZM161.54 3.96L158.30 0.73L158.53 0.73L158.53-0.05L161.76 3.18L161.76 3.96L161.54 3.96ZM151.26-7.32L151.37-6.21L150.57-7.02L150.57-8.01L151.26-7.32ZM158.53-1.02L158.53-2.01L161.76 1.23L161.76 2.23L158.53-1.02ZM161.76 0.26L158.53-2.99L158.53-3.98L161.76-0.73L161.76 0.26ZM150.57-9.98L151.04-9.48L151.16-8.39L150.57-8.98L150.57-9.98ZM150.83-11.66L150.95-10.57L150.57-10.93L150.57-11.95L150.83-11.66ZM161.76-1.71L158.53-4.95L158.53-5.95L161.76-2.70L161.76-1.71ZM150.62-13.84L150.73-12.75L150.57-12.89L150.57-13.91L150.62-13.84ZM161.76-4.67L161.76-3.67L158.53-6.92L158.53-7.92L161.76-4.67ZM161.76-5.64L158.53-8.89L158.53-9.88L161.76-6.64L161.76-5.64ZM161.76-8.60L161.76-7.61L158.53-10.86L158.53-11.85L161.76-8.60ZM161.76-9.58L158.53-12.82L158.53-13.80L161.76-10.57L161.76-9.58ZM161.76-12.54L161.76-11.54L158.53-14.77L158.53-15.79L161.76-12.54ZM161.76-13.51L158.53-16.76L158.53-17.73L161.76-14.51L161.76-13.51ZM161.76-16.47L161.76-15.48L158.53-18.70L158.53-19.70L161.76-16.47ZM154.00-24.23L154.00-23.23L153.91-23.32L153.79-24.44L154.00-24.23ZM161.76-17.45L158.53-20.67L158.53-21.67L161.76-18.44L161.76-17.45ZM154.00-25.20L153.70-25.51L153.58-26.62L154.00-26.19L154.00-25.20ZM161.76-20.41L161.76-19.41L158.53-22.64L158.53-23.63L161.76-20.41ZM154.00-28.16L154.00-27.16L153.48-27.69L153.36-28.80L154.00-28.16ZM161.76-21.38L158.53-24.60L158.53-25.60L161.76-22.38L161.76-21.38ZM154.00-29.13L153.27-29.87L153.15-30.98L154.00-30.13L154.00-29.13ZM161.76-24.34L161.76-23.35L158.53-26.57L158.53-27.57L161.76-24.34ZM154.00-32.10L154.00-31.10L153.06-32.05L152.96-33.14L154.00-32.10ZM161.76-25.32L158.53-28.54L158.53-29.54L161.76-26.29L161.76-25.32ZM154.00-33.07L152.84-34.23L152.75-35.32L154.00-34.04L154.00-33.07ZM161.76-28.28L161.76-27.26L158.53-30.51L158.53-31.50L161.76-28.28ZM154.00-35.03L154.00-35.01L152.63-36.41L152.63-36.41L154.00-35.03ZM161.76-29.25L158.53-32.47L158.53-33.47L161.76-30.22L161.76-29.25ZM154.74-35.67L157.80-35.67L157.80 0L152.70 0L149.83-29.42L149.83 0L146.73 0L146.73-35.67L151.97-35.67L154.74-7.23L154.74-35.67ZM171.59 3.96L170.60 3.96L167.35 0.73L168.35 0.73L171.59 3.96ZM174.53 3.96L171.29 0.73L171.43 0.73L171.43-0.12L174.67 3.13L174.67 3.96L174.53 3.96ZM169.32 0.73L170.31 0.73L173.56 3.96L172.54 3.96L169.32 0.73ZM174.67-0.81L174.67 0.19L171.43-3.06L171.43-4.05L174.67-0.81ZM171.43-2.09L174.67 1.14L174.67 2.16L171.43-1.09L171.43-2.09ZM174.67-1.78L171.43-5.03L171.43-6.02L174.67-2.77L174.67-1.78ZM171.43-6.99L171.43-7.99L174.67-4.74L174.67-3.75L171.43-6.99ZM174.67-5.71L171.43-8.96L171.43-9.96L174.67-6.71L174.67-5.71ZM174.67-7.68L171.43-10.93L171.43-11.92L174.67-8.68L174.67-7.68ZM174.67-10.64L174.67-9.65L171.43-12.89L171.43-13.89L174.67-10.64ZM174.67-11.61L171.43-14.86L171.43-15.53L171.74-15.53L174.98-12.30L174.67-12.30L174.67-11.61ZM176.95-12.30L175.95-12.30L172.71-15.53L173.70-15.53L176.95-12.30ZM177.92-12.30L174.67-15.53L175.65-15.53L175.65-15.55L178.89-12.33L178.89-12.30L177.92-12.30ZM178.89-14.29L178.89-13.30L175.65-16.52L175.65-17.52L178.89-14.29ZM178.89-15.27L175.65-18.49L175.65-19.48L178.89-16.26L178.89-15.27ZM173.28-19.91L172.28-19.91L171.43-20.74L171.43-21.76L173.28-19.91ZM174.25-19.91L171.43-22.71L171.43-23.70L174.67-20.48L174.67-19.91L174.25-19.91ZM174.67-22.45L174.67-21.45L171.43-24.68L171.43-25.67L174.67-22.45ZM174.67-23.42L171.43-26.64L171.43-27.64L174.67-24.42L174.67-23.42ZM174.67-26.36L174.67-25.39L171.43-28.61L171.43-29.61L174.67-26.36ZM174.67-27.33L171.43-30.58L171.43-31.57L174.67-28.35L174.67-27.33ZM176.17-28.80L175.17-28.80L171.93-32.05L172.92-32.05L176.17-28.80ZM177.14-28.80L173.89-32.05L174.89-32.05L178.14-28.80L177.14-28.80ZM178.89-30.01L178.89-29.01L175.65-32.26L175.65-33.26L178.89-30.01ZM178.89-30.98L175.65-34.23L175.65-35.20L178.89-31.98L178.89-30.98ZM178.89-33.16L178.89-32.95L175.65-36.20L175.65-36.41L178.89-33.16ZM167.35 0L167.35-35.67L174.91-35.67L174.91-32.76L170.69-32.76L170.69-19.18L174.91-19.18L174.91-16.26L170.69-16.26L170.69 0L167.35 0ZM188.42 3.96L187.43 3.96L184.18 0.73L185.18 0.73L188.42 3.96ZM191.36 3.96L188.12 0.73L189.11 0.73L192.33 3.96L191.36 3.96ZM186.15 0.73L187.14 0.73L190.39 3.96L189.37 3.96L186.15 0.73ZM195.72 3.96L195.27 3.96L192.05 0.73L192.48 0.73L192.48 0.19L195.72 3.41L195.72 3.96ZM191.08 0.73L194.30 3.96L193.31 3.96L190.08 0.73L191.08 0.73ZM195.72 2.44L192.48-0.81L192.48-1.80L195.72 1.45L195.72 2.44ZM195.72-0.40L195.72 0.47L192.48-2.77L192.48-3.65L195.72-0.40ZM189.63-3.65L188.16-5.12L188.16-6.12L190.63-3.65L189.63-3.65ZM188.16-3.65L188.16-4.15L188.66-3.65L188.16-3.65ZM188.16-7.09L188.16-8.08L191.39-4.84L191.39-3.84L188.16-7.09ZM191.39-5.81L188.16-9.05L188.16-10.05L191.39-6.80L191.39-5.81ZM191.39-7.77L188.16-11.02L188.16-12.02L191.39-8.77L191.39-7.77ZM191.39-10.74L191.39-9.74L188.16-12.99L188.16-13.99L191.39-10.74ZM191.39-11.71L188.16-14.96L188.16-15.95L191.39-12.71L191.39-11.71ZM191.39-14.67L191.39-13.68L188.16-16.92L188.16-17.92L191.39-14.67ZM191.39-15.64L188.16-18.89L188.16-19.86L191.39-16.64L191.39-15.64ZM191.39-18.61L191.39-17.61L188.16-20.84L188.16-21.86L191.39-18.61ZM191.39-19.58L188.16-22.83L188.16-23.80L191.39-20.58L191.39-19.58ZM191.39-22.54L191.39-21.55L188.16-24.77L188.16-25.77L191.39-22.54ZM191.39-23.51L188.16-26.74L188.16-27.73L191.39-24.51L191.39-23.51ZM191.39-26.48L191.39-25.48L188.16-28.71L188.16-29.70L191.39-26.48ZM191.39-27.45L188.16-30.67L188.16-31.67L191.39-28.44L191.39-27.45ZM191.39-30.41L191.39-29.42L188.16-32.64L188.16-33.64L191.39-30.41ZM191.39-31.38L188.16-34.61L188.16-35.60L191.39-32.38L191.39-31.38ZM184.18 0L184.18-35.67L187.43-35.67L187.43-2.92L191.74-2.92L191.74 0L184.18 0ZM208.67 4.20L205.44 0.97Q205.82 0.90 206.22 0.76L206.22 0.76L209.45 4.01Q209.05 4.15 208.67 4.20L208.67 4.20ZM204.57 1.07L204.57 1.07L207.79 4.29Q207.58 4.31 207.48 4.31L207.48 4.31Q207.22 4.31 206.75 4.27L206.75 4.27L203.52 1.02Q204.00 1.07 204.35 1.07L204.35 1.07Q204.40 1.07 204.57 1.07ZM202.27 0.73L202.27 0.73L205.49 3.96Q204.23 3.53 203.33 2.63L203.33 2.63L200.13-0.57Q201.01 0.31 202.27 0.73ZM210.14 3.72L210.14 3.72L206.91 0.47Q207.32 0.28 207.55 0.12L207.55 0.12L210.78 3.34Q210.54 3.51 210.14 3.72ZM211.32 2.94L208.10-0.31Q208.33-0.52 208.60-0.81L208.60-0.81L211.82 2.44Q211.61 2.70 211.32 2.94L211.32 2.94ZM204.80-3.60L203.07-5.33L203.07-6.31L205.16-4.22Q205.11-3.89 204.80-3.60L204.80-3.60ZM203.07-4.36L203.07-4.36L204.12-3.29Q203.12-3.34 203.07-4.36ZM212.25 1.87L212.25 1.87L209.00-1.35Q209.19-1.64 209.38-1.99L209.38-1.99L212.60 1.26Q212.48 1.52 212.25 1.87ZM205.16-6.19L205.16-5.19L203.07-7.28L203.07-8.30L205.16-6.19ZM209.85-3.46L213.08-0.24Q213.00 0.14 212.89 0.55L212.89 0.55L209.64-2.68Q209.78-3.11 209.85-3.46L209.85-3.46ZM213.19-1.11L213.19-1.11L209.95-4.34Q209.97-4.65 209.97-4.81L209.97-4.81L209.97-5.33L213.19-2.09L213.19-1.56Q213.19-1.40 213.19-1.11ZM203.07-10.24L205.16-8.15L205.16-7.16L203.07-9.24L203.07-10.24ZM205.16-10.12L205.16-9.13L203.07-11.21L203.07-12.21L205.16-10.12ZM213.19-4.05L213.19-3.06L209.97-6.31L209.97-7.28L213.19-4.05ZM205.16-12.09L205.16-11.09L203.07-13.18L203.07-14.17L205.16-12.09ZM213.19-5.03L209.97-8.27L209.97-9.24L213.19-6.02L213.19-5.03ZM205.16-13.06L203.07-15.15L203.07-16.14L205.16-14.06L205.16-13.06ZM213.19-7.99L213.19-6.99L209.97-10.22L209.97-11.21L213.19-7.99ZM205.16-16.02L205.16-15.03L203.07-17.11L203.07-18.11L205.16-16.02ZM213.19-8.96L209.97-12.18L209.97-13.18L213.19-9.96L213.19-8.96ZM205.16-17.00L203.07-19.08L203.07-20.08L205.16-17.99L205.16-17.00ZM213.19-11.92L213.19-10.93L209.97-14.15L209.97-15.15L213.19-11.92ZM205.16-19.96L205.16-18.96L203.07-21.05L203.07-22.04L205.16-19.96ZM213.19-12.89L209.97-16.12L209.97-17.11L213.19-13.89L213.19-12.89ZM205.16-20.93L203.07-23.02L203.07-24.01L205.16-21.93L205.16-20.93ZM213.19-15.86L213.19-14.86L209.97-18.09L209.97-19.08L213.19-15.86ZM205.16-23.89L205.16-22.90L203.07-24.98L203.07-25.98L205.16-23.89ZM213.19-16.83L209.97-20.05L209.97-21.05L213.19-17.83L213.19-16.83ZM205.16-24.87L203.07-26.95L203.07-27.95L205.16-25.86L205.16-24.87ZM213.19-19.77L213.19-18.80L209.97-22.02L209.97-23.02L213.19-19.77ZM205.16-27.83L205.16-26.83L203.07-28.92L203.07-29.91L205.16-27.83ZM213.19-20.74L209.97-23.99L209.97-24.98L213.19-21.76L213.19-20.74ZM205.16-28.80L203.07-30.89L203.07-31.08Q203.07-31.46 203.19-31.74L203.19-31.74L205.16-29.80L205.16-28.80ZM213.19-23.73L213.19-22.71L209.97-25.96L209.97-26.95L213.19-23.73ZM205.16-31.17L205.16-30.77L203.69-32.24Q203.95-32.33 204.14-32.33L204.14-32.33Q205.16-32.33 205.16-31.17L205.16-31.17ZM213.19-24.68L209.97-27.92L209.97-28.92L213.19-25.67L213.19-24.68ZM213.19-27.64L213.19-26.64L209.97-29.89L209.97-30.89L213.19-27.64ZM213.15-28.66L209.92-31.91Q209.80-32.66 209.54-33.28L209.54-33.28L212.77-30.03Q213.03-29.44 213.15-28.66L213.15-28.66ZM209.24-31.17L209.24-31.17L209.24-4.81Q209.24-2.47 207.84-1.07L207.84-1.07Q206.44 0.33 204.30 0.33L204.30 0.33Q202.05 0.33 200.61-1.11L200.61-1.11Q199.14-2.58 199.14-5.10L199.14-5.10L199.14-30.82Q199.14-33.75 200.42-34.92L200.42-34.92Q201.60-35.98 204.09-35.98L204.09-35.98Q206.39-35.98 207.84-34.54L207.84-34.54Q209.24-33.14 209.24-31.17ZM205.89-4.27L205.89-4.27L205.89-31.17Q205.89-32.00 205.32-32.57L205.32-32.57Q204.83-33.07 204.14-33.07L204.14-33.07Q202.34-33.07 202.34-31.08L202.34-31.08L202.34-4.46Q202.34-3.63 202.86-3.11L202.86-3.11Q203.38-2.58 204.14-2.58L204.14-2.58Q204.80-2.58 205.35-3.13L205.35-3.13Q205.89-3.65 205.89-4.27ZM232.65-13.72L232.63-13.72L232.56-14.79L232.73-14.65L232.65-13.72ZM232.84-16.50L232.77-15.55L232.49-15.83L232.42-16.92L232.84-16.50ZM232.92-17.40L232.35-17.97L232.28-19.03L232.96-18.32L232.92-17.40ZM233.11-20.15L233.03-19.25L232.20-20.08L232.11-21.14L233.11-20.15ZM233.18-21.07L232.04-22.19L231.97-23.25L233.22-22.00L233.18-21.07ZM233.37-23.85L233.29-22.90L231.90-24.30L231.83-25.39L233.37-23.85ZM233.44-24.75L231.75-26.43L231.68-27.50L233.48-25.67L233.44-24.75ZM233.63-27.52L233.56-26.57L231.59-28.54L231.52-29.61L233.63-27.52ZM233.67-28.42L231.45-30.65L231.37-31.72L233.75-29.35L233.67-28.42ZM233.89-31.17L233.82-30.25L231.30-32.76L231.23-33.83L233.89-31.17ZM233.93-32.10L231.16-34.89L231.07-35.96L234.01-33.02L233.93-32.10ZM225.78 3.96L224.79 3.96L221.56 0.73L222.56 0.73L225.78 3.96ZM220.59 0.73L223.81 3.96L222.91 3.96L219.69 0.73L220.59 0.73ZM228.72 3.96L225.50 0.73L226.49 0.73L229.72 3.96L228.72 3.96ZM223.53 0.73L224.52 0.73L227.75 3.96L226.75 3.96L223.53 0.73ZM233.65 3.96L232.65 3.96L229.43 0.73L230.40 0.73L233.65 3.96ZM226.97-0.76L230.21 2.49L230.14 3.41L226.89 0.19L226.97-0.76ZM229.03 0.33L227.04-1.66L227.08-2.58L228.96-0.73L229.03 0.33ZM241.88-30.08L238.65-33.30L238.72-34.23L241.95-31.00L241.88-30.08ZM238.51-31.46L238.58-32.40L241.83-29.16L241.76-28.23L238.51-31.46ZM234.62 3.96L231.37 0.73L232.39 0.73L235.62 3.96L234.62 3.96ZM228.81-2.82L228.89-1.75L227.16-3.51L227.23-4.43L228.81-2.82ZM242.07-32.83L242.02-31.91L238.77-35.13L238.84-36.08L242.07-32.83ZM237.59 3.96L236.59 3.96L233.37 0.73L234.34 0.73L237.59 3.96ZM228.77-3.86L227.27-5.36L227.35-6.26L228.70-4.93L228.77-3.86ZM238.56 3.96L235.31 0.73L236.23 0.73L236.23 0.66L239.48 3.89L239.48 3.96L238.56 3.96ZM228.55-7.04L228.63-5.95L227.39-7.18L227.46-8.11L228.55-7.04ZM236.31-0.24L236.38-1.16L239.60 2.06L239.55 2.99L236.31-0.24ZM239.67 1.16L236.45-2.09L236.49-3.01L239.74 0.24L239.67 1.16ZM227.58-9.96L228.41-9.13L228.48-8.06L227.53-9.03L227.58-9.96ZM228.29-11.24L228.36-10.17L227.65-10.86L227.72-11.80L228.29-11.24ZM223.43-16.07L223.39-15.15L223.15-15.36L223.08-16.43L223.43-16.07ZM223.22-14.32L223.32-14.22L223.27-13.65L223.22-14.32ZM239.81-0.69L236.57-3.91L236.64-4.84L239.88-1.61L239.81-0.69ZM228.15-13.32L228.22-12.25L227.77-12.71L227.84-13.63L228.15-13.32ZM223.51-16.97L223.01-17.47L222.94-18.54L223.58-17.90L223.51-16.97ZM240.00-3.44L239.93-2.51L236.71-5.76L236.76-6.68L240.00-3.44ZM228.08-14.36L227.91-14.55L227.96-15.48L228.01-15.43L228.08-14.36ZM223.69-19.75L223.65-18.82L222.87-19.60L222.77-20.67L223.69-19.75ZM240.07-4.36L236.83-7.59L236.90-8.51L240.12-5.29L240.07-4.36ZM223.77-20.65L222.70-21.71L222.63-22.78L223.84-21.57L223.77-20.65ZM240.26-7.11L240.19-6.19L236.97-9.43L237.02-10.36L240.26-7.11ZM223.96-23.42L223.91-22.50L222.56-23.82L222.49-24.89L223.96-23.42ZM240.33-8.01L237.09-11.26L237.16-12.18L240.38-8.96L240.33-8.01ZM224.03-24.32L222.41-25.93L222.34-27.00L224.10-25.24L224.03-24.32ZM240.52-10.79L240.45-9.86L237.23-13.08L237.28-14.03L240.52-10.79ZM224.22-27.09L224.17-26.15L222.27-28.04L222.18-29.13L224.22-27.09ZM240.60-11.71L237.35-14.93L237.42-15.86L240.64-12.63L240.60-11.71ZM224.29-27.99L222.11-30.18L222.04-31.24L224.36-28.92L224.29-27.99ZM240.79-14.46L240.71-13.53L237.47-16.76L237.54-17.71L240.79-14.46ZM224.48-30.77L224.41-29.82L221.96-32.28L221.89-33.35L224.48-30.77ZM240.83-15.36L237.61-18.61L237.68-19.53L240.90-16.31L240.83-15.36ZM224.55-31.67L221.82-34.39L221.75-35.46L224.62-32.59L224.55-31.67ZM241.05-18.13L240.97-17.21L237.73-20.43L237.80-21.38L241.05-18.13ZM241.09-19.03L237.87-22.28L237.94-23.21L241.16-19.98L241.09-19.03ZM241.31-21.81L241.24-20.88L237.99-24.11L238.06-25.06L241.31-21.81ZM241.35-22.71L238.13-25.96L238.20-26.88L241.43-23.66L241.35-22.71ZM241.57-25.48L241.50-24.56L238.25-27.78L238.32-28.73L241.57-25.48ZM241.61-26.38L238.39-29.63L238.44-30.55L241.69-27.31L241.61-26.38ZM228.13-25.01L227.89-25.01L226.18 0L220.35 0L217.84-35.67L220.99-35.67L223.03-6.76L223.53-6.76L225.57-35.67L230.36-35.67L232.39-6.76L232.89-6.76L234.93-35.67L238.08-35.67L235.57 0L229.74 0L228.13-25.01Z" transform="translate(-2.465216943213426, 36.40999984741211)"></path></g></g></svg>